<?xml version="1.0" standalone="no"?>
<!DOCTYPE svg PUBLIC "-//W3C//DTD SVG 20010904//EN"
 "http://www.w3.org/TR/2001/REC-SVG-20010904/DTD/svg10.dtd">
<svg version="1.0" xmlns="http://www.w3.org/2000/svg"
 width="152.000000pt" height="152.000000pt" viewBox="0 0 152.000000 152.000000"
 preserveAspectRatio="xMidYMid meet">
<metadata>
Created by potrace 1.11, written by Peter Selinger 2001-2013
</metadata>
<g transform="translate(0.000000,152.000000) scale(0.100000,-0.100000)"
fill="#000000" stroke="none">
<path d="M7 1513 c-4 -3 -7 -345 -7 -760 l0 -753 760 0 760 0 -2 757 -3 758
-751 3 c-413 1 -754 -1 -757 -5z m1484 -28 c4 -33 3 -1455 -1 -1456 -13 -3
-1437 -4 -1450 -1 -13 3 -15 91 -15 730 -1 400 2 729 6 732 14 10 1459 5 1460
-5z"/>
<path d="M168 949 c-12 -7 27 -50 83 -91 79 -58 302 -157 314 -139 9 16 98 62
155 80 81 27 263 16 288 -17 11 -15 16 -14 58 8 48 26 158 121 173 149 8 15
-32 16 -526 16 -294 0 -540 -3 -545 -6z"/>
<path d="M1294 923 c-14 -21 -40 -60 -57 -87 -37 -57 -94 -93 -218 -136 -102
-35 -234 -48 -243 -25 -7 19 19 30 89 39 62 8 102 23 109 42 8 22 -18 28 -129
28 -99 0 -101 -1 -195 -48 -153 -77 -137 -58 -313 -351 -57 -95 -127 -234
-127 -252 0 -5 69 -9 152 -9 l153 0 19 35 c10 19 34 80 53 135 49 145 69 185
99 197 15 5 83 11 153 14 69 2 137 6 150 9 13 3 63 29 111 57 84 50 89 55 137
138 57 97 113 215 113 237 0 27 -30 14 -56 -23z"/>
<path d="M371 681 c-28 -33 -95 -104 -149 -158 l-97 -98 0 -151 0 -151 26 1
c23 1 34 15 94 135 104 206 232 420 257 429 18 8 6 21 -32 36 -22 9 -42 16
-44 16 -2 0 -26 -27 -55 -59z"/>
</g>
</svg>
