<?xml version="1.0" standalone="no"?>
<!DOCTYPE svg PUBLIC "-//W3C//DTD SVG 20010904//EN"
 "http://www.w3.org/TR/2001/REC-SVG-20010904/DTD/svg10.dtd">
<svg version="1.0" xmlns="http://www.w3.org/2000/svg"
 width="300.000000pt" height="170.000000pt" viewBox="0 0 300.000000 170.000000"
 preserveAspectRatio="xMidYMid meet">
<metadata>
Created by potrace 1.10, written by Peter Selinger 2001-2011
</metadata>
<g transform="translate(0.000000,170.000000) scale(0.050000,-0.050000)"
fill="#000000" stroke="none">
<path d="M4385 3345 c-14 -4 -24 -28 -23 -52 0 -23 6 -32 11 -18 20 49 43 24
43 -47 0 -54 -10 -75 -37 -82 -37 -10 -41 -61 -10 -132 24 -54 -3 -65 -52 -22
-39 34 -42 34 -31 3 15 -41 -7 -46 -45 -10 -22 20 -25 19 -15 -9 8 -21 0 -37
-22 -42 -19 -5 29 -8 106 -7 129 3 140 0 136 -37 -2 -22 10 -47 25 -56 16 -9
29 -35 29 -59 l0 -43 -40 43 c-22 24 -40 56 -40 72 0 16 -18 33 -40 39 -28 7
-40 0 -40 -22 0 -26 -5 -25 -29 7 -17 22 -30 29 -30 17 -1 -32 87 -108 125
-108 19 0 34 -9 34 -19 0 -10 23 -43 50 -73 49 -53 66 -108 33 -108 -25 0 -78
65 -89 110 -8 36 -10 36 -12 3 -1 -27 -12 -34 -37 -25 -23 8 -20 1 11 -24 25
-19 40 -41 33 -49 -20 -20 -129 68 -129 104 0 17 -19 43 -42 57 -38 24 -40 23
-28 -15 8 -25 4 -41 -11 -41 -12 0 -27 17 -33 39 -6 24 -31 41 -63 45 -34 4
-55 20 -60 46 -7 40 -7 40 25 0 17 -22 31 -29 31 -17 1 13 7 38 13 56 9 24 4
28 -22 18 -29 -11 -32 -5 -21 35 l14 48 -43 -50 -43 -50 11 53 c11 52 -36 98
-66 65 -7 -8 -1 -17 13 -22 14 -5 25 -18 25 -28 0 -12 -16 -11 -40 2 -24 13
-40 42 -40 72 0 28 -9 45 -20 38 -11 -7 -20 -5 -20 5 0 9 -20 18 -45 20 -43 3
-43 1 9 -37 32 -24 50 -52 43 -69 -8 -20 9 -37 51 -51 60 -21 102 -70 102
-117 0 -35 -57 -23 -69 15 -10 31 -91 53 -91 24 0 -6 -20 -13 -44 -15 -63 -5
-116 51 -116 119 0 32 -8 53 -18 47 -10 -6 -14 -29 -8 -51 6 -22 1 -40 -12
-40 -12 0 -22 18 -22 40 0 22 -9 40 -20 40 -28 0 -25 -15 14 -81 34 -58 20
-113 -15 -58 -11 18 -19 20 -19 5 0 -13 14 -32 31 -41 19 -11 26 -31 17 -52
-10 -28 -18 -30 -44 -9 -25 22 -29 21 -21 -4 6 -16 36 -32 69 -34 32 -3 47 0
33 6 -46 21 -26 51 30 44 31 -3 53 -17 50 -31 -3 -14 4 -25 15 -25 11 0 20 8
20 18 0 21 99 49 116 33 22 -23 -86 -94 -131 -85 -28 5 -45 -1 -45 -18 0 -15
13 -22 29 -16 20 8 25 0 17 -30 -6 -23 -25 -42 -42 -42 -17 0 -25 6 -17 13 13
13 -46 55 -112 79 -19 7 -35 21 -35 32 0 10 -10 12 -23 4 -27 -17 50 -88 95
-88 15 0 28 -9 28 -20 0 -25 -13 -25 -59 0 -29 15 -44 9 -69 -30 -30 -45 -30
-48 1 -36 18 7 43 0 55 -16 34 -43 68 -42 92 2 26 49 69 53 52 5 -8 -24 0 -20
28 12 22 26 40 59 40 73 0 14 14 36 30 50 39 32 38 2 -2 -77 -17 -35 -27 -75
-23 -88 11 -32 66 75 85 165 26 123 122 161 226 89 61 -43 35 -80 -28 -40 -44
29 -48 29 -48 -1 0 -20 -11 -28 -30 -21 -16 7 -30 3 -30 -9 0 -12 44 -16 118
-10 85 8 124 3 141 -16 27 -33 -22 -61 -53 -30 -23 23 -91 2 -75 -23 6 -10 23
-12 40 -6 16 6 29 1 29 -11 0 -32 -53 -49 -95 -31 -72 33 -140 31 -96 -2 21
-16 57 -29 79 -29 29 0 34 -6 18 -22 -16 -16 -33 -16 -63 0 -24 13 -45 15 -52
4 -6 -10 0 -23 14 -28 14 -4 18 -16 9 -26 -9 -9 -34 -5 -57 9 -37 23 -39 22
-27 -18 15 -48 -83 -43 -112 5 -9 13 -18 13 -27 -2 -7 -12 -2 -22 11 -22 14 0
19 -6 12 -13 -7 -7 -28 0 -46 15 -28 23 -32 22 -25 -13 5 -21 -5 -50 -22 -63
-27 -22 -26 -25 9 -25 40 0 118 38 80 39 -22 1 31 39 55 40 34 0 11 -43 -34
-63 -27 -12 -53 -34 -59 -49 -14 -37 47 -11 108 47 62 59 200 133 200 107 0
-11 -18 -25 -40 -32 -22 -7 -49 -30 -61 -51 -11 -22 -34 -39 -50 -39 -16 0
-40 -18 -54 -40 -13 -22 -44 -40 -67 -40 -44 0 -48 -86 -5 -112 11 -7 13 11 6
40 -11 42 -6 52 25 52 21 0 48 10 60 22 15 15 25 15 35 0 7 -12 39 -22 70 -22
47 0 55 -7 47 -40 -12 -44 41 -58 66 -17 10 16 4 20 -19 11 -51 -20 -39 22 22
78 36 34 57 43 62 26 5 -13 -7 -36 -26 -50 -27 -20 -30 -33 -12 -66 26 -49 51
-57 33 -11 -15 40 23 114 50 98 11 -7 13 -22 3 -36 -16 -21 -17 -34 -7 -88 1
-8 32 44 69 115 l67 130 89 -1 c152 -2 281 -127 210 -205 -16 -19 -36 -59 -44
-89 -17 -69 -41 -70 -58 -3 -9 36 -2 65 21 90 22 25 26 38 10 38 -15 0 -20 15
-13 38 8 23 1 42 -18 49 -23 9 -27 -1 -18 -47 8 -39 1 -69 -21 -91 -18 -18
-27 -40 -21 -51 16 -26 -78 -23 -105 4 -15 15 -25 15 -35 0 -7 -12 -4 -22 8
-22 11 0 21 -9 21 -21 0 -13 -12 -14 -36 -1 -22 12 -47 12 -65 1 -23 -15 -21
-18 10 -19 29 0 33 -6 16 -23 -17 -17 -36 -14 -76 12 -29 19 -70 30 -91 25
-21 -6 -43 -2 -49 8 -7 10 -20 13 -30 7 -11 -6 -19 3 -19 20 0 17 -10 31 -21
31 -12 0 -15 11 -7 23 10 16 4 20 -19 11 -19 -7 -33 -3 -33 11 0 17 -6 17 -24
-1 -20 -20 -20 -33 -1 -64 13 -21 19 -52 13 -69 -7 -17 -3 -31 8 -31 11 0 24
11 29 24 5 15 21 17 46 7 38 -17 38 -17 -1 -26 -22 -5 -46 -19 -53 -31 -10
-15 -24 -13 -46 5 -18 15 -36 22 -42 17 -33 -33 58 -62 118 -37 106 43 192 51
144 12 -21 -17 -54 -31 -73 -31 -19 0 -38 -9 -41 -20 -4 -12 -36 -23 -70 -25
-46 -4 -58 -11 -44 -29 21 -25 126 1 148 36 15 24 49 23 49 -2 0 -74 -200
-116 -250 -52 -23 29 -116 58 -99 30 16 -25 -19 -23 -80 5 -77 35 -62 64 27
52 70 -10 79 -6 87 37 5 26 1 42 -9 35 -10 -6 -16 2 -12 18 3 16 -24 54 -61
85 -44 38 -63 68 -56 93 6 23 -7 49 -33 67 -34 24 -36 30 -10 30 42 0 110 -65
79 -76 -13 -4 -23 -17 -23 -29 0 -12 6 -16 13 -9 7 8 27 3 43 -11 25 -21 27
-18 14 25 -25 80 -77 140 -110 127 -16 -6 -64 -16 -105 -22 -42 -6 -81 -18
-87 -28 -6 -9 -33 -17 -60 -17 -29 0 -45 9 -38 20 7 11 32 20 56 20 32 1 37 5
17 18 -36 23 17 43 74 28 42 -10 103 32 103 72 0 40 -80 67 -116 39 -29 -21
-30 -21 -9 3 33 37 32 53 -5 53 -17 0 -26 -3 -22 -8 16 -16 -154 -166 -201
-177 -68 -18 -58 23 13 52 33 14 60 33 60 44 0 10 -11 13 -25 6 -14 -7 -10 0
9 15 27 23 30 34 10 55 -19 21 -17 23 12 13 20 -7 31 -4 25 6 -6 9 0 22 14 28
14 5 -8 11 -49 11 -50 1 -73 -6 -69 -23 4 -14 3 -18 -2 -10 -28 50 -65 8 -65
-74 0 -112 -33 -206 -63 -176 -14 14 -14 34 3 65 19 35 19 42 0 30 -17 -11
-20 -3 -11 27 8 26 5 43 -8 43 -11 0 -21 -19 -21 -42 0 -29 -9 -39 -29 -31
-15 6 -33 0 -39 -13 -6 -13 -9 -1 -7 26 5 63 -42 128 -98 136 -62 8 -74 -50
-27 -131 23 -39 37 -75 31 -80 -18 -18 -71 38 -71 75 0 20 -14 41 -31 48 -18
6 -25 22 -17 35 8 14 5 18 -8 10 -11 -8 -27 -5 -34 7 -22 35 -48 22 -40 -21 5
-25 -1 -39 -14 -34 -29 9 -39 75 -12 75 11 0 15 15 8 33 -10 24 -6 28 13 13
16 -13 50 -13 95 -1 71 19 45 75 -35 75 -15 0 -22 9 -15 20 7 12 -2 14 -23 6
-31 -12 -30 -15 9 -33 58 -25 57 -61 -1 -46 -25 7 -50 13 -56 13 -6 0 -7 34
-2 75 8 68 6 72 -25 46 -26 -21 -28 -31 -9 -43 19 -12 19 -22 -2 -46 -41 -50
-56 -38 -52 43 4 74 5 75 87 73 45 -1 78 6 72 15 -29 47 89 9 146 -47 36 -35
66 -54 66 -42 0 13 -25 41 -55 64 -44 33 -48 41 -19 41 22 1 31 10 23 23 -8
12 -2 30 13 40 41 25 58 22 58 -12 0 -16 -10 -30 -22 -30 -12 0 -18 -10 -14
-23 10 -30 96 -62 96 -36 0 10 -9 19 -20 19 -11 0 -20 14 -20 32 0 25 12 29
52 19 33 -8 47 -5 38 8 -7 12 -26 21 -43 21 -16 0 -44 14 -61 31 -28 28 -36
27 -85 -20 -92 -88 -161 -60 -120 49 2 6 5 21 6 34 2 14 32 51 67 83 63 58 64
59 17 68 -48 9 -110 -15 -135 -53 -8 -11 -20 -14 -28 -7 -8 8 3 34 24 58 28
31 30 40 8 33 -16 -5 -39 -36 -50 -69 -11 -33 -36 -82 -55 -108 l-35 -49 12
55 c8 35 4 55 -11 55 -15 0 -21 -40 -17 -122 6 -113 2 -126 -49 -164 -64 -48
-104 -27 -42 22 44 35 46 111 6 186 -14 27 -5 46 41 85 59 49 75 75 45 71 -49
-8 -48 7 5 42 33 22 47 40 30 39 -44 -1 -100 -49 -100 -86 0 -18 -19 -52 -42
-75 -27 -27 -38 -57 -31 -85 11 -42 10 -42 -18 -4 -16 21 -29 51 -29 66 0 15
-9 22 -20 15 -12 -7 -16 -21 -9 -31 6 -10 -4 -40 -22 -68 -18 -27 -27 -57 -21
-67 6 -10 -16 -16 -48 -12 -33 4 -60 -2 -60 -12 0 -18 71 -29 132 -22 36 4 74
-111 59 -173 -8 -30 -14 -84 -13 -119 2 -86 -25 -97 -87 -35 -72 72 -68 117 9
102 58 -12 60 -10 58 63 0 40 -6 63 -11 49 -14 -34 -66 -32 -79 4 -15 39 -63
17 -80 -36 -15 -49 -66 -113 -91 -113 -10 0 -6 19 8 43 20 34 20 44 -1 52 -20
7 -15 23 20 60 33 36 39 53 20 60 -21 7 -21 15 0 40 22 26 21 30 -4 21 -16 -5
-30 -28 -30 -51 0 -23 -8 -49 -18 -58 -11 -10 -13 -3 -6 18 7 19 4 35 -7 35
-45 0 -14 60 36 71 109 24 117 29 84 50 -27 17 28 31 86 21 24 -3 17 19 -17
53 -30 30 -30 34 1 57 40 29 10 54 -40 35 -30 -12 -33 -5 -21 45 8 32 23 61
33 65 11 3 19 15 19 26 0 11 -8 14 -19 8 -10 -6 -23 -3 -30 7 -6 11 4 23 24
28 26 7 23 10 -11 12 -27 1 -41 11 -34 23 9 13 -5 16 -38 8 -33 -8 -52 -5 -52
9 0 12 9 22 20 22 11 0 20 8 20 17 0 23 -97 4 -114 -23 -7 -13 0 -16 19 -9 48
19 55 -28 21 -132 -34 -102 -55 -116 -73 -48 -19 68 -16 75 27 75 39 0 39 2 8
50 -43 66 -72 64 -55 -3 11 -45 7 -51 -21 -41 -31 12 -31 8 2 -51 61 -111 68
-118 99 -93 20 17 27 17 27 0 0 -12 -10 -22 -22 -22 -13 0 -19 -21 -13 -50 9
-50 -20 -72 -34 -25 -29 98 -31 100 -62 74 -27 -22 -23 -33 33 -91 65 -67 104
-72 95 -11 -15 96 47 185 70 100 9 -37 16 -40 42 -18 48 40 36 -8 -12 -51 -24
-21 -37 -27 -29 -13 8 14 4 25 -8 25 -13 0 -18 -16 -10 -39 14 -45 -48 -88
-99 -69 -17 7 -31 3 -31 -8 0 -11 10 -24 23 -28 16 -6 17 -19 3 -44 -17 -32
-22 -29 -45 26 -26 61 -61 67 -61 10 0 -19 10 -25 25 -16 14 8 7 -5 -14 -30
-39 -44 -39 -44 -54 -3 -9 22 -25 41 -36 41 -39 0 -21 -82 29 -131 89 -89 129
-282 67 -321 -17 -10 -20 4 -11 49 7 35 5 63 -6 63 -10 0 -14 13 -8 28 6 15
-15 52 -46 80 l-56 53 -7 -53 c-4 -35 7 -61 35 -81 68 -47 55 -88 -18 -61 -56
21 -69 47 -65 130 0 15 -11 22 -27 16 -15 -6 -28 -2 -28 9 0 11 12 25 27 31
15 5 28 37 29 69 1 33 -7 55 -17 48 -11 -6 -19 -1 -19 12 0 12 17 27 39 33 38
10 88 112 66 134 -6 7 3 12 22 12 39 0 40 9 11 63 -16 30 -16 47 0 63 28 28
29 81 1 64 -11 -7 -33 -42 -48 -77 l-28 -63 -1 54 c-1 29 6 75 16 102 15 38
10 55 -25 86 l-43 38 80 11 c68 9 73 13 36 26 -29 10 -40 26 -33 49 7 22 -5
16 -33 -16 -24 -27 -38 -39 -31 -25 8 14 4 25 -8 25 -11 0 -21 15 -21 33 0 28
-9 26 -50 -13 -27 -26 -50 -39 -51 -28 -1 40 -46 -64 -49 -115 -2 -37 5 -50
23 -43 15 6 27 0 27 -13 0 -13 9 -18 20 -11 32 20 100 -28 100 -71 0 -50 -24
-50 -55 1 -15 24 -47 40 -78 40 -51 0 -52 -2 -19 -38 28 -30 29 -39 6 -48 -15
-6 -40 7 -55 27 -19 26 -32 31 -41 15 -21 -34 2 -76 41 -76 36 0 92 -96 69
-118 -7 -6 -17 -1 -22 13 -5 14 -22 25 -38 25 -50 0 -30 -32 42 -66 70 -34
102 -92 35 -64 -60 26 -163 23 -174 -4 -18 -46 -46 -27 -36 24 9 47 6 49 -73
42 -45 -5 -82 -1 -82 8 0 9 -15 21 -32 28 -23 9 -29 4 -21 -18 18 -46 -21 -36
-56 14 -17 25 -31 33 -31 19 0 -14 -9 -20 -20 -13 -11 7 -20 -1 -20 -18 0 -39
39 -62 95 -55 64 8 103 -20 54 -39 -27 -11 -16 -14 36 -12 45 2 75 14 75 29 0
14 10 25 22 25 15 0 12 -16 -7 -45 -27 -43 -26 -104 2 -87 7 4 13 -18 13 -50
0 -32 -7 -58 -15 -58 -51 0 -4 -76 69 -111 100 -47 137 -96 100 -133 -18 -18
-30 -19 -40 -4 -18 28 -104 50 -104 27 0 -26 95 -84 117 -71 10 6 17 -18 16
-54 0 -36 5 -79 11 -97 9 -21 -7 -47 -46 -75 -65 -48 -76 -36 -23 25 29 33 30
38 3 28 -18 -6 -31 0 -31 14 0 16 15 21 39 15 27 -7 36 -3 26 13 -8 13 -32 23
-53 23 -22 0 -39 9 -39 20 0 11 -10 20 -21 20 -13 0 -16 -17 -8 -43 9 -28 6
-38 -9 -28 -12 7 -22 31 -22 52 0 22 -10 39 -21 39 -12 0 -16 9 -9 19 6 11
-11 26 -40 33 -41 10 -46 18 -28 40 15 19 16 28 2 28 -12 0 -27 18 -34 40 -7
22 -26 40 -41 40 -28 0 -41 70 -32 167 3 29 -6 35 -39 27 -44 -12 -46 21 -7
114 10 24 8 34 -4 26 -11 -7 -32 19 -47 57 -15 38 -31 69 -35 69 -25 0 -66
-64 -55 -85 7 -14 0 -10 -15 9 -20 24 -35 28 -49 14 -15 -15 -26 -15 -35 0
-20 34 -71 26 -71 -10 0 -20 11 -28 30 -21 37 15 37 -21 0 -87 l-29 -50 -2 50
c-1 28 -7 39 -12 25 -15 -36 -43 -31 -53 10 -8 31 -10 31 -12 1 -1 -18 -20
-39 -42 -46 -59 -19 -49 -46 30 -79 39 -16 70 -39 70 -50 0 -12 22 -30 50 -41
30 -11 45 -29 38 -47 -6 -17 7 -32 36 -40 38 -11 41 -16 16 -33 -24 -15 -19
-19 24 -20 29 0 59 -9 66 -20 7 -11 -2 -20 -19 -20 -17 0 -31 -9 -31 -19 0
-11 26 -15 60 -8 39 8 77 0 110 -21 51 -33 51 -33 38 17 -15 63 7 67 30 6 11
-29 9 -50 -6 -60 -15 -11 -13 -21 7 -34 17 -10 24 -25 16 -33 -8 -7 -29 -2
-46 13 -38 31 -109 41 -109 14 0 -9 -11 -10 -25 -2 -14 9 -34 17 -45 18 -46 3
-90 36 -90 66 -1 29 -3 29 -20 3 -15 -24 -19 -20 -20 19 0 47 -1 48 -31 10
-30 -37 -31 -36 -20 21 9 43 7 52 -7 30 -21 -31 -68 52 -48 85 4 8 -1 15 -11
15 -11 0 -24 11 -29 25 -4 14 -4 3 0 -23 5 -27 -3 -55 -17 -64 -29 -17 -78 65
-84 142 -2 28 -13 47 -23 44 -11 -4 -18 -25 -15 -47 7 -53 -24 -110 -43 -80
-8 13 -5 23 7 23 11 0 21 9 21 20 0 12 -22 17 -50 12 -29 -6 -50 0 -50 13 0
17 -6 17 -22 1 -27 -27 -4 -72 30 -59 27 10 82 -63 63 -82 -6 -7 -11 -2 -11
10 0 12 -16 19 -35 16 -19 -4 -33 -16 -30 -29 3 -12 -6 -22 -20 -23 -14 0 -9
-12 12 -29 28 -21 34 -42 24 -82 -15 -59 -4 -60 132 -1 70 31 73 30 63 -8 -6
-21 -22 -39 -36 -39 -14 0 -56 -13 -93 -29 -64 -28 -65 -29 -15 -30 29 -1 86
22 126 49 76 52 218 69 242 30 13 -20 -12 -27 -75 -21 -19 2 -35 -6 -35 -17 0
-11 -12 -16 -27 -10 -15 5 -38 -4 -52 -21 -14 -17 -39 -31 -55 -31 -15 0 -23
-8 -17 -18 6 -11 -4 -22 -24 -26 -31 -6 -30 -11 9 -50 29 -29 59 -40 90 -33
36 8 39 6 17 -10 -17 -12 -24 -27 -17 -34 22 -22 55 10 87 87 41 98 86 144
141 144 70 0 75 -34 8 -63 -64 -29 -75 -48 -35 -64 17 -7 9 -24 -25 -53 -37
-32 -40 -41 -13 -32 20 7 43 12 52 12 9 0 22 20 30 45 13 44 14 44 31 5 9 -22
18 -29 19 -15 2 36 41 31 41 -5 0 -16 -13 -30 -30 -30 -16 0 -30 -10 -30 -22
0 -12 -13 -17 -30 -11 -16 7 -30 3 -30 -8 0 -24 24 -24 89 1 69 26 68 -13 0
-44 -41 -19 -61 -18 -93 2 -44 27 -75 5 -76 -55 0 -20 -8 -22 -25 -8 -40 31
-131 47 -145 25 -7 -11 8 -20 33 -20 35 0 40 -5 21 -24 -39 -39 -164 31 -164
92 0 34 -21 60 -70 89 -70 42 -99 20 -46 -33 19 -19 17 -24 -9 -24 -44 0 -75
54 -75 130 0 17 -9 30 -20 30 -24 0 -5 -96 25 -135 11 -14 12 -25 2 -25 -9 0
-3 -9 13 -20 24 -16 22 -19 -13 -20 -24 0 -47 -9 -50 -19 -4 -11 -29 -22 -57
-25 -27 -3 -62 -18 -77 -32 -23 -21 -34 -21 -60 1 -51 43 -133 33 -133 -15 0
-33 12 -39 70 -35 64 4 66 3 25 -18 -25 -13 -45 -31 -45 -40 0 -30 53 -18 105
23 56 44 75 49 75 22 0 -9 -20 -23 -45 -31 -43 -13 -43 -14 -6 -29 35 -14 33
-17 -19 -30 -51 -13 -55 -18 -25 -35 19 -10 35 -31 35 -46 0 -15 17 -68 39
-118 21 -49 33 -94 27 -100 -16 -16 -86 34 -86 62 0 14 -9 25 -20 25 -11 0
-21 34 -23 75 -2 60 -5 64 -11 20 -13 -82 -50 -66 -43 18 4 43 -3 76 -16 81
-16 6 -20 -7 -12 -36 8 -32 4 -40 -14 -29 -19 12 -20 7 -3 -25 12 -23 16 -55
10 -73 -7 -17 0 -47 15 -65 24 -29 23 -32 -8 -20 -19 7 -35 5 -35 -5 0 -10 8
-21 19 -24 10 -4 22 -34 26 -67 6 -42 29 -74 77 -104 142 -92 154 -104 104
-105 -24 -1 -50 9 -57 21 -7 12 -34 16 -59 10 -49 -12 -80 13 -96 78 -5 22
-10 1 -12 -46 -1 -47 12 -113 29 -146 l31 -60 61 51 c80 68 129 65 168 -10 37
-72 13 -119 -58 -118 -43 0 -43 0 -3 32 39 31 38 31 -14 22 -30 -5 -58 1 -63
13 -5 12 -22 -9 -39 -48 -24 -55 -34 -63 -44 -36 -7 18 -25 29 -38 24 -33 -13
-33 -68 0 -68 14 0 28 -25 32 -55 4 -39 19 -57 51 -61 62 -9 57 -44 -6 -44
-29 0 -46 -9 -39 -20 17 -27 -17 -25 -44 2 -17 17 -23 -59 -25 -290 l-2 -312
1741 0 c1147 0 1740 7 1740 20 0 11 -10 20 -21 20 -12 0 -16 9 -10 19 7 11 25
14 41 8 19 -7 27 3 25 31 -4 50 -21 53 -55 12 -33 -40 -60 -38 -60 3 0 52 156
245 205 255 152 31 172 29 291 -29 136 -67 154 -85 129 -130 -16 -29 -20 -29
-44 0 -14 17 -35 31 -47 31 -12 0 -1 -21 23 -46 72 -77 14 -117 -239 -163
-132 -24 -17 -27 1067 -29 997 -2 1215 3 1215 25 0 30 -141 59 -450 95 -310
36 -373 76 -279 180 21 22 26 38 12 38 -13 0 -23 9 -23 20 0 11 18 20 40 20
22 0 40 9 40 19 0 25 -56 5 -118 -42 -52 -41 -82 -47 -82 -18 0 34 148 121
206 121 31 0 51 8 45 18 -6 10 -38 16 -71 14 -33 -2 -60 1 -60 7 0 14 147 61
190 61 16 0 30 9 30 20 0 11 -7 18 -15 15 -8 -3 -15 4 -15 15 0 11 20 17 45
14 25 -3 45 3 45 13 0 25 -77 43 -91 21 -6 -10 -31 -17 -55 -16 -34 2 -36 5
-9 12 19 5 35 22 35 37 0 33 32 39 50 9 7 -11 22 -20 34 -20 12 0 5 19 -16 43
-38 42 -38 42 12 28 28 -8 62 -30 76 -48 20 -26 29 -27 42 -7 12 21 21 20 41
-5 14 -17 40 -31 57 -31 25 0 24 6 -6 40 -20 22 -57 40 -82 40 -25 0 -51 9
-58 20 -20 32 42 45 90 20 49 -26 84 -8 39 21 -18 11 -20 19 -5 19 13 0 37
-19 53 -42 17 -23 40 -39 52 -35 14 5 7 25 -18 51 -56 61 -52 93 10 81 32 -6
48 -2 43 13 -11 33 -66 38 -97 7 -15 -15 -45 -27 -67 -28 -22 -1 -57 -8 -78
-17 -28 -12 -35 -9 -28 12 5 15 33 31 63 34 54 7 76 44 26 44 -47 0 -140 -83
-112 -101 29 -18 8 -59 -31 -59 -41 0 -27 93 20 130 40 32 40 32 0 26 -25 -4
-48 -31 -61 -72 -31 -95 -75 -132 -139 -116 -67 17 -56 53 25 81 82 28 99 47
36 40 -28 -3 -51 3 -51 13 0 10 28 18 61 18 34 0 56 8 50 19 -6 10 -2 24 9 31
11 7 16 20 11 28 -5 9 11 12 37 7 26 -5 65 1 87 12 29 16 49 14 77 -7 51 -38
69 -37 54 3 -10 27 -4 31 31 22 23 -6 43 -3 43 8 0 11 16 10 39 -2 26 -14 43
-15 51 -1 7 11 21 15 31 9 43 -26 3 73 -48 120 l-55 51 48 0 c72 0 80 23 19
54 -56 29 -145 20 -145 -15 0 -14 13 -14 39 0 59 32 71 25 31 -19 -20 -22 -53
-40 -73 -40 -20 0 -37 -13 -37 -28 0 -61 -128 -145 -207 -136 -81 9 -101 44
-24 44 68 0 82 33 18 45 -47 9 -57 0 -94 -87 -22 -54 -48 -98 -57 -98 -26 0
-19 48 14 94 19 28 23 48 10 56 -11 7 -20 3 -20 -8 0 -11 -14 -15 -31 -9 -17
7 -27 25 -21 40 6 15 2 27 -9 27 -10 0 -19 -17 -19 -38 0 -21 -14 -43 -32 -50
-25 -9 -29 -29 -18 -90 8 -48 5 -83 -9 -91 -12 -8 -21 5 -21 32 0 32 -6 39
-21 24 -12 -12 -15 -45 -8 -75 l14 -53 48 53 c27 29 55 47 61 40 15 -15 -57
-153 -74 -142 -7 4 -24 -23 -38 -61 -31 -87 -62 -89 -64 -4 0 36 -6 54 -11 40
-6 -14 -20 -20 -31 -13 -13 8 -15 -3 -7 -29 11 -35 7 -40 -23 -29 -28 10 -24
1 14 -40 28 -29 61 -53 75 -54 14 0 25 -14 25 -31 0 -18 -14 -28 -34 -25 -21
4 -45 -15 -61 -49 -40 -81 -78 -69 -66 20 4 32 -24 32 -56 0 -20 -20 -22 -17
-11 13 11 30 8 35 -14 22 -23 -13 -23 -11 -3 11 39 43 29 64 -25 54 -27 -5
-50 -2 -50 8 0 9 14 17 30 17 17 0 30 9 30 19 0 26 90 121 114 121 37 0 91 78
78 112 -12 32 13 139 51 213 11 23 10 35 -6 35 -14 0 -11 13 8 35 32 35 35 42
35 93 0 15 19 32 42 38 23 6 36 21 29 33 -20 32 21 25 49 -9 13 -16 33 -24 43
-18 10 6 32 1 48 -13 17 -14 54 -19 88 -12 37 7 61 3 67 -13 6 -17 21 -12 51
14 60 53 54 91 -17 105 -32 6 -54 20 -48 29 5 10 1 18 -10 18 -11 0 -25 -9
-32 -20 -15 -24 -50 -27 -50 -3 0 40 104 65 139 34 19 -17 44 -31 56 -31 12 0
37 -15 55 -32 17 -18 37 -27 44 -21 20 21 -57 93 -99 93 -22 0 -35 11 -30 25
6 17 59 25 172 25 150 0 219 30 106 46 -53 8 -57 44 -4 44 46 0 72 32 36 47
-35 14 22 53 58 39 18 -7 27 6 27 42 0 39 -10 52 -40 52 -51 0 -51 23 1 56 22
14 35 34 29 45 -22 34 -45 20 -70 -41 -27 -65 -55 -77 -73 -30 -6 17 -25 30
-42 30 -18 0 -26 6 -19 13 8 7 4 25 -9 40 -17 21 -11 27 32 27 35 0 49 8 39
23 -10 17 10 20 74 12 48 -6 72 -7 53 -2 -35 10 -49 47 -18 47 19 0 15 85 -6
118 -7 11 -27 15 -44 8 -25 -9 -29 -3 -18 31 23 71 -57 53 -118 -27 -50 -66
-50 -70 -13 -70 22 0 48 14 57 31 16 29 86 22 84 -8 -2 -50 -204 -205 -231
-178 -22 23 10 78 52 89 22 6 35 18 29 27 -6 10 -22 13 -35 8 -32 -13 -40 70
-11 105 15 18 16 26 1 26 -35 0 -50 -41 -55 -148 -2 -56 -10 -127 -19 -158
l-15 -56 103 10 c98 10 142 -13 64 -33 -26 -7 -42 -36 -51 -91 -19 -109 -52
-150 -112 -138 l-49 9 45 15 c25 8 45 28 45 45 0 24 -5 25 -30 5 -17 -14 -36
-21 -42 -14 -6 6 14 25 45 42 53 28 54 30 12 31 -32 1 -55 -21 -85 -78 -22
-44 -60 -90 -85 -103 -25 -12 -68 -44 -96 -70 -50 -47 -184 -44 -159 3 19 38
143 109 191 109 27 0 49 10 49 21 0 13 -17 16 -43 8 -28 -9 -38 -6 -28 9 7 12
31 22 52 22 44 0 53 31 14 47 -14 5 1 11 33 11 51 2 60 32 10 32 -10 0 -18 9
-19 20 -1 26 138 55 195 41 32 -8 42 -4 35 15 -10 26 -87 29 -180 6 -67 -17
-67 41 0 71 52 24 52 64 0 44 -18 -7 -29 1 -29 21 0 21 17 32 50 32 28 0 50 9
50 20 0 11 -18 20 -40 20 -56 0 -50 29 13 58 29 13 47 28 41 34 -22 23 -98
-37 -118 -94 -28 -80 -59 -74 -33 7 12 36 49 90 83 120 51 44 55 55 25 55 -20
0 -48 -16 -62 -35 -25 -33 -27 -33 -41 3 -10 25 -3 46 20 63 32 24 32 26 -7
39 -23 7 -36 22 -30 32 7 11 30 14 51 7 21 -6 38 -2 38 10 0 11 -18 21 -40 21
-22 0 -40 10 -40 22 0 13 21 19 50 13 28 -5 50 -2 50 8 0 9 -10 17 -21 17 -12
0 -8 14 10 32 17 17 26 39 20 49 -6 10 12 42 40 70 61 61 64 76 11 59 -23 -7
-40 -4 -40 9 0 11 13 21 29 21 16 0 35 10 42 22 10 15 0 18 -28 9 -31 -10 -43
-5 -43 18 0 17 -8 31 -18 31 -10 0 -13 -18 -8 -41 7 -26 -3 -52 -26 -71 -21
-17 -27 -25 -13 -18 14 7 25 3 25 -9 0 -11 -9 -21 -19 -21 -11 0 -15 -26 -8
-58 15 -76 -27 -101 -54 -30 -11 29 -25 48 -31 42 -7 -6 -3 -26 7 -45 28 -49
-14 -148 -68 -162 -112 -28 -150 30 -44 66 l67 23 -50 20 c-55 21 -106 10 -89
-18 6 -10 -14 -40 -45 -67 l-56 -50 60 -4 c33 -2 96 -4 140 -5 66 -2 80 -9 81
-42 1 -22 9 -56 17 -75 19 -42 2 -95 -30 -95 -14 0 -18 18 -10 48 10 42 6 47
-30 37 -37 -10 -40 -6 -21 30 37 68 -89 45 -148 -27 -46 -56 -48 -57 -48 -12
-1 25 13 50 29 57 34 13 41 47 9 47 -11 0 -38 -40 -59 -90 -22 -51 -52 -90
-69 -90 -39 0 -41 38 -2 52 16 6 23 24 17 41 -6 16 4 40 23 54 18 13 36 49 40
79 3 30 20 71 38 91 18 20 33 46 33 58 0 12 25 31 55 42 30 11 44 21 30 21
-14 1 -25 12 -25 24 0 12 15 17 32 10 23 -9 29 -4 21 17 -11 29 44 75 81 69
49 -8 66 6 58 49 -5 30 6 60 32 82 22 18 33 40 25 47 -8 8 -18 3 -23 -11 -5
-14 -18 -25 -29 -25 -11 0 -13 10 -6 22 10 15 0 18 -28 9 -45 -14 -62 19 -18
35 14 5 19 15 11 23 -7 8 -24 9 -36 1 -27 -17 -8 -153 24 -172 13 -9 13 -18
-2 -27 -12 -7 -22 -2 -23 13 0 19 -7 17 -25 -6 -29 -38 -114 -85 -128 -71 -16
16 14 53 43 53 14 0 31 23 36 50 12 64 -20 65 -44 2 -11 -27 -31 -56 -45 -65
-14 -10 -26 -30 -26 -47 0 -16 -20 -39 -45 -50 -28 -12 -45 -37 -45 -65 0 -25
-10 -45 -22 -45 -14 0 -18 19 -10 49 7 27 3 54 -8 61 -32 20 -23 -77 13 -149
33 -68 0 -201 -51 -201 -29 0 -19 85 15 125 26 31 25 35 -6 35 -23 0 -31 10
-24 30 16 41 -7 38 -38 -5 -16 -21 -19 -43 -8 -56 37 -44 47 -298 13 -326 -40
-33 -66 37 -35 95 14 26 14 44 1 52 -11 7 -20 2 -20 -10 0 -12 -8 -17 -18 -11
-10 6 -13 30 -7 54 8 30 4 39 -12 29 -13 -8 -23 -5 -23 6 0 11 9 25 20 32 37
23 21 50 -30 50 -55 0 -67 29 -20 47 17 7 30 26 30 42 0 17 9 31 20 31 11 0
20 10 20 21 0 12 -11 16 -25 9 -14 -7 -9 0 11 17 20 16 35 41 32 56 -8 49 26
97 68 97 32 0 37 5 18 24 -18 18 -32 15 -60 -10 -20 -19 -50 -34 -66 -33 -18
0 -10 16 22 45 28 24 52 49 54 54 34 104 46 115 130 128 102 16 173 51 102 52
-24 0 -67 -10 -95 -23 -55 -25 -98 -6 -52 22 16 10 30 33 33 51 3 18 21 46 41
61 32 25 33 31 7 49 -25 17 -23 22 15 32 49 14 62 48 18 48 -14 0 -35 -20 -46
-45 -104 -236 -160 -296 -160 -174 0 39 5 51 16 35 9 -14 17 -21 18 -16 1 6 6
31 11 57 7 38 2 45 -27 35 -26 -9 -23 -2 10 26 25 21 45 45 45 53 0 8 16 27
35 41 33 25 33 27 1 27 -19 1 -45 -19 -59 -44 -13 -25 -37 -55 -53 -66 -17
-14 -28 -54 -28 -104 1 -52 -10 -92 -31 -109 -28 -23 -30 -20 -18 29 8 33 6
55 -7 55 -11 0 -20 -27 -20 -60 0 -64 17 -75 56 -36 19 19 24 14 24 -20 0 -24
11 -44 25 -44 17 -1 18 -5 4 -15 -12 -8 -28 -31 -35 -50 -7 -19 -22 -35 -33
-35 -27 0 -26 13 1 64 16 30 16 37 0 27 -12 -7 -22 -4 -22 8 0 11 -13 21 -30
21 -20 0 -30 20 -30 60 0 33 -10 60 -22 60 -16 0 -16 9 1 29 14 16 19 39 11
50 -7 12 -1 26 14 31 14 6 27 33 29 60 1 27 -5 45 -15 39 -31 -19 -20 36 15
74 18 21 23 37 11 37 -40 0 -85 -84 -60 -114 28 -34 -12 -133 -49 -121 -29 10
-36 128 -11 180 13 26 9 35 -13 35 -17 0 -31 7 -31 17 0 20 -61 17 -95 -4 -14
-9 -26 -13 -27 -9 -16 63 -15 116 3 116 13 0 18 -14 11 -32 -9 -23 -4 -29 18
-21 16 7 30 4 30 -5 0 -9 24 -12 52 -6 49 9 50 11 15 30 -20 11 -44 33 -53 47
-47 80 -119 0 -119 -132 0 -104 -42 -177 -67 -114 -6 17 -5 43 4 57 12 19 7
19 -18 -1 -20 -17 -34 -19 -34 -7 0 12 9 27 20 34 11 7 20 22 20 34 0 13 -11
12 -30 -4 -24 -20 -30 -19 -30 6 0 17 25 50 55 74 30 24 44 37 30 30 -31 -16
-33 14 -2 45 18 18 18 30 0 51 -12 15 -18 32 -12 38 15 16 -36 32 -66 21z
m-2651 -170 c0 -47 -4 -74 -9 -60 -5 14 -17 20 -27 14 -20 -13 -24 51 -6 99
22 58 43 33 42 -53z m2953 -140 c-22 -35 -11 -111 27 -200 32 -74 27 -111 -10
-87 -10 6 -25 40 -32 75 -7 35 -17 59 -22 53 -28 -27 20 -130 76 -166 106 -68
129 -130 85 -228 -20 -45 -45 -82 -54 -82 -27 0 -20 23 18 66 34 38 33 39 -15
24 -44 -14 -47 -12 -22 17 23 28 22 33 -6 33 -17 0 -32 -13 -32 -28 0 -16 -8
-32 -17 -35 -10 -4 -24 -29 -31 -57 -12 -42 -10 -44 8 -15 33 52 50 43 90 -44
41 -92 29 -162 -22 -120 -17 15 -27 42 -22 61 7 24 -6 37 -46 45 -75 15 -93
118 -34 197 23 31 35 62 27 70 -8 8 -20 -6 -26 -31 -15 -57 -59 -44 -51 15 4
24 -4 58 -18 74 -18 23 -19 35 -1 53 17 17 23 12 23 -21 0 -47 29 -59 52 -21
9 15 5 18 -12 7 -19 -12 -23 -8 -15 15 13 33 -34 64 -67 44 -32 -20 -19 36 17
78 29 33 30 38 4 28 -33 -11 -87 50 -64 73 24 24 49 11 37 -20 -8 -20 -3 -28
13 -22 14 5 23 19 20 32 -3 12 9 22 26 22 17 0 26 9 20 19 -7 11 -25 14 -42 8
-16 -6 -29 -1 -29 11 0 12 13 22 29 22 16 0 35 10 43 23 10 16 1 20 -29 12
-24 -6 -38 -3 -32 7 6 10 43 18 81 18 51 0 66 -7 55 -25z m-2918 -102 c29 -21
33 -39 21 -85 -9 -32 -19 -70 -22 -86 -10 -53 -48 -73 -48 -26 0 24 -7 44 -16
44 -9 0 -12 32 -8 70 5 45 0 70 -15 70 -13 0 -18 9 -11 20 17 28 56 25 99 -7z
m1011 -10 c0 -70 -43 -161 -83 -174 -52 -16 -75 8 -37 38 47 37 81 108 68 142
-8 20 -1 31 20 31 18 0 32 -16 32 -37z m-300 -157 c0 -17 10 -23 25 -14 14 8
7 -6 -15 -31 -37 -42 -41 -43 -47 -8 -3 20 -19 47 -35 59 -16 13 -23 37 -16
56 16 40 88 -11 88 -62z m1400 10 c0 -26 -105 -11 -114 16 -4 13 16 18 53 12
34 -5 61 -17 61 -28z m-2863 -206 c91 -98 97 -110 53 -110 -16 0 -30 11 -30
25 0 14 -18 37 -40 50 -33 21 -40 20 -40 -5 0 -17 11 -36 25 -41 27 -11 38
-149 12 -149 -10 0 -17 23 -17 52 0 37 -8 49 -28 42 -25 -10 -53 35 -60 96 -1
11 -10 26 -19 33 -25 17 5 97 36 97 14 0 63 -40 108 -90z m592 78 c62 -24 125
-208 72 -208 -11 0 -15 14 -8 30 6 17 1 30 -10 30 -15 0 -18 -31 -10 -92 12
-83 9 -91 -25 -85 -23 5 -38 25 -39 52 0 24 -10 54 -23 67 -13 13 -18 37 -11
54 8 20 4 26 -12 16 -18 -11 -23 7 -19 66 6 81 22 94 85 70z m456 -65 c41 -90
44 -126 11 -159 -53 -53 -83 19 -31 75 20 22 18 25 -11 14 -30 -10 -34 -5 -23
30 10 31 7 38 -12 26 -19 -11 -22 -6 -12 19 7 20 13 44 13 54 0 41 32 12 65
-59z m515 39 c0 -37 -25 -82 -44 -82 -11 0 -15 14 -8 31 6 18 3 26 -8 19 -11
-7 -20 -34 -20 -60 0 -26 -9 -53 -20 -60 -34 -21 -22 94 13 133 35 39 87 50
87 19z m-1751 -65 c29 -34 48 -67 43 -72 -12 -12 -132 98 -132 120 0 33 39 12
89 -48z m3696 -41 c40 -46 47 -123 11 -111 -14 4 -31 30 -38 56 -8 27 -15 36
-16 20 -1 -21 -13 -17 -42 15 -23 24 -54 38 -70 31 -35 -13 -39 -39 -10 -57
11 -7 20 2 20 20 0 18 10 26 21 19 12 -7 17 -26 11 -41 -7 -18 3 -28 29 -28
54 0 49 -39 -6 -43 -63 -5 -77 -3 -150 20 -36 11 -65 12 -65 3 0 -10 23 -20
51 -24 74 -9 70 -45 -6 -52 -101 -10 -100 86 1 212 32 40 215 12 259 -40z
m-1850 -35 c-2 -21 -10 -34 -18 -29 -8 5 -20 -1 -27 -12 -11 -17 -138 -80
-162 -80 -20 0 -4 50 33 102 52 72 179 86 174 19z m-442 -31 c13 -35 -23 -95
-119 -197 -67 -72 -149 -109 -94 -43 14 16 20 47 15 69 -6 23 1 43 18 50 16 6
24 20 17 31 -7 11 19 35 58 53 39 19 66 41 60 50 -6 9 -1 17 11 17 12 0 27
-14 34 -30z m-1104 -41 c35 -36 41 -69 11 -69 -11 0 -20 9 -20 20 0 11 -13 20
-30 20 -16 0 -30 14 -30 30 0 39 29 38 69 -1z m654 -96 c-6 -25 -13 -29 -23
-13 -9 15 -20 4 -28 -29 -11 -43 -2 -65 47 -110 69 -65 70 -68 36 -105 -14
-14 -43 -53 -64 -85 l-38 -60 -20 47 c-17 37 -14 52 13 71 47 35 42 76 -16
131 -50 47 -65 108 -32 129 10 6 24 35 31 66 8 30 24 61 36 68 29 18 70 -61
58 -110z m1028 48 c-5 -7 22 -39 60 -71 85 -70 90 -102 9 -60 -33 17 -60 40
-60 51 0 10 -7 18 -15 17 -8 -2 -22 -1 -30 2 -8 3 -22 6 -30 8 -9 1 -42 22
-74 47 -71 56 -51 85 28 39 69 -41 122 -47 85 -10 -13 13 -24 33 -23 45 0 12
13 4 29 -17 16 -21 25 -44 21 -51z m184 44 c8 -101 21 -167 32 -179 33 -33 8
-48 -27 -16 -39 36 -58 185 -27 217 18 18 18 18 22 -22z m1870 22 c-14 -6 -25
-37 -25 -69 0 -32 -9 -58 -20 -58 -22 0 -28 106 -7 127 8 7 28 12 45 11 21 -1
23 -5 7 -11z m355 -25 c0 -9 -13 -28 -30 -42 -16 -14 -30 -36 -30 -50 0 -14
-15 -37 -33 -52 -37 -31 -22 88 18 137 23 29 75 34 75 7z m-2627 -57 c-2 -25
9 -33 39 -29 23 3 55 -10 70 -29 25 -31 24 -33 -8 -21 -20 7 -31 6 -25 -4 12
-21 -95 -23 -109 -3 -5 8 -35 21 -67 29 l-56 14 36 -51 c21 -27 44 -50 52 -50
8 -1 15 -11 15 -23 0 -16 -9 -15 -30 2 -25 21 -30 18 -30 -13 -1 -31 -4 -32
-20 -7 -12 19 -11 32 2 37 12 4 7 22 -11 42 -45 50 -22 91 65 115 41 12 75 22
77 23 1 2 1 -13 0 -32z m955 19 c5 -10 -19 -17 -54 -17 -35 1 -82 -7 -104 -17
-36 -16 -37 -14 -13 16 29 35 152 48 171 18z m532 -33 c0 -16 16 -38 35 -49
31 -19 31 -21 -9 -21 -24 -1 -49 -10 -56 -21 -40 -65 -55 35 -16 105 14 26 46
16 46 -14z m-2942 -9 c15 -10 21 -28 13 -40 -16 -25 -91 6 -91 39 0 24 41 24
78 1z m770 -27 c76 -69 77 -143 0 -233 -66 -79 -94 -80 -55 -2 16 33 37 60 46
60 9 0 15 22 14 50 -4 61 -37 54 -55 -11 -11 -39 -14 -31 -16 34 -1 46 -13 87
-26 92 -25 8 -5 55 24 55 10 0 40 -20 68 -45z m412 7 c0 -23 -18 -41 -45 -47
-25 -5 -61 -16 -80 -25 -19 -8 -35 -6 -35 4 0 10 25 28 55 40 52 21 52 22 9
24 -67 3 -33 42 37 42 44 0 59 -9 59 -38z m-1570 -33 c63 -51 47 -69 -17 -19
-23 17 -60 24 -95 17 -63 -13 -83 23 -23 39 62 17 74 13 135 -37z m1630 12 c0
-21 9 -44 19 -50 11 -7 14 -27 7 -45 -8 -20 -5 -28 9 -19 20 12 44 -24 57 -85
3 -15 16 -35 30 -43 16 -10 3 -26 -40 -48 -58 -30 -69 -71 -20 -71 11 0 16 8
10 17 -6 9 3 16 19 16 50 0 32 -34 -33 -61 -56 -23 -58 -27 -21 -37 23 -6 45
-2 51 8 5 10 7 7 4 -6 -2 -13 -21 -26 -41 -29 -50 -7 -119 -79 -102 -106 16
-27 91 -29 91 -3 0 22 83 105 94 94 11 -11 -53 -153 -69 -153 -8 0 -42 -23
-75 -52 l-60 -52 75 41 c56 31 75 35 75 15 0 -62 -116 -101 -197 -67 -60 26
-126 86 -111 101 16 15 88 -8 88 -28 0 -10 10 -18 21 -18 12 0 19 16 15 35 -4
20 -22 33 -42 29 -23 -4 -34 8 -34 35 0 23 13 41 29 41 37 0 98 113 83 152 -6
16 2 28 19 28 33 0 39 31 9 50 -29 18 -25 42 14 81 32 32 31 37 -21 82 -30 26
-45 47 -32 47 18 0 17 8 -1 30 -20 24 -19 30 6 30 17 0 36 -11 43 -25 6 -14 7
4 2 40 -6 36 -1 65 10 65 10 0 19 -17 19 -39z m722 -5 c13 -25 27 -86 30 -135
l5 -91 -20 70 c-11 39 -32 84 -46 100 -28 33 -34 100 -8 100 8 0 26 -20 39
-44z m1218 26 c0 -25 -59 -70 -73 -56 -20 21 10 74 42 74 17 0 31 -8 31 -18z
m-981 -33 c-34 -42 -139 -95 -155 -80 -21 22 30 81 64 75 17 -3 32 4 32 15 0
12 19 21 42 21 37 0 39 -5 17 -31z m-524 -45 c10 -29 -83 -53 -130 -34 -30 13
-26 19 25 41 66 30 94 28 105 -7z m824 7 c21 -25 13 -27 -52 -17 -75 12 -76
11 -42 -28 19 -21 35 -59 35 -84 0 -24 8 -39 19 -33 10 6 24 -6 30 -27 14 -42
64 -69 94 -50 11 7 15 25 8 42 -7 18 -1 26 14 21 14 -4 28 -28 31 -52 6 -38
-1 -44 -46 -43 -6 1 -35 -12 -65 -27 -81 -41 -245 -62 -245 -31 0 15 -18 9
-45 -16 -45 -41 -155 -74 -155 -46 0 28 78 84 99 71 11 -7 21 -4 21 8 0 11 10
21 22 21 12 0 39 20 61 45 28 31 43 37 50 20 6 -14 19 -20 30 -13 10 6 34 6
52 -1 29 -11 30 -16 4 -32 -23 -14 -20 -18 16 -19 63 0 56 32 -20 102 -48 43
-78 56 -112 48 -66 -16 -138 8 -101 34 20 13 11 16 -29 7 -47 -10 -55 -7 -49
23 9 52 105 56 186 8 38 -22 74 -32 79 -23 11 18 -21 49 -69 67 -20 7 -15 11
15 12 25 1 45 11 45 22 0 31 92 24 119 -9z m-1970 -82 c37 -37 40 -81 8 -101
-27 -17 -77 45 -77 96 0 44 27 46 69 5z m1251 11 c25 -16 24 -19 -6 -20 -42 0
-80 -33 -101 -89 -15 -38 -14 -38 30 0 43 38 37 13 -11 -49 -12 -15 -23 -54
-25 -87 -2 -57 -36 -112 -56 -92 -6 5 -2 38 8 72 13 47 10 69 -11 86 -91 76
70 245 172 179z m734 -20 c6 -22 19 -40 28 -40 10 0 18 -19 18 -43 0 -36 -9
-31 -60 33 -70 88 -70 90 -28 90 17 0 36 -18 42 -40z m-934 -6 c0 -15 -13 -44
-28 -65 -16 -22 -22 -51 -13 -69 8 -16 7 -59 -3 -95 -21 -78 -76 -88 -76 -15
0 28 10 50 23 50 15 0 18 26 10 78 -7 44 -8 93 -1 110 15 38 88 43 88 6z
m2108 -24 c7 -27 10 -53 7 -56 -3 -3 12 -31 32 -63 35 -52 35 -58 5 -75 -18
-10 -50 -38 -72 -61 l-40 -43 -3 69 c-2 47 -5 55 -11 24 -11 -56 -46 -60 -46
-5 0 22 -9 40 -20 40 -30 0 -24 52 10 80 16 13 24 33 18 44 -15 23 49 96 83
96 14 0 30 -22 37 -50z m-2537 8 c-11 18 -8 24 10 18 67 -22 39 -56 -44 -54
-48 2 -71 7 -52 12 19 5 35 18 35 30 0 12 14 9 34 -7 29 -23 31 -23 17 1z
m962 -8 c16 -16 47 -30 69 -30 22 0 44 -13 51 -30 6 -16 19 -25 29 -19 10 6
18 3 18 -8 0 -18 -46 -43 -80 -43 -10 0 -14 18 -10 41 7 34 1 39 -36 28 -78
-24 -108 -64 -98 -134 6 -44 2 -59 -12 -45 -28 27 -33 84 -14 185 16 91 35
103 83 55z m-2158 -18 c-19 -14 -35 -37 -35 -49 0 -13 -13 -23 -30 -23 -16 0
-30 12 -30 26 0 39 43 74 89 73 38 0 39 -2 6 -27z m1983 -26 c37 -80 25 -96
-32 -44 -33 28 -43 33 -26 10 28 -35 26 -37 -15 -24 -59 19 -58 -4 0 -27 38
-16 39 -19 8 -20 -40 -1 -174 -134 -171 -170 0 -12 6 -10 11 4 6 14 22 25 37
25 15 0 33 17 39 38 14 42 117 93 150 73 40 -25 21 -45 -32 -35 -37 7 -49 3
-39 -13 8 -13 30 -23 48 -23 21 -1 11 -13 -26 -31 -143 -72 -199 -138 -173
-203 14 -33 29 -97 33 -142 5 -46 22 -110 39 -143 17 -32 31 -78 31 -101 0
-24 8 -58 19 -77 22 -42 10 -62 -63 -108 -60 -38 -77 -43 -74 -20 6 36 -3 65
-21 65 -20 0 -41 -54 -53 -138 -4 -28 -13 -90 -20 -137 -10 -68 -22 -88 -59
-97 -26 -7 -53 -29 -59 -49 -7 -21 -34 -55 -61 -76 -38 -30 -49 -58 -50 -126
0 -71 -5 -82 -25 -57 -13 17 -37 30 -54 30 -16 0 -33 22 -37 48 -5 37 1 45 25
35 18 -6 32 -8 32 -4 0 4 5 22 12 39 9 23 0 32 -30 32 -48 0 -57 36 -12 53 22
8 24 20 9 49 -13 24 -13 38 -1 38 11 0 25 -18 32 -40 7 -22 20 -40 30 -40 35
0 78 62 65 96 -11 30 -8 31 21 7 29 -24 34 -23 34 5 0 23 -19 32 -65 32 -79 1
-36 39 45 40 48 1 49 2 11 31 -38 28 -37 29 8 29 45 0 46 1 12 39 -20 22 -48
33 -66 26 -21 -8 -27 -4 -17 12 10 16 -5 23 -47 23 -78 0 -79 33 -1 50 33 7
65 22 71 32 8 12 -8 15 -37 7 -56 -14 -95 26 -52 53 16 9 28 27 28 40 0 13 20
27 44 31 35 5 42 -2 36 -35 -5 -25 1 -38 16 -33 13 5 27 53 30 112 5 88 41
151 45 78 1 -14 9 -7 19 15 11 26 15 -2 12 -83 -2 -68 -15 -136 -28 -152 -19
-23 -15 -28 20 -25 55 4 84 96 56 180 -18 57 -18 58 12 20 20 -26 27 -63 20
-108 -9 -60 -8 -64 17 -31 14 21 22 51 17 68 -5 17 8 10 29 -17 26 -31 44 -40
53 -25 16 26 -103 209 -127 194 -26 -16 -87 65 -74 99 7 17 2 48 -11 69 -18
29 -16 51 11 104 l34 67 -12 -71 c-9 -52 -3 -79 19 -98 41 -33 42 -84 2 -68
-38 14 -38 -14 -1 -64 20 -26 30 -30 30 -12 1 23 6 23 33 2 28 -24 31 -17 22
66 -10 97 -28 141 -50 127 -8 -4 -16 19 -18 52 -5 58 66 239 98 253 9 3 12 14
6 22 -5 9 0 47 12 84 12 37 25 78 29 91 14 47 143 25 167 -28z m-2248 14 c-7
-11 -25 -20 -40 -20 -15 0 -34 -11 -42 -23 -10 -16 -4 -20 19 -11 18 7 33 4
33 -7 0 -21 -7 -24 -85 -29 -58 -4 -51 23 23 85 35 30 110 34 92 5z m501 -9
c34 -26 35 -30 5 -30 -18 -1 -39 7 -45 17 -6 10 -29 14 -51 8 -22 -6 -35 -19
-29 -28 6 -10 3 -18 -6 -18 -21 0 -66 -132 -51 -148 20 -19 68 15 96 68 28 54
27 56 -16 46 -29 -6 -36 -4 -19 9 71 50 234 4 213 -62 -8 -24 -16 -62 -19 -86
-8 -70 -47 -126 -79 -114 -38 14 -39 47 -2 47 31 0 58 54 41 82 -16 25 -49 23
-49 -3 0 -12 9 -16 20 -9 11 7 20 2 20 -10 0 -37 -69 -12 -83 30 -9 29 -14 19
-15 -33 -1 -39 -16 -84 -34 -98 -26 -23 -31 -22 -27 2 10 75 1 85 -51 51 -29
-19 -50 -24 -50 -11 0 12 -9 16 -20 9 -12 -7 -17 -19 -12 -27 21 -34 -127 -17
-158 17 -31 34 -29 36 38 34 99 -3 152 51 152 155 0 127 125 182 231 102z
m657 -34 c-10 -17 -4 -19 24 -7 63 29 207 13 249 -27 39 -36 39 -37 -12 -60
-65 -29 -65 -29 -73 10 -6 31 -8 31 -33 0 -24 -28 -21 -35 27 -53 41 -16 50
-29 39 -55 -8 -19 -19 -60 -24 -90 -5 -31 -19 -61 -30 -68 -14 -9 -16 7 -8 45
13 55 12 56 -17 19 -16 -21 -30 -60 -30 -85 0 -31 -16 -53 -47 -65 -26 -10
-66 -50 -89 -89 -24 -40 -52 -72 -63 -72 -50 0 0 183 60 221 16 10 18 25 4 49
-22 40 -30 31 -64 -75 -13 -41 -32 -75 -41 -75 -30 0 -44 41 -23 67 35 42 -3
69 -92 62 -47 -3 -85 -2 -85 3 0 25 91 128 113 128 54 0 45 -40 -17 -73 -50
-26 -57 -37 -32 -42 19 -4 55 11 80 34 24 23 55 38 68 33 13 -5 53 17 88 48
61 55 67 56 112 27 30 -20 48 -23 48 -9 0 12 16 23 35 24 28 1 29 3 5 13 -16
6 -42 28 -56 48 -20 29 -35 33 -64 17 -52 -28 -61 -25 -46 13 10 26 3 24 -28
-7 -28 -28 -58 -38 -93 -31 -59 11 -52 45 8 45 22 0 39 8 39 19 0 19 55 81 73
81 5 0 3 -11 -5 -23z m3272 -48 c0 -39 20 -37 50 5 23 30 28 27 58 -29 54
-105 34 -190 -27 -116 -18 21 -18 39 -1 71 21 40 20 41 -18 21 -23 -12 -42
-17 -42 -11 0 6 -19 -6 -42 -28 -23 -21 -37 -47 -31 -58 7 -10 -24 -9 -70 4
-71 19 -84 17 -109 -17 -43 -59 -54 -24 -14 46 20 34 61 71 92 82 35 12 51 12
44 0 -7 -10 -3 -19 9 -19 12 0 31 23 41 51 20 52 60 51 60 -2z m-720 1 c0 -16
33 -66 73 -110 40 -45 68 -86 63 -91 -18 -18 -136 59 -147 96 -13 38 -59 47
-79 15 -7 -11 4 -21 24 -22 21 0 26 -5 11 -11 -41 -17 -28 -51 13 -38 21 7 45
3 52 -10 8 -12 -4 -26 -28 -33 -23 -6 -42 -23 -42 -38 0 -16 -14 -28 -31 -28
-16 0 -35 -13 -42 -30 -17 -44 -67 -37 -67 10 0 22 13 40 30 40 29 0 40 33 33
107 -5 62 58 173 99 173 21 0 38 -13 38 -30z m-2910 -59 c0 -37 -126 -142
-146 -122 -16 16 15 107 48 141 42 41 98 31 98 -19z m2627 -23 c-64 -64 -112
-59 -66 7 17 25 51 45 75 45 42 0 42 -1 -9 -52z m-2406 -27 c-6 -10 -3 -24 9
-31 11 -7 20 -2 20 10 0 12 9 17 20 10 11 -7 20 -3 20 9 0 11 14 21 30 21 49
0 34 -35 -21 -48 -28 -7 -45 -22 -39 -33 22 -34 -21 -20 -66 22 -54 50 -55 59
-3 59 23 0 36 -8 30 -19z m718 -97 c-9 -30 -14 -64 -12 -76 2 -12 -15 -38 -37
-58 -36 -33 -40 -33 -40 -2 0 18 13 38 30 45 16 6 25 19 18 29 -6 11 0 52 14
93 27 83 51 55 27 -31z m1737 83 c-17 -7 -19 -24 -5 -61 14 -35 13 -59 -3 -78
-34 -42 -52 -34 -64 27 -13 68 16 126 62 123 19 0 23 -5 10 -11z m82 -19 c14
-35 0 -68 -29 -68 -11 0 -19 23 -19 50 0 56 29 67 48 18z m496 -49 c-53 -49
-54 -57 -9 -90 43 -32 16 -66 -29 -37 -35 22 -50 93 -32 156 8 29 14 31 27 10
13 -21 20 -20 31 9 9 25 20 29 35 14 15 -15 8 -33 -23 -62z m470 9 c66 -67 71
-78 54 -144 -27 -107 -77 -112 -63 -7 12 85 -20 118 -39 42 -10 -38 -13 -39
-49 -7 -24 22 -37 26 -37 10 0 -13 -10 -18 -22 -11 -14 9 -15 19 -3 27 11 6
31 46 46 87 33 91 25 91 113 3z m-4794 12 c23 -42 2 -54 -33 -19 -14 14 -29
11 -46 -10 -29 -35 -8 -41 116 -32 77 5 82 -44 6 -55 -28 -5 -42 -19 -39 -39
7 -37 -117 -72 -209 -60 -29 5 -58 -2 -63 -14 -5 -11 -10 0 -10 26 -2 33 7 44
26 37 17 -7 33 6 42 32 13 43 14 43 30 -6 16 -49 16 -49 18 -4 6 144 112 238
162 144z m1716 -4 c-32 -48 -76 -71 -76 -39 0 26 57 83 84 83 12 0 9 -18 -8
-44z m418 -35 c-3 -43 -21 -95 -40 -116 -19 -21 -34 -46 -33 -57 0 -10 13 -1
30 21 39 52 37 12 -2 -45 -17 -24 -26 -44 -19 -44 7 0 -5 -23 -27 -50 -21 -28
-35 -67 -29 -87 5 -23 -4 -42 -22 -50 -36 -13 -42 9 -12 39 13 13 6 19 -21 19
-22 0 -36 -10 -31 -23 8 -20 -20 -74 -73 -138 -9 -11 -28 -37 -42 -57 -17 -24
-56 -40 -109 -45 -82 -7 -114 16 -54 39 43 17 27 241 -20 293 -32 36 -31 37
30 36 35 -1 68 -15 74 -30 9 -21 16 -20 38 8 17 24 27 27 27 10 1 -15 11 -20
24 -12 15 9 18 5 9 -9 -8 -13 -22 -19 -31 -14 -9 6 -28 -3 -41 -19 -14 -17
-37 -30 -52 -30 -35 0 -36 -55 -3 -87 31 -29 121 -26 131 5 4 12 17 16 29 9
12 -8 15 -4 7 10 -8 13 -5 23 5 23 11 0 26 19 33 41 8 24 25 37 40 32 35 -14
50 29 64 182 11 117 32 158 51 100 5 -14 5 0 0 30 -6 40 0 55 23 55 18 0 32 9
32 20 0 11 4 20 10 20 5 0 7 -35 4 -79z m816 59 c16 -26 -70 -26 -110 0 -23
15 -15 19 34 20 35 0 69 -9 76 -20z m245 -19 c14 -1 25 -10 25 -22 0 -28 -224
-16 -234 12 -4 13 30 19 89 16 52 -3 106 -5 120 -6z m220 -67 c14 5 25 -1 25
-14 0 -15 -22 -19 -65 -11 -60 12 -62 11 -27 -17 40 -33 206 -65 226 -44 7 6
-11 12 -39 12 -53 0 -76 30 -60 75 5 14 24 25 42 24 28 0 27 -5 -6 -30 -34
-26 -35 -29 -4 -29 22 0 38 21 46 60 7 33 24 60 40 60 31 0 35 -37 8 -79 -10
-16 -13 -38 -6 -49 6 -11 19 -2 27 19 15 38 15 38 17 1 1 -45 -53 -112 -92
-112 -15 0 -27 -10 -27 -22 0 -14 19 -18 49 -10 37 9 51 3 61 -28 9 -29 30
-40 74 -40 52 0 57 -4 36 -30 -32 -39 -13 -38 73 3 69 33 126 127 128 214 1
42 2 42 17 3 27 -67 3 -187 -40 -201 -21 -6 -38 -20 -38 -30 0 -11 -18 -19
-40 -19 -22 0 -40 -10 -40 -22 0 -12 -13 -17 -30 -11 -16 7 -30 2 -30 -10 0
-14 -13 -11 -33 6 -29 23 -32 23 -20 -3 7 -16 19 -46 25 -65 7 -19 21 -35 32
-35 10 0 13 -9 6 -20 -7 -11 -36 -20 -65 -20 -28 0 -46 -6 -39 -13 8 -7 40
-12 73 -11 33 1 65 -7 72 -17 18 -30 42 -23 107 33 71 59 82 38 20 -41 -24
-29 -55 -49 -70 -43 -15 6 -32 2 -39 -9 -6 -10 -3 -19 7 -19 11 0 24 -19 30
-43 8 -29 22 -38 44 -30 19 8 50 -5 76 -30 l44 -42 -55 13 c-31 7 -55 4 -55
-6 0 -32 80 -47 111 -21 16 13 29 16 29 7 0 -9 11 -5 24 8 13 13 38 24 55 23
41 -1 -51 -79 -92 -79 -16 0 -24 -8 -18 -19 6 -10 2 -24 -9 -31 -11 -7 -15
-21 -9 -31 6 -11 -8 -19 -31 -19 -25 0 -37 -9 -29 -21 7 -12 41 -18 76 -15 84
8 98 -71 27 -156 -26 -32 -53 -73 -59 -91 -7 -19 -43 -37 -89 -43 -42 -5 -134
-19 -206 -31 -77 -12 -183 -14 -260 -5 -225 28 -514 -19 -678 -110 -48 -27
-93 -43 -100 -36 -7 8 -1 18 13 23 35 12 85 64 85 87 0 10 -27 5 -59 -11 -86
-45 -104 -40 -80 21 l20 52 -72 -42 c-81 -48 -180 -40 -160 13 31 82 -88 112
-163 42 -34 -33 -46 -37 -46 -14 0 16 28 50 62 75 34 25 71 72 82 105 11 32
26 53 33 47 13 -13 14 -22 20 -105 2 -25 12 -45 22 -45 11 0 14 16 7 35 -12
31 -9 32 20 8 19 -16 34 -49 34 -74 0 -26 9 -52 20 -59 11 -7 14 1 8 19 -7 17
-1 45 13 62 20 24 20 36 1 55 -19 19 -21 15 -10 -16 11 -31 2 -27 -40 17 -66
70 -52 93 27 47 50 -30 57 -30 53 -3 -9 63 -70 109 -147 110 -65 1 -69 4 -30
20 30 12 45 35 45 67 0 30 14 54 36 61 64 20 130 128 114 188 -7 29 -13 77
-13 106 1 30 -12 65 -28 78 -33 28 -39 91 -9 109 11 7 25 -4 31 -24 22 -73 63
-136 86 -131 13 3 23 -12 23 -34 0 -21 16 -50 37 -65 20 -14 46 -44 59 -66 15
-26 23 -30 23 -11 1 24 5 23 26 -3 56 -70 140 -65 124 8 -8 36 -21 71 -30 77
-9 5 -10 22 -1 36 12 19 29 4 61 -50 45 -76 104 -56 73 25 -6 17 -3 25 7 19 9
-6 23 0 29 14 7 14 9 0 5 -30 -8 -59 3 -73 67 -85 30 -6 40 3 40 35 0 42 -1
42 -29 4 -32 -43 -42 -17 -12 31 13 20 9 40 -13 64 -17 19 -26 53 -21 75 6 22
-2 50 -17 63 -15 12 -28 32 -28 43 0 11 13 9 30 -5 17 -14 30 -16 30 -6 0 10
-28 39 -62 64 -33 25 -56 51 -50 57 6 6 -4 23 -23 37 -19 14 -35 46 -35 71 0
29 -14 49 -37 53 -44 9 -31 -53 30 -139 50 -72 47 -78 -24 -54 -39 14 -58 32
-51 49 7 19 -5 28 -37 28 -31 0 -64 22 -91 60 -23 33 -55 60 -70 60 -19 0 -13
16 18 50 60 65 72 63 72 -11 0 -109 78 -144 107 -49 10 31 -1 50 -42 75 l-55
34 85 0 c61 1 85 -7 85 -28 0 -16 21 -50 48 -75 26 -25 74 -98 107 -161 32
-63 65 -108 72 -101 7 7 13 -6 13 -29 0 -23 6 -58 14 -78 12 -34 10 -34 -25
-8 -30 23 -28 18 6 -21 25 -28 45 -62 45 -75 0 -14 9 -20 20 -13 11 7 20 -1
20 -18 0 -19 11 -26 30 -19 23 8 30 -4 30 -51 0 -34 10 -62 21 -62 12 0 16 11
9 25 -7 14 1 8 19 -14 17 -21 31 -48 31 -59 0 -11 13 -2 29 19 42 55 38 137
-9 179 -22 20 -40 55 -40 78 1 35 11 29 70 -38 40 -47 69 -68 69 -50 1 17 -50
70 -112 119 -63 49 -103 92 -89 97 13 4 40 -6 58 -23 19 -16 43 -32 54 -34 50
-10 69 -25 57 -44 -8 -13 -3 -15 11 -6 16 10 29 0 36 -27 6 -23 19 -42 29 -42
11 0 11 14 0 35 -10 19 -11 53 -2 75 46 115 -8 170 -175 177 -51 2 -100 22
-147 60 -75 61 -17 61 70 0 22 -15 54 -26 70 -25 21 1 23 4 6 11 -14 6 -19 20
-12 32 9 14 1 17 -21 9 -19 -8 -29 -6 -23 4 6 10 -3 29 -19 42 -23 19 -30 19
-30 1 0 -13 -10 -17 -22 -10 -16 10 -15 18 2 29 14 9 25 41 25 73 -1 86 14 95
72 41 29 -27 64 -45 78 -40z m1158 34 c1 -21 9 -54 17 -73 8 -20 5 -35 -6 -35
-11 0 -25 11 -30 25 -5 14 -16 18 -26 8 -28 -26 57 -76 107 -64 45 12 125 -46
125 -91 0 -48 -120 -143 -150 -118 -39 33 -29 105 20 134 22 14 31 25 20 25
-11 0 -33 -8 -49 -18 -20 -13 -35 -11 -45 5 -8 13 -9 -10 -3 -51 10 -61 6 -75
-20 -75 -25 0 -33 19 -33 81 0 50 -8 76 -20 69 -32 -20 -49 51 -22 93 13 21
18 47 12 56 -14 24 49 85 77 75 13 -4 24 -25 26 -46z m-165 -77 c-18 -58 -28
-64 -49 -30 -22 35 -25 107 -5 127 25 24 67 -53 54 -97z m-3312 36 c-6 -31
-176 -98 -176 -70 0 24 85 73 176 101 4 1 4 -13 0 -31z m3019 13 c38 0 70 -94
76 -220 l6 -110 -67 -1 c-52 -2 -64 5 -55 30 6 17 -26 -8 -72 -55 -73 -75 -88
-83 -125 -63 -30 16 -47 17 -56 2 -9 -14 -23 -14 -43 -2 -24 17 -21 27 21 62
45 38 51 38 57 7 5 -27 15 -20 45 28 20 34 47 62 58 62 27 0 25 -27 -4 -56
-13 -13 -17 -30 -9 -38 23 -22 52 36 53 104 1 54 4 57 28 25 14 -19 37 -35 51
-35 14 0 1 28 -27 62 -29 33 -52 69 -52 79 0 22 65 0 85 -30 10 -14 14 -13 15
4 0 15 -22 35 -50 45 -69 26 -74 131 -5 113 25 -7 56 -13 70 -13z m-3784 -31
c37 -30 36 -31 -19 -19 -45 9 -55 6 -46 -18 7 -16 -1 -40 -17 -53 -24 -20 -29
-14 -29 35 0 92 40 112 111 55z m2729 1 c13 -16 32 -25 42 -19 10 6 38 -3 62
-20 l45 -31 -56 0 c-63 0 -173 51 -173 81 0 29 52 23 80 -11z m183 14 c-13 -4
-18 -16 -12 -26 18 -28 -39 -21 -82 10 -35 26 -32 28 39 26 43 -1 67 -6 55
-10z m-3090 -53 c-29 -27 -53 -59 -53 -70 0 -31 14 -26 61 24 l44 45 -15 -50
c-9 -27 -25 -56 -37 -64 -14 -9 -8 -19 16 -28 37 -14 69 12 121 102 12 19 37
31 57 27 33 -6 32 -11 -8 -53 -71 -77 -29 -72 48 5 40 39 85 71 102 71 45 0
39 -13 -41 -93 -73 -73 -78 -108 -35 -243 8 -25 1 -22 -26 9 -42 49 -118 77
-135 51 -6 -10 -48 -16 -92 -14 -53 3 -79 -3 -74 -18 5 -12 37 -21 72 -19 52
3 60 -2 40 -25 -36 -44 4 -33 55 15 25 24 58 37 76 30 49 -19 36 -53 -20 -53
-29 0 -46 -9 -39 -20 7 -11 38 -20 69 -20 122 0 126 -82 6 -121 -41 -13 -86
-33 -100 -44 -33 -26 -59 39 -28 70 26 26 31 95 8 95 -56 0 -126 -106 -113
-172 8 -43 3 -80 -12 -98 -34 -41 -67 -38 -55 6 9 36 -32 91 -53 69 -17 -17
-15 -85 3 -85 19 0 68 -104 55 -117 -16 -16 -148 64 -159 96 -5 17 -7 6 -3
-24 5 -39 -4 -57 -32 -66 -48 -15 -71 4 -41 34 12 12 18 33 13 46 -6 14 4 36
21 50 17 14 31 38 31 53 0 16 20 28 43 28 24 0 38 6 31 12 -23 24 -114 -13
-114 -46 0 -18 -6 -27 -13 -20 -29 29 38 134 85 134 27 0 48 9 48 20 0 11 -11
20 -24 20 -13 0 -6 13 15 28 21 16 45 24 54 19 8 -5 15 9 15 31 0 30 -9 37
-33 28 -23 -9 -29 -5 -19 11 8 12 5 23 -7 23 -11 0 -21 -7 -21 -16 0 -9 -13
-34 -29 -55 -27 -36 -29 -35 -22 26 5 36 0 65 -10 65 -19 0 -27 -66 -20 -155
2 -25 -5 -45 -16 -45 -11 0 -25 -16 -31 -35 -6 -19 -5 1 2 45 28 182 14 262
-24 145 l-15 -45 -9 47 c-5 26 -26 52 -46 57 -24 7 -34 25 -31 58 3 30 -5 48
-22 48 -33 0 -35 24 -4 55 17 17 30 15 52 -7 20 -20 50 -25 97 -16 47 9 68 5
68 -12 0 -13 -12 -20 -27 -14 -15 6 -39 3 -54 -7 -22 -13 -20 -20 10 -31 27
-11 49 0 79 36 45 55 129 106 146 89 19 -19 -16 -53 -55 -53 -22 0 -39 -10
-39 -23 0 -12 -16 -35 -35 -49 -32 -25 -31 -27 14 -27 30 -1 68 21 96 54 l47
55 -13 -65 c-7 -37 -4 -65 7 -65 32 0 42 76 19 138 -27 72 22 162 88 162 41 0
40 -2 -10 -49z m2391 35 c-15 -5 -35 -32 -45 -58 -19 -52 -5 -114 22 -97 9 5
27 -8 39 -30 11 -22 31 -38 43 -36 12 3 26 -6 31 -20 7 -18 -17 -25 -80 -25
-98 0 -114 18 -114 127 0 77 49 154 96 151 23 -1 25 -5 8 -12z m-1769 -31
c-10 -30 -175 -46 -175 -17 0 11 29 23 65 28 36 4 77 9 92 11 14 2 23 -8 18
-22z m1841 -17 c44 -15 70 -42 87 -90 23 -63 41 -78 84 -70 26 5 72 -63 73
-108 0 -29 5 -33 17 -14 14 21 21 21 39 -1 32 -39 -63 -43 -136 -5 -81 42
-155 42 -113 0 17 -16 42 -30 57 -31 35 -1 105 -60 121 -103 11 -29 6 -32 -37
-15 -28 10 -73 19 -101 19 -36 0 -48 9 -41 28 6 15 -2 45 -18 65 -28 35 -29
34 -17 -10 10 -35 6 -45 -14 -39 -15 5 -27 27 -27 48 0 21 -6 43 -14 49 -8 6
25 22 74 37 50 14 85 34 79 43 -6 10 -23 12 -40 6 -34 -13 -39 15 -7 47 16 16
0 28 -55 46 -95 31 -116 49 -100 89 14 37 11 37 89 9z m1154 -58 c2 -37 -6
-60 -22 -60 -13 0 -37 -3 -51 -7 -15 -3 -20 -3 -12 2 8 5 15 29 15 55 0 26 -7
50 -15 55 -8 5 -4 6 9 3 14 -4 30 3 37 14 19 31 35 6 39 -62z m1600 60 c7 -11
0 -20 -16 -20 -15 0 -44 -18 -64 -40 -39 -43 -100 -53 -120 -20 -7 11 14 26
47 32 33 7 65 25 71 40 12 32 64 37 82 8z m-4116 -47 c8 -12 -1 -15 -21 -7
-43 17 -41 -4 7 -66 59 -75 53 -113 -11 -71 -38 25 -50 26 -48 7 9 -67 -2 -94
-33 -82 -24 9 -30 2 -24 -26 5 -21 18 -36 29 -34 11 2 19 -16 17 -40 -2 -26
-19 -47 -42 -51 -21 -4 -47 -16 -58 -26 -13 -13 -6 -15 20 -7 38 13 38 12 3
-17 -23 -19 -34 -50 -30 -86 8 -67 -30 -89 -40 -25 -5 35 -11 38 -24 16 -13
-21 -23 -22 -41 -4 -19 19 -16 35 9 74 39 59 44 91 9 56 -33 -33 -56 -30 -56
6 0 17 11 30 24 30 18 0 18 6 1 23 -17 17 -36 14 -76 -12 -59 -38 -88 -28 -49
19 17 20 18 30 2 30 -12 0 -22 -8 -22 -17 0 -10 -36 -43 -80 -73 -62 -43 -78
-65 -68 -95 8 -27 5 -35 -10 -26 -52 32 3 171 68 171 12 0 44 22 70 50 53 56
171 87 205 53 13 -13 36 -23 53 -23 23 0 21 6 -7 27 -26 19 -30 31 -14 41 38
24 26 56 -17 42 -22 -7 -40 -4 -40 7 0 27 59 46 103 32 27 -9 34 -4 25 20 -7
17 -2 31 11 31 13 0 18 9 11 20 -7 11 -35 20 -62 20 -29 0 -45 9 -38 20 16 27
227 21 244 -7z m3125 -22 c19 -23 15 -33 -20 -51 -51 -28 -87 -3 -68 47 16 41
56 43 88 4z m-3419 -40 c0 -33 -76 -81 -96 -61 -8 7 9 30 36 51 61 46 60 46
60 10z m626 -57 l12 -77 -39 50 c-45 57 -49 86 -14 99 31 11 27 18 41 -72z
m1664 18 c39 -36 69 -46 123 -41 39 3 95 -3 124 -15 l53 -22 -50 -13 c-28 -7
-72 -2 -99 12 -37 19 -53 20 -64 3 -17 -29 -106 26 -137 84 -28 53 -13 50 50
-8z m1223 -2 c-2 -27 -14 -50 -28 -50 -14 0 -25 -10 -25 -22 0 -12 -13 -17
-29 -11 -20 7 -25 1 -18 -19 10 -26 17 -26 57 0 66 44 97 4 57 -73 -22 -44
-36 -54 -53 -37 -12 12 -43 22 -68 22 -83 0 -64 121 29 185 41 28 76 52 78 53
1 1 1 -20 0 -48z m-3697 2 c74 1 79 -66 10 -132 -28 -27 -30 -26 -21 13 7 32
0 46 -29 54 -33 8 -37 2 -26 -45 8 -39 2 -64 -21 -83 -29 -24 -32 -22 -28 12
6 49 -19 109 -46 109 -11 0 -9 -13 5 -30 18 -21 18 -30 2 -30 -14 0 -18 -19
-10 -50 18 -73 -16 -60 -57 20 -35 71 -25 91 23 45 22 -20 24 -17 13 20 -10
33 -6 45 18 45 17 0 31 10 31 22 0 12 -13 17 -30 11 -16 -7 -30 -5 -30 4 0 32
27 42 78 28 29 -8 82 -14 118 -13z m2446 -82 c25 -29 28 -44 11 -55 -21 -13
-4 -23 32 -17 8 1 15 -8 15 -19 0 -12 8 -16 18 -10 17 10 41 -51 42 -106 0
-21 -7 -22 -27 -6 -15 13 -34 16 -43 8 -9 -8 -10 -4 -2 10 8 14 4 25 -8 25
-12 0 -18 8 -12 17 6 10 -7 34 -29 54 -29 26 -33 40 -16 51 16 10 4 31 -39 68
-35 30 -64 63 -64 75 0 23 66 -29 122 -95z m2013 85 c-4 -14 -29 -28 -56 -32
-41 -6 -44 -3 -21 25 32 38 89 43 77 7z m-3699 -100 c-6 -31 7 -59 37 -85 49
-42 61 -99 26 -121 -12 -7 -17 -26 -11 -41 13 -35 -36 -37 -64 -3 -11 14 -22
79 -24 145 -6 147 -5 150 22 150 13 0 19 -20 14 -45z m340 -10 c-4 -19 -23
-34 -42 -32 -19 1 -34 -10 -34 -25 0 -15 -9 -28 -20 -28 -23 0 -24 6 -8 48 7
18 25 32 40 32 15 0 28 9 28 20 0 11 10 20 21 20 12 0 19 -16 15 -35z m-603
-30 c-7 -25 -13 -63 -13 -85 -1 -39 -2 -39 -31 -1 -45 60 -38 131 13 131 34 0
40 -9 31 -45z m147 -43 c0 -100 -32 -125 -98 -79 -55 38 -54 94 3 134 75 52
95 41 95 -55z m-1651 -110 c-25 -25 -65 52 -55 105 l12 58 26 -77 c14 -42 22
-81 17 -86z m4421 125 c23 -23 26 -39 11 -54 -11 -11 -21 -37 -21 -57 0 -20
-9 -36 -20 -36 -11 0 -20 -18 -20 -40 0 -55 -61 -111 -113 -104 -50 7 -80 64
-45 85 13 8 17 25 9 38 -25 40 7 161 42 161 25 0 29 -14 18 -70 -8 -44 -5 -70
8 -70 12 0 21 11 21 23 0 13 5 18 12 12 7 -7 -1 -39 -18 -72 -18 -38 -21 -57
-7 -51 47 18 70 102 37 136 -25 25 -27 40 -8 81 27 59 49 64 94 18z m410 22
c0 -5 -15 -44 -34 -85 l-34 -74 -7 68 c-5 42 2 74 19 85 30 19 56 22 56 6z
m-1568 -47 c22 18 28 15 28 -18 0 -58 -34 -73 -59 -26 -12 22 -20 47 -19 56 0
9 6 4 12 -10 7 -20 16 -20 38 -2z m-3354 -72 c51 -47 82 -95 91 -142 7 -39 18
-84 24 -99 7 -18 -1 -29 -20 -29 -20 0 -36 25 -44 70 -8 39 -20 70 -28 70 -8
0 -25 20 -37 45 -20 42 -21 43 -24 5 -3 -32 -9 -28 -31 20 -24 52 -42 40 -30
-20 3 -11 -3 -13 -11 -4 -9 8 -18 26 -21 40 -3 13 -11 44 -18 69 -21 71 57 58
149 -25z m5275 24 c0 -31 -137 -32 -147 0 -5 13 16 26 48 30 71 9 99 1 99 -30z
m-541 -9 c56 -38 68 -101 41 -208 -28 -108 -73 -155 -73 -76 0 25 -22 75 -50
111 -93 122 -33 249 82 173z m-3606 -78 c-9 -25 -15 -25 -28 -4 -13 19 -17 14
-18 -19 0 -56 -34 -124 -61 -124 -41 0 -20 134 26 165 53 35 97 25 81 -18z
m420 40 c-13 -5 -19 -21 -14 -36 10 -25 -79 -111 -115 -111 -9 0 -17 17 -17
38 0 36 108 123 150 120 11 -1 9 -6 -4 -11z m-306 -78 c0 -28 25 -66 65 -97
52 -41 60 -55 39 -76 -37 -37 -136 28 -129 84 3 24 -4 37 -15 30 -11 -7 -20
-23 -20 -36 0 -14 -18 -36 -40 -49 -22 -14 -40 -42 -40 -63 0 -40 -53 -95 -73
-76 -7 7 2 44 20 81 18 38 33 79 33 91 0 12 14 22 32 22 20 0 28 11 21 30 -7
17 -3 30 8 30 10 0 19 17 19 37 0 47 17 63 52 49 15 -5 28 -31 28 -57z m1866
44 c7 7 19 -2 26 -20 7 -18 25 -33 40 -33 15 0 28 -19 28 -42 0 -25 -10 -38
-25 -32 -14 5 -22 21 -18 36 3 16 0 21 -9 13 -8 -9 -36 4 -62 28 -48 46 -66
98 -19 60 15 -13 32 -17 39 -10z m-1465 -63 c14 10 14 22 -2 42 -20 23 -15 28
26 28 51 0 75 -32 75 -99 0 -45 -47 -65 -113 -48 -48 11 -49 9 -37 -58 13 -67
11 -70 -53 -80 -82 -12 -91 -6 -55 38 19 23 20 30 3 20 -15 -9 -26 -5 -27 11
-1 14 -8 4 -16 -24 -9 -35 -30 -52 -68 -56 -63 -8 -73 27 -14 46 22 7 40 22
40 34 0 30 125 156 155 156 14 0 26 16 26 35 1 26 6 23 20 -11 10 -26 28 -41
40 -34z m263 -93 c3 -35 17 -67 29 -72 16 -5 20 8 12 36 -14 54 57 39 133 -28
40 -36 46 -37 36 -8 -13 37 15 49 36 15 7 -11 38 -20 69 -20 57 0 57 -1 35
-75 -27 -95 -32 -100 -55 -64 -15 24 -18 23 -19 -7 0 -35 -2 -35 -49 0 -60 43
-65 66 -13 52 21 -5 44 0 51 12 21 35 -99 34 -141 0 -72 -59 -208 75 -208 204
0 85 75 44 84 -45z m-963 52 c20 -18 30 -48 24 -70 -11 -44 -45 -53 -45 -13 0
14 -18 27 -40 29 -22 1 -40 -6 -40 -16 0 -10 18 -30 40 -44 51 -32 52 -63 1
-36 -74 40 -90 -27 -21 -89 48 -43 53 -126 8 -143 -55 -21 -101 43 -60 84 42
42 14 81 -76 107 -42 13 -49 19 -21 20 26 1 42 17 44 44 2 28 -6 38 -25 31
-16 -6 -34 -3 -41 8 -6 10 9 19 35 19 25 0 73 22 106 49 72 59 68 59 111 20z
m3630 -38 c20 -38 31 -76 23 -84 -21 -21 -114 74 -114 116 0 60 51 42 91 -32z
m-2505 18 c43 -8 75 -4 83 10 16 25 51 9 51 -22 0 -12 -13 -16 -30 -10 -16 7
-30 3 -30 -8 0 -10 -18 -19 -40 -19 -22 0 -40 9 -40 20 0 11 -22 20 -49 20
-27 0 -55 11 -63 23 -10 16 -4 20 17 12 18 -7 63 -18 101 -26z m3449 -14 c-4
-14 -34 -28 -65 -32 -51 -6 -55 -3 -31 25 31 38 108 43 96 7z m-5600 -39 c-11
-34 -115 -59 -115 -28 0 37 21 52 75 52 29 0 45 -10 40 -24z m5125 -51 c0 -19
-10 -48 -22 -65 -16 -23 -18 -19 -7 18 9 32 6 43 -9 33 -12 -7 -22 0 -22 18 0
17 14 31 30 31 17 0 30 -16 30 -35z m-3810 0 c85 -63 67 -165 -29 -165 -22 0
-41 -10 -41 -21 0 -12 10 -15 22 -8 15 10 18 -1 8 -33 -15 -46 -15 -46 39 -10
68 44 86 29 43 -37 -35 -55 -71 -64 -106 -29 -27 27 -66 7 -66 -32 0 -16 20
-47 44 -69 23 -22 37 -46 30 -53 -23 -24 -74 11 -94 63 -11 28 -29 46 -40 39
-29 -18 -25 -42 12 -80 45 -44 30 -49 -47 -17 -89 37 -95 139 -10 160 68 17
126 70 90 82 -14 5 -20 17 -14 27 17 27 -7 22 -62 -14 -44 -29 -49 -29 -49 -1
0 17 42 52 95 78 92 46 119 89 76 120 -12 8 2 14 29 14 28 0 59 -6 70 -14z
m3346 -63 l63 -78 -72 -55 -71 -54 13 62 c11 50 8 63 -17 63 -18 0 -32 9 -32
20 0 12 -22 17 -50 12 -50 -9 -68 14 -30 38 11 7 20 1 21 -14 0 -14 10 -8 23
14 22 40 55 69 78 70 6 0 40 -35 74 -78z m-3596 -1 c0 -36 -33 -74 -51 -57
-13 14 15 96 33 96 10 0 18 -17 18 -39z m-765 -76 c5 -16 -11 -25 -44 -25 -47
0 -50 -5 -30 -41 12 -23 18 -56 14 -75 -4 -19 12 -45 34 -58 39 -23 39 -25
-13 -25 -29 -1 -59 -10 -66 -21 -7 -11 -36 -20 -65 -20 -41 0 -48 5 -29 24 45
45 28 96 -36 109 -33 7 -60 17 -60 22 0 20 70 64 102 64 17 1 48 19 69 42 39
43 110 46 124 4z m1401 -52 c-27 -20 -29 -32 -11 -50 34 -34 -29 -94 -78 -73
-33 14 -31 17 13 29 42 11 45 15 15 26 -72 28 -35 91 55 93 37 1 37 -1 6 -25z
m181 -14 c51 -1 51 -1 -14 -30 -89 -38 -103 -37 -103 13 0 30 9 39 32 30 17
-7 55 -12 85 -13z m141 -92 c-17 -20 -17 -27 0 -27 12 0 22 -13 22 -30 0 -39
-29 -38 -95 5 -38 25 -48 27 -36 7 13 -22 9 -26 -16 -16 -18 7 -33 8 -33 3 0
-6 23 -19 51 -29 28 -11 46 -29 39 -40 -16 -26 22 -26 71 1 33 17 39 14 39
-20 0 -23 -11 -41 -25 -41 -17 -1 -15 -7 5 -20 17 -11 22 -20 13 -20 -10 0 -3
-22 15 -49 39 -61 40 -71 4 -71 -19 0 -25 -14 -17 -42 9 -37 5 -41 -37 -28
-70 21 -94 50 -42 50 45 0 59 28 24 50 -11 7 -20 3 -20 -9 0 -11 -8 -21 -19
-21 -25 0 -10 75 23 116 20 24 20 28 1 17 -14 -9 -25 -7 -25 4 0 55 -71 3 -80
-59 -10 -70 -80 -113 -80 -49 0 17 -9 32 -20 34 -28 3 -45 8 -86 26 -42 19
-121 -43 -105 -83 5 -14 -3 -26 -20 -26 -16 0 -29 8 -29 18 0 10 -15 16 -33
15 -18 -2 -37 10 -42 25 -6 16 -1 22 11 14 30 -18 82 63 69 109 -7 30 1 39 33
39 23 0 42 -10 42 -21 0 -12 9 -16 19 -9 11 6 48 -3 82 -21 35 -17 68 -27 74
-20 7 6 -1 12 -17 12 -16 1 -11 9 12 18 42 16 -71 61 -156 61 -20 0 -31 9 -24
20 20 32 -43 23 -70 -10 -14 -16 -36 -30 -50 -30 -14 0 -31 14 -37 30 -7 18 0
30 17 30 15 0 37 16 48 35 15 27 25 30 43 12 13 -13 36 -19 51 -13 16 6 29 -2
29 -17 1 -15 9 -8 19 15 23 57 107 82 89 26 -6 -21 -2 -38 10 -38 11 0 21 19
21 42 0 29 9 39 29 31 17 -6 35 -3 41 8 7 10 41 26 76 36 77 21 128 -7 92 -50z
m3130 -32 c-7 -47 -23 -94 -37 -105 -13 -11 -31 -38 -41 -60 -16 -37 -18 -37
-25 10 -5 28 -18 62 -30 76 -16 19 -4 43 46 95 87 90 102 87 87 -16z m-3978
-187 c38 -29 37 -30 -28 -24 -38 3 -73 17 -77 31 -12 35 56 30 105 -7z m2692
-68 c35 0 64 -13 71 -31 20 -51 -9 -57 -94 -19 -80 36 -140 90 -71 63 20 -7
62 -13 94 -13z m-2668 -53 c4 -11 -27 -20 -69 -21 -79 -2 -111 8 -97 30 12 21
159 13 166 -9z m2086 -16 c0 -30 -89 -151 -106 -146 -42 14 -36 55 14 104 44
45 92 67 92 42z"/>
<path d="M4255 3328 c-16 -26 26 -128 52 -128 10 0 7 -13 -7 -30 -14 -16 -18
-30 -9 -30 9 0 -1 -13 -22 -28 -35 -26 -44 -23 -92 35 -58 68 -110 30 -63 -45
27 -44 211 -58 194 -15 -6 16 -1 35 11 42 30 19 26 106 -7 125 -15 9 -31 34
-35 56 -5 24 -13 31 -22 18z"/>
<path d="M3881 3173 c-1 -67 3 -74 29 -53 37 31 37 43 1 91 -28 36 -30 34 -30
-38z"/>
<path d="M1492 3183 c-7 -11 -28 -16 -45 -9 -22 8 -29 3 -23 -16 6 -15 27 -26
48 -24 21 3 27 0 13 -6 -39 -17 -29 -48 10 -33 33 12 33 11 1 -21 -43 -44 -56
-43 -56 5 0 27 -10 36 -30 28 -23 -9 -27 -2 -17 26 10 29 8 32 -13 13 -16 -14
-19 -37 -9 -60 8 -20 14 -43 12 -51 -2 -8 15 -15 37 -15 22 0 40 -9 40 -20 0
-11 -11 -20 -25 -20 -18 -1 -17 -6 3 -18 39 -25 76 16 92 103 14 74 -13 158
-38 118z"/>
<path d="M2492 3110 c-8 -22 -23 -56 -33 -75 -25 -45 -24 -75 1 -75 11 0 20
16 20 36 0 20 10 46 22 58 12 12 18 38 13 59 -8 35 -10 35 -23 -3z"/>
<path d="M2936 2934 c-28 -30 -60 -54 -71 -54 -11 0 -26 -13 -32 -30 -17 -43
14 -37 57 10 38 42 110 55 110 20 0 -11 22 -20 49 -20 27 0 54 9 61 20 7 11
-10 20 -39 20 -36 0 -58 14 -69 44 l-16 45 -50 -55z"/>
<path d="M5124 2812 c-32 -37 -32 -38 6 -23 94 36 154 48 186 37 20 -7 27 -5
17 6 -31 34 -174 20 -209 -20z"/>
<path d="M5160 2624 c-58 -21 -80 -60 -67 -121 10 -52 16 -57 39 -34 32 32 37
59 8 41 -11 -7 -20 1 -20 18 0 17 24 43 53 58 53 28 43 58 -13 38z"/>
<path d="M3031 2581 c-7 -11 -23 -15 -37 -10 -31 11 -88 -24 -69 -43 25 -24
143 -12 164 18 12 15 34 23 49 18 17 -6 22 0 14 13 -17 28 -105 30 -121 4z"/>
<path d="M175 1956 c-5 -14 6 -37 23 -51 29 -22 28 -24 -3 -13 -20 7 -35 3
-35 -10 0 -28 10 -27 113 4 70 20 80 29 60 54 -29 37 -93 50 -93 18 0 -17 -7
-17 -28 0 -22 18 -30 18 -37 -2z"/>
</g>
</svg>
