<?xml version="1.0" encoding="UTF-8" standalone="yes"?>
<!-- Created with sK1/UniConvertor (http://sk1project.org/) -->
<svg xmlns="http://www.w3.org/2000/svg" xmlns:xlink="http://www.w3.org/1999/xlink"
  width="270pt" height="153pt" viewBox="0 0 270 153"
  fill-rule="evenodd">
<g>
<g>
<path style="stroke:none; fill:#000000" d="M 10.3 0.699997L 21 1.09999L 21 19.5C 21 29.6 20.8 38.4 20.5 39.2C 20.1 40.2 17.6 40.4 10 40.2C 3.4 40 0 40.2 0 40.9C 0 41.6 3.6 42 10 42C 18.9 42 20 42.2 20 43.7C 20 45.3 19 45.5 10 45.2C 1.5 44.9 0 45.1 0 46.4C 0 47.8 1.6 48 10 48C 15.5 48 20 48.3 20 48.7C 20 49.2 15.5 49.4 10 49.2L 0 48.9L 0 62.4C 0 69.9 0.4 76.1 1 76.5C 1.6 76.8 1.5 78 0.8 79.5C 0 81.4 0 82.6 0.8 84.5C 1.5 86.1 1.6 87.1 0.9 87.6C 0.3 88 0.3 88.7 1.1 89.6C 1.9 90.5 1.9 91 1.2 91C 0.4 91 0.1 100.7 0 122L 0 153L 135 153L 270 153L 270 135.5L 270 118L 265.3 117.9C 262.6 117.8 261.3 117.6 262.2 117.3C 263.1 117.1 264.1 116.1 264.3 115.2C 264.7 113.7 264.8 113.7 264.9 115.2C 265 116.4 265.8 117 267.5 117C 269.9 117 270 116.8 270 110.6C 270 106.6 269.6 104 268.8 103.8C 268.2 103.6 267.5 102.5 267.4 101.4C 266.9 98.7 268 95.9 269.1 96.5C 269.6 96.9 270 94.9 270 92.1C 270 88.4 269.6 87 268.6 87C 267.9 87 266.7 86.3 266 85.5C 265 84.3 265 84 266 84C 266.7 84 267 83.2 266.7 82.1C 266.4 80.8 266.6 80.3 267.6 80.7C 268.3 80.9 269.1 81.9 269.3 82.8C 269.6 83.8 269.7 80.3 269.7 75.2C 269.6 70.2 269.2 66 268.8 66C 268.4 66 268 65.3 268 64.5C 268 63.7 268.5 63 269 63C 269.6 63 270 62.3 270 61.5C 270 60.7 269.5 60.1 268.8 60.2C 268.2 60.4 267.4 59.7 267.2 58.7C 267 57.7 267.4 57 268.4 57C 269.7 57 270 55.7 270 50C 270 43.2 269.9 43 267.4 43C 262.4 43 261 44.6 261 50.4C 261 55.8 258.4 61 255.7 61C 255 60.9 255.2 60.4 256.1 59.7C 257.1 59 257.9 56.6 258.1 53.7L 258.5 49L 254.3 49C 251.2 49 250 48.6 250 47.5C 250 46.4 251.1 46.2 254.8 46.4C 257.4 46.6 258.4 46.5 257 46.3C 253.9 45.7 253.2 44.6 253.8 41.4C 254.2 39.1 254.6 39 262.1 39C 266.7 39 270 38.6 270 38C 270 37.4 266.7 37 262 37C 254.1 37 254 37 254 34.5C 254 32 254.1 32 262 32C 266.9 32 270 31.6 270 30.9C 270 30.3 266.5 30 260 30.1C 252.7 30.3 250 30.7 250 31.6C 250 32.3 249.7 33.1 249.3 33.3C 248.8 33.6 248.6 26.4 248.8 17.4L 249.1 1.09996L 259.8 0.699966C 265.7 0.59996 209.5 0.399963 135 0.399963C 60.5 0.399963 4.30001 0.599991 10.3 0.699997zM 37 14L 37 27L 32.1 27L 27.1 27L 26.7 32.2C 26.5 35.1 26.3 29.3 26.2 19.2L 26 1L 31.5 1L 37 1L 37 14zM 61.2 5.60001C 61.4 8.10001 61.3 10.3 61.1 10.6C 60.9 10.8 58.1 11 54.9 11C 46.7 11 46.4 12.8 54.6 13.2L 61.2 13.5L 62.5 17.2C 63.7 20.7 63.6 21 61.9 21C 60.3 21 60.1 21.5 60.6 23.5C 61 25 60.8 26 60.1 26C 59.5 26 58.9 24.5 58.9 22.7L 58.7 19.5L 58 23L 57.3 26.5L 57 22C 56.8 18.5 56.6 18.2 56.3 20.5C 55.6 26.3 54.6 26.5 54 21C 53.6 16.8 53.1 15.4 51.7 15.2C 50.1 14.9 49.9 15.4 50.2 19.2C 50.4 22 50.9 23.4 51.8 23.2C 53.5 22.9 53.3 23.3 50.8 25.4C 48.8 27.1 48.7 27.1 49.4 25.5C 49.8 24.5 49.6 23.4 49.1 23.1C 48.2 22.5 47.8 17 47.9 6.7L 48 1L 54.4 1L 60.8 1L 61.2 5.60001zM 63.7 7.20001C 63.5 8.50002 63.3 7.50002 63.3 5.00002C 63.3 2.50002 63.5 1.50002 63.7 2.70001C 63.9 4.00002 63.9 6.00002 63.7 7.20001zM 66.7 7.20001C 66.5 8.50002 66.3 7.50002 66.3 5.00002C 66.3 2.50002 66.5 1.50002 66.7 2.70001C 66.9 4.00002 66.9 6.00002 66.7 7.20001zM 73 2.50002C 73 3.30002 73.5 4.00002 74 4.00002C 74.6 4.00002 75 3.30002 75 2.50002C 75 0.900009 76.6 0.500015 77.4 1.90001C 78.3 3.20001 75.6 5.00002 72.4 5.3C 70.1 5.5 69.4 5 69.2 3.2C 68.9 1.5 69.4 1 70.9 1C 72.1 1 73 1.60002 73 2.50002zM 83 2.50002C 83 3.30002 82.6 4.00002 82 4.00002C 81.5 4.00002 81 3.30002 81 2.50002C 81 1.70001 81.5 1.00002 82 1.00002C 82.6 1.00002 83 1.70001 83 2.50002zM 85.1 5.30002C 83.8 6.60002 83.6 5.20001 84.7 2.30002C 85.4 0.600021 85.5 0.600021 85.8 2.40002C 86 3.40002 85.7 4.70003 85.1 5.30002zM 90 4.20001C 89.9 7.80002 87.6 11.8 86.5 10.1C 86.2 9.5 86.3 9 86.8 9C 87.3 9 88 8.10001 88.3 7C 88.6 5.89999 88.4 5.2 87.9 5.60001C 87.4 5.90001 87 5 87 3.60001C 87 2 87.6 1 88.5 1C 89.5 1 90 2.00002 90 4.20001zM 99.7 4.70001C 99.4 5.70001 99.2 5.10001 99.2 3.50002C 99.2 1.80002 99.4 1.10002 99.7 1.70001C 99.9 2.40001 99.9 3.80002 99.7 4.70001zM 108.8 5.70001C 108.5 9.80002 108.2 10.5 106.3 10.8C 104.2 11.1 104 10.8 104 6.10002C 104 1.30002 104.2 1.00002 106.6 1.00002C 109 1.00002 109.1 1.20001 108.8 5.70001zM 117 7.00002C 117 10.3 116.6 13 116.1 13C 114.7 13 114 10.3 114 5.40001C 114 2.20001 114.4 1.00002 115.5 1.00002C 116.7 1.00002 117 2.30002 117 7.00002zM 124 7.70001C 124 11.5 123.6 14 123.2 13.4C 122.8 12.8 121.7 12.1 120.8 11.7C 119.4 11.2 119 9.90001 119 6.00002C 119 1.30002 119.2 1.00002 121.5 1.00002C 123.9 1.00002 124 1.20001 124 7.70001zM 127 7.90001C 127 17.4 125.3 17.8 125.1 8.50002C 125 3.90001 125.3 1.00002 126 1.00002C 126.6 1.00002 127 3.80002 127 7.90001zM 130.7 11.7C 130.5 13.8 130.3 12.1 130.3 8.00002C 130.3 3.90001 130.5 2.20001 130.7 4.20001C 130.9 6.30002 130.9 9.70001 130.7 11.7zM 138 8.50002C 138 15.2 137.8 16 136.1 16C 135 16 133.3 17.5 132.1 19.2C 131 21 130 22 130 21.4C 130 20.9 130.7 19.5 131.5 18.4C 132.5 17.1 132.9 14 133 8.70001C 133 1.20001 133.1 1.00002 135.5 1.00002C 137.9 1.00002 138 1.20001 138 8.50002zM 174.8 3.70001C 174.5 6.40001 174.2 6.50002 168.8 6.80002L 163.1 7.10002L 162.8 13.2L 162.5 19.4L 156.6 19.1C 152.4 18.9 151 19.2 151.5 20C 151.9 20.6 154.4 21.1 157.4 21C 164.3 20.8 164.4 20.8 163 22.5C 162.3 23.3 162 24.7 162.4 25.5C 162.7 26.3 162.5 27 162 27C 160.5 27 160.8 29.1 162.8 31.4C 163.9 32.7 164 33 163 32.3C 162.2 31.7 159.7 31 157.5 30.8C 154.5 30.6 153.3 29.9 152.5 28.3C 151.9 26.9 150.9 26.2 150 26.4C 144.7 28 139 27.1 139 24.9C 139 24.3 139.3 24.1 139.8 24.3C 140.2 24.6 140.3 19.5 140.1 12.9L 139.8 1.00003L 157.5 1.00003L 175.1 1.00003L 174.8 3.70001zM 191 2.10001C 191 2.90001 189.8 3.10001 187.5 2.70001C 184 2.10001 184 2.10001 184 5.90001C 184 9.50002 183.9 9.70001 181.3 9.20001C 177.3 8.50002 176 7.20001 176 3.90001L 176 1.00002L 183.5 1.00002C 188.4 1.00002 191 1.39999 191 2.10001zM 206 3.40001C 206 5.90001 203.4 8.8 202.2 7.60001C 201.8 7.20001 202.3 6.40001 203.3 5.90001C 205.7 4.50002 205.4 2.20001 202.8 1.70001C 200.8 1.30002 200.9 1.30002 203.3 1.10001C 205.5 1 206 1.40001 206 3.40001zM 216 7.20001C 215.9 13.1 214.5 17 212.4 17C 212 17 212.1 16.5 212.7 15.9C 213.3 15.3 213.6 14.1 213.3 13.4C 213 12.6 213.3 12 213.9 12C 214.5 12 215 11.5 215 11C 215 10.4 214.3 10 213.4 10C 212.2 10 211.9 9.40001 212.4 7.70001C 212.7 6.50002 213 4.50002 213 3.20001C 213 1.90001 213.6 1.00002 214.5 1.00002C 215.7 1.00002 216 2.30002 216 7.20001zM 227 7.90001C 227 11.8 226.6 15.2 226 15.5C 225.4 15.9 225 13.3 225 8.60002C 225 4.20003 225.4 1.00002 226 1.00002C 226.6 1.00002 227 4.00002 227 7.90001zM 231 8.00002C 231 11.8 230.7 15 230.3 15C 229.8 15 229.6 11.9 229.8 8.00002C 230 4.20001 230.4 1.00002 230.6 1.00002C 230.8 1.00002 231 4.10002 231 8.00002zM 247 11L 247 21L 242.5 21L 238 21L 238 11L 238 1.00002L 242.5 1.00002L 247 1.00002L 247 11zM 191.7 6.60002C 192 7.50002 191.7 8.60002 190.9 9.10002C 189.9 9.70003 189.4 9.30002 189.1 7.70003C 188.8 5.60002 188.7 5.60002 187.9 7.50003C 187.2 9.40002 187.1 9.40002 187.1 7.20003C 187 4.60002 190.7 4.00003 191.7 6.60002zM 198 8.60002C 198 9.40002 197.5 10 196.9 10C 196.4 10 196.2 9.50002 196.5 9.00002C 196.9 8.40001 196.6 7.10002 195.8 6.20001C 194.6 4.70001 194.7 4.60001 196.3 5.90001C 197.2 6.60001 198 7.90002 198 8.60002zM 210.4 7.50002C 210 8.30002 209.6 9.00002 209.4 9.00002C 209.2 9.00002 209 8.30002 209 7.50002C 209 6.70001 209.4 6.00002 210 6.00002C 210.5 6.00002 210.7 6.70001 210.4 7.50002zM 72 8.50002C 71.3 9.40001 70.5 9.80002 70.1 9.50002C 69.8 9.20001 70.2 8.50002 71 8.00002C 73.1 6.60002 73.4 6.80002 72 8.50002zM 77.5 10.1C 78.5 13.1 77.5 13.4 76.2 10.5C 75.6 9.10002 75.5 8.00002 76 8.00002C 76.5 8.00002 77.2 8.90001 77.5 10.1zM 95 9.00002C 95 9.50002 94.8 10 94.6 10C 94.3 10 93.8 9.50002 93.5 9.00002C 93.2 8.40001 93.4 8.00002 93.9 8.00002C 94.5 8.00002 95 8.40001 95 9.00002zM 206 9.00002C 206 9.50002 205.5 10 204.9 10C 204.4 10 204.2 9.50002 204.5 9.00002C 204.8 8.40001 205.3 8.00002 205.6 8.00002C 205.8 8.00002 206 8.40001 206 9.00002zM 99 11.5C 99 12.3 98.8 13 98.6 13C 98.4 13 98 12.3 97.6 11.5C 97.3 10.7 97.5 10 98 10C 98.6 10 99 10.7 99 11.5zM 171 12.6C 171 13.4 170.3 14 169.5 14C 168.7 14 168 13.1 168 12C 168 10.7 168.5 10.2 169.5 10.6C 170.3 11 171 11.8 171 12.6zM 180 13.5C 180 14.9 179.6 16 179 16C 178.5 16 178 15.2 178 14.2C 178 12.8 177.8 12.7 177 14C 176.2 15.3 176 15.3 176 13.9C 176 12 176.9 11 178.7 11C 179.4 11 180 12.1 180 13.5zM 201.4 13.5C 200.5 14.9 199.6 16 199.3 16C 198.8 16 199.8 14.2 201.3 12.2C 203 10 203.1 10.9 201.4 13.5zM 207.5 12C 207.2 12.5 206.5 13 205.9 13C 205.4 13 205 12.5 205 12C 205 11.4 205.7 11 206.6 11C 207.4 11 207.8 11.4 207.5 12zM 71.4 14.5C 71 15.3 70.4 15.8 69.9 15.5C 69.5 15.2 69.3 14.3 69.6 13.5C 70 12.7 70.6 12.2 71.1 12.5C 71.5 12.8 71.7 13.7 71.4 14.5zM 90 15C 90 15.3 89.3 15.7 88.5 15.7C 87.7 15.7 87 14.8 87 13.7C 87 12.1 87.3 12 88.5 13C 89.3 13.7 90 14.6 90 15zM 186 16.4C 186 17 186.5 16.8 187 16C 187.5 15.2 188 15 188 15.7C 188 16.3 188.9 16.6 190 16.3C 191.2 16 192 16.3 192 16.9C 192 17.6 191.7 17.9 191.2 17.6C 190.2 17 186.7 19.7 187.3 20.7C 187.6 21.2 187.1 21.6 186.1 21.6C 184.9 21.6 184.5 20.8 184.6 18.8C 184.7 17.2 184.2 15.3 183.4 14.6C 182.7 13.8 182.4 12.9 182.8 12.6C 183.5 11.8 186 14.8 186 16.4zM 196 13C 196 13.5 195.6 14 195 14C 194.5 14 194 13.5 194 13C 194 12.4 194.5 12 195 12C 195.6 12 196 12.4 196 13zM 78.8 15.3C 79.4 15.8 80 16.9 80 17.8C 80 18.8 79.2 18.5 77.4 16.7C 75.9 15.2 74.3 14.3 73.7 14.7C 73.1 15 73 14.8 73.4 14.2C 74.1 13.1 76.5 13.6 78.8 15.3zM 106.9 18C 106.7 22.8 105.8 24.2 104.5 22C 104.2 21.4 104.4 21 104.9 21C 105.5 21 106 19.6 106 18C 106 16.3 105.6 15 105 15C 104.5 15 104 14.5 104 14C 104 13.4 104.7 13 105.5 13C 106.8 13 107.1 14.1 106.9 18zM 97.5 15C 97.2 15.5 96.4 16 95.9 16C 95.3 16 95.2 15.5 95.5 15C 95.8 14.4 96.6 14 97.1 14C 97.7 14 97.8 14.4 97.5 15zM 120 14.4C 120 14.7 119.6 15.2 119 15.5C 118.5 15.8 118 15.6 118 15.1C 118 14.5 118.5 14 119 14C 119.6 14 120 14.2 120 14.4zM 221.6 15.5C 219.7 16.9 218 16.7 218 14.9C 218 14.4 219.2 14 220.8 14C 223.4 14.1 223.4 14.1 221.6 15.5zM 169.5 16C 169.8 16.5 169.6 17 169.1 17C 168.5 17 168 16.5 168 16C 168 15.4 168.2 15 168.4 15C 168.7 15 169.2 15.4 169.5 16zM 196.5 17C 196.8 17.5 196.4 18 195.6 18C 194.7 18 194 17.5 194 17C 194 16.4 194.4 16 194.9 16C 195.5 16 196.2 16.4 196.5 17zM 202.5 18.1C 201.5 19.6 200 19.1 200.6 17.5C 201 16.7 201.6 16.3 202.1 16.6C 202.6 16.9 202.8 17.6 202.5 18.1zM 230 18.5C 229.3 19.4 228.5 19.8 228.2 19.5C 227.9 19.3 228.3 18.4 229 17.5C 229.7 16.6 230.5 16.2 230.8 16.5C 231.1 16.7 230.7 17.6 230 18.5zM 89 18C 89 18.5 88.5 19 87.9 19C 87.4 19 87.2 18.5 87.5 18C 87.8 17.4 88.3 17 88.6 17C 88.7999 17 89 17.4 89 18zM 121 18.4C 121 19.2 120.6 20.1 120.2 20.4C 119.8 20.6 119.4 20 119.4 18.9C 119.4 17.9 119.8 17 120.2 17C 120.6 17 121 17.6 121 18.4zM 68.5 19C 68.8 19.5 68.6 20 68.1 20C 67.5 20 67 19.5 67 19C 67 18.4 67.2 18 67.4 18C 67.7 18 68.2 18.4 68.5 19zM 210 19C 210 19.5 209.6 20 209.1 20C 208.5 20 207.8 19.5 207.5 19C 207.2 18.4 207.6 18 208.4 18C 209.3 18 210 18.4 210 19zM 214.6 21.7C 213.5 22.8 212.7 21.1 213.5 19.3C 214.3 17.6 214.3 17.6 214.7 19.3C 215 20.3 214.9 21.4 214.6 21.7zM 221 19.4C 221 20.2 220.2 20.7 219.3 20.5C 218.3 20.3 217.3 20.1 217 20.1C 216.3 19.9 219.3 18 220.3 18C 220.7 18 221 18.6 221 19.4zM 235 19C 235 19.5 234.5 20 233.9 20C 233.4 20 233.2 19.5 233.5 19C 233.8 18.4 234.3 18 234.6 18C 234.8 18 235 18.4 235 19zM 97.5999 21.2C 96.6999 21.7 96.2999 22.6 96.5999 23.2C 96.9999 23.9 96.7999 24 96.1999 23.6C 95.2999 23.1 95.2999 22.3 95.9999 20.9C 96.5999 19.8 97.5999 19.2 98.1999 19.6C 98.8999 20 98.6999 20.6 97.5999 21.2zM 102 20C 102 20.5 101.5 21 100.9 21C 100.4 21 100.2 20.5 100.5 20C 100.8 19.4 101.3 19 101.6 19C 101.8 19 102 19.4 102 20zM 169.5 20C 169.1 20.6 170.1 20.7 172 20.4C 174.3 19.9 175 20.1 175 21.4C 175 22.3 175.5 23 176.2 23C 176.8 23 177.1 23.3 176.8 23.6C 176.4 23.9 175.1 23.4 173.7 22.5C 171.5 21.1 171.2 21.1 170.6 22.5C 170.3 23.4 169.6 23.8 169 23.5C 167.7 22.7 167.7 19 169.1 19C 169.6 19 169.8 19.4 169.5 20zM 204 21C 204 21.5 203.5 22 202.9 22C 202.4 22 202.2 21.5 202.5 21C 202.8 20.4 203.3 20 203.6 20C 203.8 20 204 20.4 204 21zM 80.9999 22C 80.9999 22.5 80.5999 23 79.9999 23C 79.4999 23 78.9999 22.5 78.9999 22C 78.9999 21.4 79.4999 21 79.9999 21C 80.5999 21 80.9999 21.4 80.9999 22zM 88.9999 22.6C 88.9999 23.4 88.5999 23.8 87.9999 23.5C 87.4999 23.2 86.9999 22.5 86.9999 21.9C 86.9999 21.4 87.4999 21 87.9999 21C 88.5999 21 88.9999 21.7 88.9999 22.6zM 116.4 23.1C 115.6 24.4 114.3 24.2 113.7 22.6C 113.3 21.6 113.7 21.4 115.1 21.7C 116.1 22 116.7 22.6 116.4 23.1zM 127.7 23.2C 127.4 24 127.1 23.7 127.1 22.6C 127 21.5 127.3 20.9 127.6 21.3C 127.9 21.6 128 22.5 127.7 23.2zM 200 22C 200 22.5 199.3 22.7 198.5 22.4C 197.7 22 197 21.6 197 21.4C 197 21.2 197.7 21 198.5 21C 199.3 21 200 21.4 200 22zM 209 21.7C 208.9 23 205 27.3 204.5 26.8C 204.2 26.5 204.6 25.7 205.4 25.1C 206.2 24.4 206.6 23.2 206.3 22.4C 206 21.6 206.4 21 207.4 21C 208.3 21 209 21.3 209 21.7zM 226.5 25.8C 225.1 28.5 222.1 31.8 223.1 29.4C 223.3 28.9 224.2 26.8 225 24.8C 225.8 22.7 226.8 21.4 227.2 21.8C 227.7 22.3 227.3 24.1 226.5 25.8zM 232.1 23.7C 230.9 25.7 230.7 25.1 231.6 22.5C 232 21.6 232.5 21.1 232.7 21.4C 233 21.6 232.7 22.7 232.1 23.7zM 73.3999 23.6C 73.7 24.4 73.5999 24.8 72.9999 24.5C 72.3999 24.2 71.9999 23.5 71.9999 22.9C 71.9999 21.5 72.6999 21.8 73.3999 23.6zM 134 23.5C 133.3 24.3 132.2 25 131.6 25C 131 25 131.4 24.3 132.4 23.5C 134.9 21.6 135.6 21.6 134 23.5zM 191.5 23C 191.2 23.5 190.3 24 189.7 24C 189 24 189.1 23.6 190 23C 191.9 21.8 192.3 21.8 191.5 23zM 220.5 23.2C 221 22.8 221 23.1 220.6 23.7C 219.6 25.5 218.3 25.3 217.6 23.4C 217.1 22.1 217.2 22 218.3 22.8C 219.1 23.5 220.1 23.6 220.5 23.2zM 247 23.3C 247 24.2 245.9 24.5 243.5 24.2C 241.6 24 240 23.4 240 22.9C 240 22.4 241.6 22 243.5 22C 245.7 22 247 22.5 247 23.3zM 65 24C 65 24.5 64.3 24.7 63.5 24.4C 62.7 24 62 23.6 62 23.4C 62 23.2 62.7 23 63.5 23C 64.3 23 65 23.4 65 24zM 92.4 26.2C 92 26.8 91.4 26.7 90.9 25.9C 89.5 23.7 89.9 22.6 91.5 24C 92.3 24.7 92.7 25.7 92.4 26.2zM 123.7 25C 123.8 26.1 123.5 27.2 122.9 27.5C 122.2 28 122.2 25.7 122.9 23.2C 123.2 22.4 123.6 23.3 123.7 25zM 180.4 24.6C 180.7 25.4 180.6 25.8 180 25.5C 179.4 25.2 179 24.5 179 23.9C 179 22.5 179.7 22.8 180.4 24.6zM 79.2 27.5C 79 28.9 78.6 30 78.5 30C 78.4 30 78 28.9 77.8 27.5C 77.5 25.9 77.7 25 78.5 25C 79.3 25 79.5 25.9 79.2 27.5zM 87 26.5C 87 27.3 86.6 28 86 28C 85.5 28 85 27.3 85 26.5C 85 25.7 85.5 25 86 25C 86.6 25 87 25.7 87 26.5zM 104.5 26C 104.2 26.5 103.4 27 102.9 27C 102.3 27 102.2 26.5 102.5 26C 102.8 25.4 103.6 25 104.1 25C 104.7 25 104.8 25.4 104.5 26zM 110.5 26.1C 111.6 27.8 110.4 28.2 109 26.5C 108.2 25.6 108.2 25 108.8 25C 109.4 25 110.2 25.5 110.5 26.1zM 118 26.4C 118 27.2 117.6 28.1 117.2 28.4C 116.8 28.6 116.4 28 116.4 26.9C 116.4 25.9 116.8 25 117.2 25C 117.6 25 118 25.6 118 26.4zM 184.5 26C 184.8 26.5 184.6 27 184.1 27C 183.5 27 183 26.5 183 26C 183 25.4 183.2 25 183.4 25C 183.7 25 184.2 25.4 184.5 26zM 201.7 27.2C 201.4 28 201.1 27.7 201.1 26.6C 201 25.5 201.3 24.9 201.6 25.3C 201.9 25.6 202 26.5 201.7 27.2zM 42 27C 42 27.5 41.8 28 41.6 28C 41.3 28 40.8 27.5 40.5 27C 40.2 26.4 40.4 26 40.9 26C 41.5 26 42 26.4 42 27zM 135 27C 135 27.5 134.3 28 133.4 28C 132.6 28 132.2 27.5 132.5 27C 132.8 26.4 133.5 26 134.1 26C 134.6 26 135 26.4 135 27zM 195 28.2C 195 29.2 195.5 30 196.1 30C 196.6 30 196.8 30.5 196.5 31C 196.1 31.6 196.4 32.9 197.2 33.8C 198.4 35.3 198.3 35.4 196.8 34.1C 195.8 33.4 195 32.2 195 31.4C 195 30.7 194 29.2 192.9 28.1L 190.7 26.1L 192.9 26.3C 194.2 26.4 195 27.1 195 28.2zM 220.6 28.6C 220.2 29.5 219.7 30.1 219.5 29.8C 219.2 29.5 219.2 28.5 219.6 27.6C 220 26.7 220.5 26.1 220.7 26.4C 221 26.7 221 27.7 220.6 28.6zM 242 28C 239.6 29.5 238.3 29.1 240.4 27.5C 241.5 26.7 242.6 26.3 242.9 26.6C 243.2 26.9 242.8 27.5 242 28zM 75.5 29.8C 75.2 30.1 74.4 29.8 73.7 29.1C 72.8 28.1 72.9 28 74.3 28.6C 75.3 28.9 75.8 29.5 75.5 29.8zM 102.5 30.2C 103.1 30.6 102.5 31 101.3 31C 99.7 31 99.2 30.6 99.7 29.5C 100 28.6 100.5 28.3 100.9 28.7C 101.2 29.1 102 29.8 102.5 30.2zM 211 32.7C 211 33.5 210.5 33.8 209.9 33.5C 209.3 33.1 209.1 32.5 209.4 32.2C 209.7 31.9 209.2 30.7 208.3 29.6C 206.5 27.5 206.5 27.5 208.8 29.4C 210 30.5 211 31.9 211 32.7zM 32.3 30.5C 32.7 31.3 32.5 32.2 32 32.5C 31.4 32.9 31 32.2 31 31.1C 31 28.6 31.6 28.4 32.3 30.5zM 36 31.1C 36 31.7 35.6 31.8 35 31.5C 34.5 31.2 34 30.4 34 29.9C 34 29.3 34.5 29.2 35 29.5C 35.6 29.8 36 30.6 36 31.1zM 64 29.4C 64 29.7 63.6 30.2 63 30.5C 62.5 30.8 62 30.6 62 30.1C 62 29.5 62.5 29 63 29C 63.6 29 64 29.2 64 29.4zM 141.8 31C 143.3 31 143.3 31.2 142 32C 139.4 33.7 138.1 33.2 138.8 30.8C 139.1 29.6 139.5 29.1 139.8 29.8C 140 30.4 140.9 31 141.8 31zM 180.5 32C 180 32.8 179.4 32.8 178.8 32.2C 178.2 31.6 178.1 30.6 178.5 30C 179 29.2 179.6 29.2 180.2 29.8C 180.8 30.4 180.9 31.4 180.5 32zM 42.5 31C 42.8 31.5 42.6 32 42.1 32C 41.5 32 41 31.5 41 31C 41 30.4 41.2 30 41.4 30C 41.7 30 42.2 30.4 42.5 31zM 89 30.4C 89 30.7 88.6 31.2 88 31.5C 87.5 31.8 87 31.6 87 31.1C 87 30.5 87.5 30 88 30C 88.6 30 89 30.2 89 30.4zM 105.3 32C 105 33.1 104.6 34 104.4 34C 104.2 34 104 33.1 104 32C 104 30.9 104.4 30 104.9 30C 105.4 30 105.6 30.9 105.3 32zM 148.7 35.2C 148.5 36.5 148.3 35.7 148.3 33.5C 148.2 31.3 148.4 30.3 148.7 31.2C 148.9 32.2 148.9 34 148.7 35.2zM 56.4 36.2C 57.5 37.2 59.5 38 60.8 38C 63.2 38 63.6 39 62 40.6C 61.4 41.2 61.4 42.8 62 45C 63.1 48.7 62.4 50.4 60.9 47.7C 59.6 45.4 56.9 45.4 57.6 47.7C 57.8 48.7 57.5 48.5 56.9 47.3C 55.5 44.6 56.4 42 59 41.3C 60.1 41 61 40.3 61 39.8C 61 39.2 60.3 39.1 59.4 39.4C 58.5 39.7 57 40 56 40C 54.7 40 54.3 40.5 54.7 41.9C 55 42.9 54.8 44 54.3 44.3C 53.8 44.6 53.5 43.2 53.6 41.2C 53.7 35.6 53.1 33.7 51.4 35.1C 49.7 36.5 49.6 35.6 51.2 33C 52.4 31.2 52.5 31.2 53.4 32.8C 53.9 33.7 55.2 35.3 56.4 36.2zM 123.1 33.3C 122.1 34.2 122 34.1 122.6 32.7C 122.9 31.7 123.5 31.2 123.8 31.5C 124.1 31.8 123.8 32.6 123.1 33.3zM 131.1 32.9C 132.5 34.5 132.6 35 131.3 37.1C 129.9 39.5 129.9 39.5 130.3 37.3C 130.6 36 130.4 34.7 129.9 34.4C 129.1 33.9 128.6 31 129.3 31C 129.4 31 130.3 31.8 131.1 32.9zM 203.4 33.3C 204 34.2 204.1 35.2 203.7 35.6C 202.8 36.6 200.7 34.5 200.4 32.5C 200.1 30.5 202 31 203.4 33.3zM 221 32.5C 220.3 33.4 219.5 33.8 219.3 33.6C 218.6 32.9 220 31 221.2 31C 221.8 31 221.8 31.6 221 32.5zM 231.4 32.5C 231.7 33.3 231.5 34 231 34C 230.4 34 230 33.3 230 32.5C 230 31.7 230.2 31 230.4 31C 230.6 31 231 31.7 231.4 32.5zM 60.8 35.9C 59.3 36.4 58.9 35.5 59.7 33.5C 60.3 31.7 60.4 31.7 61 33.6C 61.4 34.6 61.3 35.7 60.8 35.9zM 85 35.9C 85 37.1 84.8 37.2 84.1 36.2C 83.4 35.1 83.1 35.2 82.6 36.5C 82.3 37.4 82.2 38.6 82.6 39.1C 82.9 39.6 82.6 40 81.9 40C 81.2 40 81 39.1 81.4 37.7C 81.7 36.5 82 34.7 82 33.6C 82 32.1 82.3 32 83.5 33C 84.3 33.7 85 35 85 35.9zM 99.5 36.3C 98.7 38.4 97.8 40 97.6 40C 96.9 40 98.3 34.5 99.3 33.2C 101 31.1 101.1 32.5 99.5 36.3zM 160.8 33.2C 161.3 33.9 161.5 35.3 161.1 36.2C 160.5 37.8 160.2 37.8 157.7 35.6C 156.2 34.3 155 33 155 32.6C 155 31.5 159.7 32 160.8 33.2zM 168.4 33.5C 168 34.3 167.3 34.7 166.8 34.4C 166.2 34 166.3 33.4 167.1 32.9C 169 31.7 169 31.8 168.4 33.5zM 235.7 34.2C 235.4 35 235.1 34.7 235.1 33.6C 235 32.5 235.3 31.9 235.6 32.3C 235.9 32.6 236 33.5 235.7 34.2zM 241 33C 241 33.5 240.8 34 240.6 34C 240.3 34 239.8 33.5 239.5 33C 239.2 32.4 239.4 32 239.9 32C 240.5 32 241 32.4 241 33zM 95 33.4C 95 33.7 94.6 34.2 94 34.5C 93.5 34.8 93 34.6 93 34.1C 93 33.5 93.5 33 94 33C 94.6 33 95 33.2 95 33.4zM 136.4 35.1C 136.1 35.6 135.4 35.8 134.9 35.4C 134.4 35.1 134.2 34.4 134.6 33.9C 134.9 33.4 135.6 33.2 136.1 33.6C 136.6 33.9 136.8 34.6 136.4 35.1zM 180.3 35.6C 179.6 37.4 177 37.4 177 35.7C 177 33.8 178 33 179.5 33.7C 180.3 33.9 180.6 34.8 180.3 35.6zM 215.7 34.2C 216.1 34.9 216.6 36.5 216.8 37.8L 217.1 40.1L 215 38C 212.9 35.9 212.3 33 213.9 33C 214.5 33 215.2 33.6 215.7 34.2zM 29.3 36C 29.6 37.1 29.4 37.8 28.9 37.4C 28.4 37.1 28 36.2 28 35.4C 28 33.4 28.7 33.7 29.3 36zM 71.7 34.6C 71.4 35 71.7 36.2 72.5 37.4C 74.4 40 74.4 41 72.5 41C 71.7 41 71 40.1 71 39C 71 37.9 70.6 37 70 37C 69.5 37 69.3 36.3 69.6 35.5C 70 34.7 70.7 34 71.3 34C 71.9 34 72 34.3 71.7 34.6zM 120 35C 120 35.5 119.8 36 119.6 36C 119.3 36 118.8 35.5 118.5 35C 118.2 34.4 118.4 34 118.9 34C 119.5 34 120 34.4 120 35zM 174.2 36.2C 173.5 36.9 173 37 173 36.4C 173 35 174.2 33.8 174.9 34.5C 175.1 34.8 174.8 35.6 174.2 36.2zM 186.3 36.1C 185.9 37.6 185.4 37.8 184.6 37C 183.8 36.2 183.9 35.7 185 35C 185.8 34.5 186.6 34 186.7 34C 186.7 34 186.6 34.9 186.3 36.1zM 221 36.1C 220.3 37.2 219.6 37.9 219.3 37.6C 219 37.3 219.3 36.4 220 35.5C 221.8 33.4 222.3 33.6 221 36.1zM 228.8 35.1C 228.6 35.7 228.1 36.1 227.7 36.1C 227.3 36 226.3 36 225.4 36C 224.6 36 224.2 35.5 224.5 35C 225.3 33.7 229.3 33.7 228.8 35.1zM 37 37.5C 38.3 38.9 39.1 40 38.8 40C 38.6 40 37.3 38.9 36 37.5C 34.7 36.1 33.9 35 34.2 35C 34.4 35 35.7 36.1 37 37.5zM 42.5 36.1C 43.7 37.9 42.2 38.3 40.5 36.6C 39.1 35.2 39.1 35 40.4 35C 41.2 35 42.2 35.5 42.5 36.1zM 75.3 37C 75.6 38.1 75.6 39 75.4 39C 75.2 39 74.6 38.1 74 37C 73.4 35.9 73.3 35 73.8 35C 74.4 35 75 35.9 75.3 37zM 92.7 37C 93.6 38.3 93.7 39.6 93 41.2C 92 43.3 92 43.3 92.5 40.7C 92.8 39 92.7 38.1 92.2 38.4C 91.6 38.7 91 38.1 90.7 37C 90 34.4 91.2 34.4 92.7 37zM 112.3 36.5C 112 37.4 111.5 37.9 111.3 37.6C 111 37.3 111.1 36.7 111.5 36.1C 112.4 34.5 113 34.8 112.3 36.5zM 242 35.4C 242 36.5 240.1 36.9 239.5 36C 239.2 35.5 239.6 35 240.4 35C 241.3 35 242 35.2 242 35.4zM 248 35.4C 248 35.7 247.6 36.2 247 36.5C 246.5 36.8 246 36.6 246 36.1C 246 35.5 246.5 35 247 35C 247.6 35 248 35.2 248 35.4zM 67 38.1C 67 38.7 66.6 38.8 66 38.5C 65.5 38.2 65 37.4 65 36.9C 65 36.3 65.5 36.2 66 36.5C 66.6 36.8 67 37.6 67 38.1zM 236 37C 236 37.5 235.5 38 234.9 38C 234.4 38 234.2 37.5 234.5 37C 234.8 36.4 235.3 36 235.6 36C 235.8 36 236 36.4 236 37zM 87 38C 87 38.5 86.5 39 85.9 39C 85.4 39 85.2 38.5 85.5 38C 85.8 37.4 86.3 37 86.6 37C 86.8 37 87 37.4 87 38zM 146 37.8C 146 38.3 145.3 38.7 144.5 38.7C 143.7 38.7 143 38.3 143 37.8C 143 37.4 143.7 37 144.5 37C 145.3 37 146 37.4 146 37.8zM 196 39C 194.9 39.7 194.8 40.1 196 41.4C 197.1 42.8 197 43 195.6 42.4C 193.7 41.7 193.4 38.4 195.3 37.7C 197.1 37.1 197.7 38 196 39zM 227.3 38.3C 227.6 39.1 227.4 40.3 226.9 41.1C 226.4 42 226 42 226 41.3C 226 40.7 225.7 39.5 225.4 38.6C 225.1 37.7 225.2 37 225.8 37C 226.3 37 227 37.6 227.3 38.3zM 233 38C 233 38.5 232.8 39 232.6 39C 232.3 39 231.8 38.5 231.5 38C 231.2 37.4 231.4 37 231.9 37C 232.5 37 233 37.4 233 38zM 25.4 40.1C 25.1 40.6 24.4 40.8 23.9 40.4C 23.4 40.1 23.2 39.4 23.6 38.9C 23.9 38.4 24.6 38.2 25.1 38.6C 25.6 38.9 25.8 39.6 25.4 40.1zM 155 40.9C 154.4 42.1 153.5 42.8 153 42.5C 152.5 42.2 152.8 41.1 153.7 40C 155.8 37.6 156.5 38.1 155 40.9zM 167 38.6C 167 39.4 165.1 39.9 164.6 39.2C 164.3 38.7 164.7 38.3 165.5 38.3C 166.3 38.3 167 38.5 167 38.6zM 180.4 40.5C 180 41.3 179.4 41.8 178.9 41.5C 178.5 41.2 178.3 40.3 178.6 39.5C 179 38.7 179.6 38.2 180.1 38.5C 180.5 38.8 180.7 39.7 180.4 40.5zM 32.5 40C 32.2 40.5 31.2 41 30.4 41C 29.6 41 29 40.5 29 40C 29 39.4 29.9 39 31.1 39C 32.2 39 32.8 39.4 32.5 40zM 36 41C 36 41.5 35.6 42 35 42C 34.5 42 34 41.5 34 41C 34 40.4 34.5 40 35 40C 35.6 40 36 40.4 36 41zM 114.1 42.3C 113.1 43.2 113 43.1 113.6 41.7C 113.9 40.7 114.5 40.2 114.8 40.5C 115.1 40.8 114.8 41.6 114.1 42.3zM 127.8 42C 129 43.9 128.9 44 127 42.8C 125.9 42.1 125 41.2 125 40.8C 125 39.3 126.5 40 127.8 42zM 140 41.5C 140 41 140.3 40.9 140.6 41.2C 140.9 41.5 140 42.9 138.6 44.3C 137.2 45.8 136 46.5 136 46C 136 45.5 136.5 44.8 137.1 44.4C 137.9 43.9 137.9 43.5 137 43C 136.3 42.6 136.1 41.7 136.5 41.1C 137 40.2 137.5 40.2 138.6 41.1C 139.4 41.7 140 41.9 140 41.5zM 144 41.6C 144 42.4 143.6 42.8 143 42.5C 142.5 42.2 142 41.5 142 40.9C 142 40.4 142.5 40 143 40C 143.6 40 144 40.7 144 41.6zM 162.5 41C 162.2 41.5 162.4 42 162.9 42C 163.5 42 164 42.5 164 43.1C 164 43.9 163.5 43.9 162.5 43C 161.2 41.9 161.3 40 162.6 40C 162.9 40 162.8 40.4 162.5 41zM 171.1 42.3C 170.1 43.2 170 43.1 170.6 41.7C 170.9 40.7 171.5 40.2 171.8 40.5C 172.1 40.8 171.8 41.6 171.1 42.3zM 176.6 43.7C 176.3 44.1 176 43.8 176 43C 176 42 175.7 42 174.5 43C 172.7 44.5 172.5 42.9 174.2 41.2C 175.1 40.3 175.6 40.3 176.3 41.6C 176.8 42.4 176.9 43.4 176.6 43.7zM 188.2 42.2C 187.5 42.9 187 43 187 42.4C 187 41 188.2 39.8 188.9 40.5C 189.1 40.8 188.8 41.6 188.2 42.2zM 245.4 41.6C 245.7 42.4 245.6 42.8 245 42.5C 244.4 42.2 244 41.5 244 40.9C 244 39.5 244.7 39.8 245.4 41.6zM 68.7 43.6C 68.9 44.9 68.8 45.1 68.3 44C 68 43.2 67.2 42.1 66.6 41.7C 65.9 41.1 66 41 67 41.3C 67.8 41.5 68.6 42.5 68.7 43.6zM 107.6 41.9C 107.2 42.4 107.6 43.1 108.2 43.3C 109 43.6 108.8 43.9 107.8 43.9C 106 44 105.4 42.9 106.7 41.7C 107.6 40.7 108.2 40.9 107.6 41.9zM 117.2 43.2C 116.5 43.9 116 44 116 43.4C 116 42 117.2 40.8 117.9 41.5C 118.1 41.8 117.8 42.6 117.2 43.2zM 168.4 42.5C 167.8 44.1 166 44.6 166 43.2C 166 42.1 167.1 41 168.1 41C 168.6 41 168.7 41.7 168.4 42.5zM 215.3 42.5C 215 43.4 214.5 43.9 214.3 43.6C 214 43.3 214.1 42.7 214.5 42.1C 215.4 40.5 216 40.8 215.3 42.5zM 40 43C 40 43.5 39.8 44 39.6 44C 39.3 44 38.8 43.5 38.5 43C 38.2 42.4 38.4 42 38.9 42C 39.5 42 40 42.4 40 43zM 99.3 45.2C 97 49.2 95.4 49.7 93.9 46.8C 93 44.9 93 44.7 94.1 45.7C 95.7 47.3 97 47.4 97 45.9C 97 44.9 99.8 42.1 100.8 42C 101 42 100.4 43.4 99.3 45.2zM 148 42.9C 148 43.4 147.3 44.3 146.5 45C 144.9 46.4 144.7 46 145.6 43.6C 146.2 41.9 148 41.4 148 42.9zM 218.4 44.7C 217.5 48.6 216 49.9 216 46.9C 216 44.8 217.6 42 218.7 42C 218.9 42 218.7 43.2 218.4 44.7zM 242.5 43C 242.1 43.6 242.4 44.7 243 45.5C 244 46.7 244 47 243.1 47C 242.3 47 242.1 47.8 242.5 49C 242.8 50.1 242.9 51 242.6 51C 241.8 51 240 43.8 240.6 42.8C 240.9 42.4 241.6 42 242.1 42C 242.7 42 242.8 42.5 242.5 43zM 50.8 44.2C 52.7 46.1 52.2 47.1 50 45.8C 48 44.5 47.3 43 48.8 43C 49.2 43 50.1 43.5 50.8 44.2zM 73.6 45.5C 73.5 48.4 72 49 72 46.2C 72 44.6 72.8 43 73.6 43C 73.7 43 73.7 44.1 73.6 45.5zM 85.4 44.6C 85.7 45.4 85.6 45.8 85 45.5C 84.4 45.2 84 44.5 84 43.9C 84 42.5 84.7 42.8 85.4 44.6zM 211.2 45.2C 210.5 45.9 210 46 210 45.4C 210 44 211.2 42.8 211.9 43.5C 212.1 43.8 211.8 44.6 211.2 45.2zM 226.3 45.1C 225.9 46.7 225.5 46.8 224.9 45.8C 223.6 43.9 223.8 43 225.4 43C 226.3 43 226.6 43.7 226.3 45.1zM 40.1 46.5C 40.4 46.3 40.6 47 40.6 48.1C 40.6 49.9 40.5 50 39.4 48.5C 38.7 47.6 37.7 47.1 37.2 47.4C 36.1 48.1 34.8 45.5 35.7 44.6C 36.1 44.3 37.1 44.7 38 45.5C 38.9 46.3 39.9 46.8 40.1 46.5zM 78.7 47.2C 77.1 48.2 76.6 47.4 77.4 45.3C 78 43.8 78.3 43.8 79 45C 79.6 45.9 79.5 46.7 78.7 47.2zM 121.5 45C 121.8 45.5 121.6 46 121.1 46C 120.5 46 120 45.5 120 45C 120 44.4 120.2 44 120.4 44C 120.7 44 121.2 44.4 121.5 45zM 126.5 45C 126.8 45.5 126.6 46 126.1 46C 125.5 46 125 45.5 125 45C 125 44.4 125.2 44 125.4 44C 125.7 44 126.2 44.4 126.5 45zM 152 44.4C 152 44.6 151.2 45.4 150.3 46.1C 148.7 47.4 148.6 47.3 149.9 45.7C 151.2 44.1 152 43.6001 152 44.4zM 28.5 46C 28.8 46.5 28.4 47 27.6 47C 26.7 47 26 46.5 26 46C 26 45.4 26.4 45 26.9 45C 27.5 45 28.2 45.4 28.5 46zM 154.6 46.5C 153.5 47.3 152.4 47.7 152.1 47.4C 151.5 46.8 154 45 155.5 45C 156.1 45.1 155.6 45.7 154.6 46.5zM 159.5 46C 159.8 46.5 159.7 47 159.1 47C 158.6 47 157.8 46.5 157.5 46C 157.2 45.4 157.3 45 157.9 45C 158.4 45 159.2 45.4 159.5 46zM 180.4 46.5C 180 47.3 179.3 48 178.8 48C 178.2 48 178.3 47.4 179 46.5C 179.7 45.7 180.4 45 180.6 45C 180.8 45 180.7 45.7 180.4 46.5zM 130.8 48.5C 130.5 48.8 129.9 48.3 129.6 47.3C 129 45.9 129.1 45.8 130.1 46.7001C 130.8 47.4 131.1 48.2 130.8 48.5zM 176 46.4C 176 46.6 175.3 47 174.5 47.4C 173.7 47.7001 173 47.5 173 47C 173 46.4 173.7 46 174.5 46C 175.3 46 176 46.2 176 46.4zM 213.8 48.5C 213.5 48.8 212.9 48.3 212.6 47.3C 212 45.9 212.1 45.8 213.1 46.7001C 213.8 47.4 214.1 48.2 213.8 48.5zM 71 50.2C 71 52.1 69.4 50.7 69.3 48.8C 69.1 47 69.3 46.8 70 48C 70.5 48.8 71 49.8 71 50.2zM 142.1 49.7C 140.9 51.7 140.7 51.1 141.6 48.5C 142 47.6 142.5 47.1 142.7 47.4C 143 47.6 142.7 48.7 142.1 49.7zM 188.5 48C 188.8 48.5 188.7 49 188.1 49C 187.6 49 186.8 48.5 186.5 48C 186.2 47.4 186.3 47 186.9 47C 187.4 47 188.2 47.4 188.5 48zM 222.9 50.1C 221.8 50.8 221.7 51.3 222.8 53C 224.3 55.5 224.3 55.7 222.4 56.4C 221.2 56.8 220.9 56.6 221.4 55.5C 221.7 54.5 221.3 54 220.2 54C 218.7 54 218.7 53.8 220 52.9C 221.3 52 221.3 51.8 220.1 51.3C 219 50.9 219.3 50.3 221.1 48.9C 222.6 47.8 223.6 47.5 223.9 48.2001C 224.1 48.8 223.6 49.6 222.9 50.1zM 35 49C 35 49.5 34.8 50 34.6 50C 34.3 50 33.8 49.5 33.5 49C 33.2 48.4 33.4 48 33.9 48C 34.5 48 35 48.4 35 49zM 52 49C 52 49.5 51.4 50 50.6 50C 49.8 50 48.8 49.5 48.5 49C 48.2 48.4 48.8 48 49.9 48C 51.1 48 52 48.4 52 49zM 83.8 51.1C 83.5 51.9 83.1 51.4 82.7 50.1C 82.3 48.4 82.4 48 83.2 48.8C 83.7 49.3 84 50.4 83.8 51.1zM 128.5 49.1C 129.6 50.8 128.4 51.2 127 49.5C 126.2 48.6 126.2 48 126.8 48C 127.4 48 128.2 48.5 128.5 49.1zM 24.7 51.2C 24.4 52 24.1 51.7 24.1 50.6C 24 49.5 24.3 48.9 24.6 49.3C 24.9 49.6 25 50.5 24.7 51.2zM 76.8 50.2C 76.4 52.6 78.1 55.8 80 56.3C 82 56.8 82.8 59 81 59C 80.5 59 80 59.7 80 60.5C 80 61.3 79.6 62 79 62C 78.4 62 78.4 61.1 79 59.6C 79.6 57.8 79.5 57 78.6 56.7C 77 56.1 74 50.4 74.7999 49.6C 75.7999 48.5 77.1 49 76.8 50.2zM 87.6 51.7C 86.9 52.4 85 51 85 49.8C 85 49.2 85.6 49.2 86.5 50C 87.4 50.7 87.8 51.5 87.6 51.7zM 94.8 49.9C 95.8 50.5 95.7 51 94.4 52.1C 93 53.2 92.8 53.2 93.4 52.1C 93.9 51.3 93.7 50.4 92.9 49.9C 92.1 49.4 92 49 92.5 49C 93.1 49 94.1 49.4 94.8 49.9zM 136.3 54C 135.7 54.6 133 51 133 49.6C 133 49 133.9 49.6 135 51C 136 52.4 136.6 53.7 136.3 54zM 150 50C 150 50.5 149.5 51 148.9 51C 148.4 51 148.2 50.5 148.5 50C 148.8 49.4 149.3 49 149.6 49C 149.8 49 150 49.4 150 50zM 203.8 51.6C 202.7 53.9 202.5 54 201.9 52.3C 201.5 51.3 201.1 50.8 200.9 51.2C 200.4 53.3 200.2 54.1 200.1 55C 199.9 56.8 197.8 56.1 197.3 54C 196.9 52.4 196.5 52.2 195.4 53.1C 194.6 53.8 194 53.8 194 53.2C 194 51.7 196.8 49.7 198.3 50.3C 199.1 50.6 200.3 50.4 201.1 49.9C 203.9 48.1 205 48.8 203.8 51.6zM 228 50C 228 50.5 227.6 51 227 51C 226.5 51 226 50.5 226 50C 226 49.4 226.5 49 227 49C 227.6 49 228 49.4 228 50zM 233.1 52.1C 231.9 53.4 231 53.9 231 53.3C 231 51.9 234.1 48.7 234.7 49.4C 235 49.7 234.3 50.9 233.1 52.1zM 44.9 53.9C 44.8 55.2 44.7 55.2 44.3 53.7C 44.1 52.8 43.4 52 42.9 52C 42.4 52 42 51.5 42 50.9C 42 50.1 42.5 50.1 43.5 51C 44.3 51.7 44.9 53 44.9 53.9zM 55 51.5C 55 52.3 54.8 53 54.6 53C 54.4 53 54 52.3 53.6 51.5C 53.3 50.7 53.5 50 54 50C 54.6 50 55 50.7 55 51.5zM 60 51C 60 51.5 59.5 52 58.9 52C 58.4 52 58.2 51.5 58.5 51C 58.8 50.4 59.3 50 59.6 50C 59.8 50 60 50.4 60 51zM 167 51.5C 167.7 52.3 167.8 53 167.2 53C 166.7 53 165.7 52.3 165 51.5C 164.3 50.7 164.2 50 164.8 50C 165.3 50 166.3 50.7 167 51.5zM 211 53.6C 211 54.3 210 55.6 208.9 56.4C 207.5 57.3 207 58.5 207.4 59.5C 207.7 60.4 207.6 60.8 207 60.5C 205.4 59.5 205.9 57.1 208 55.8C 210.3 54.3 210.7 52.8 208.5 53.6C 206.8 54.3 206.7 53.9 207.6 51.6C 208.1 50.3 208.5 50.2 209.6 51.1C 210.4 51.7 211 52.8 211 53.6zM 214 51C 214 51.5 213.8 52 213.6 52C 213.3 52 212.8 51.5 212.5 51C 212.2 50.4 212.4 50 212.9 50C 213.5 50 214 50.4 214 51zM 7.79997 57.7L 7.49997 64.5L 4.49997 64.5L 1.49997 64.5L 1.19997 57.7L 0.899972 51L 4.49997 51L 8.09997 51L 7.79997 57.7zM 64.3 52.5C 64.4 53 63.7 53.6 62.8 53.8C 61.7 54 61 53.5 61 52.5C 61 50.8 64 50.7 64.3 52.5zM 145.5 52C 145.2 52.5 144.4 53 143.9 53C 143.3 53 143.2 52.5 143.5 52C 143.8 51.4 144.6 51 145.1 51C 145.7 51 145.8 51.4 145.5 52zM 162 52C 162 52.5 161.6 53 161 53C 160.5 53 160 52.5 160 52C 160 51.4 160.5 51 161 51C 161.6 51 162 51.4 162 52zM 254.3 51.7C 253.6 51.9 252.2 51.9 251.3 51.7C 250.3 51.4 250.9 51.2 252.5 51.2C 254.2 51.2 254.9 51.4 254.3 51.7zM 21.5 53C 21.9 53.6 20.7 54 18.6 54C 15.3 54 15 54.2 15 57C 15 58.6 14.6 60 14.1 60C 13.2 60 12.1 53.3 12.9 52.5C 13.8 51.6 20.9 52 21.5 53zM 88 55.2C 88 57 87.8 57.2 87.1 56C 86.5 55.2 86.4 54.2 86.6 53.8C 87.5 52.4 88 52.9 88 55.2zM 251.4 53.6C 252.3 53.9 253 55.3 253 56.6C 253 58.8 252.8 58.9 251 57.8C 249.9 57.1 249.5 56.3 250 56.2C 250.7 55.9 250.7 55.3 249.9 54.4C 248.6 52.9 249 52.7 251.4 53.6zM 254.7 56.7C 254.4 57.7 254.2 57.1 254.2 55.5C 254.2 53.8 254.4 53.1 254.7 53.7C 254.9 54.4 254.9 55.8 254.7 56.7zM 32.8 56C 32.1 57.1 31.1 58 30.6 58C 30.1 58 30.5 57.1 31.5 56C 32.5 54.9 33.5 54 33.7 54C 33.9 54 33.5 54.9 32.8 56zM 69.4 56.4C 68.8 57.9 65 57.4 65 55.8C 65 55.2 65.7 55 66.5 55.4C 67.3 55.7 68 55.5 68 54.9C 68 54.3 68.4 54.1 69 54.5C 69.5 54.8 69.7 55.7 69.4 56.4zM 227.2 57.2C 226.3 58.1 226 57.9 226 56C 226 54.1 226.3 53.9 227.2 54.8C 228.1 55.7001 228.1 56.3 227.2 57.2zM 164.1 56.7C 165.4 58.3 165.3 58.4 163.8 57.1C 162.1 55.8 161.6 55 162.4 55C 162.6 55 163.4 55.8 164.1 56.7zM 231.2 57.9C 230.3 59.5 229.2 60.6 228.7 60.3C 228.2 60 228.9 58.7 230.1 57.4C 233 54.3 233.3 54.4 231.2 57.9zM 22.3 56.7C 21.6 56.9 20.2 56.9 19.3 56.7C 18.3 56.4 18.9 56.2 20.5 56.2C 22.2 56.2 22.9 56.4 22.3 56.7zM 75.5 57C 75.8 57.5 75.6 58 75.1 58C 74.5 58 74 57.5 74 57C 74 56.4 74.2 56 74.4 56C 74.7 56 75.2 56.4 75.5 57zM 109.5 58.6C 112.4 61.7 112.5 62.1 110.6 61.4C 109.7 61.1 109 61.9 108.5 63.7001C 107.9 65.8 107.6 66.1001 107.3 64.7001C 107 63.8 106.4 63.2001 105.9 63.5001C 105.4 63.9001 105 63.7001 105 63.1001C 105 62.6001 105.7 61.7001 106.6 61.2001C 107.9 60.5001 108 59.9 107.1 58.1001C 105.5 55.2001 106.6 55.4 109.5 58.6zM 125.4 59.2C 124.4 60.4 124.1 61 124.9 60.5C 125.8 60 126.1 60.2 125.8 61C 125.1 63.1 123 63.4 123 61.4C 123 59.5 126 55.7001 126.8 56.5C 127.1 56.8 126.5 58 125.4 59.2zM 186.7 59.5C 186 60.2 185.3 60.5 185 60.2C 184.7 59.8 184.1 59.1 183.5 58.7C 182.9 58.2 183.2 58 184.3 58.4C 185.5 58.8 186 58.4 186 57.2C 186 55.8 186.2 55.8 186.9 56.9C 187.5 57.8 187.4 58.8 186.7 59.5zM 197 58.1C 197 58.7 196.6 58.9 196.1 58.5C 195.6 58.2 194.9 58.4 194.5 58.9C 194.2 59.5 193.3 59.7001 192.5 59.3C 191.7 59 191 59.4 191 60.1001C 191 60.8 190.7 61.0001 190.4 60.7001C 190 60.3 190.3 59.3 191 58.5001C 192 57.2001 192.5 57.2001 193.1 58.2001C 193.7 59.1001 194.1 59.0001 194.6 57.7001C 195.2 56.0001 197 56.3 197 58.1zM 234.7 58.2C 234.4 59 234.1 58.7 234.1 57.6C 234 56.5 234.3 55.9 234.6 56.3C 234.9 56.6 235 57.5 234.7 58.2zM 121.3 58.5C 121 59.4 120.5 59.9 120.3 59.6C 120 59.3 120.1 58.7 120.5 58.1C 121.4 56.5 122 56.8 121.3 58.5zM 141.5 58C 141.8 58.5 141.6 59 141.1 59C 140.5 59 140 58.5 140 58C 140 57.4 140.2 57 140.4 57C 140.7 57 141.2 57.4 141.5 58zM 146.3 58.4C 146.6 59.2001 146.1 60.5 145.1 61.4C 142.6 63.7001 141.3 63.4 143.4 61.1C 144.4 60 144.9 58.6 144.5 58.1C 144.2 57.5 144.3 57 144.8 57C 145.4 57 146 57.6 146.3 58.4zM 172.4 58.6C 172.7 59.5 173.9 60 175.2 59.8C 176.8 59.6 177.5 60.1 177.8 61.5C 178 63 177.9 63.1 177.2 62.2C 176.5 61.1 176.1 61.2 175.6 62.5C 175.3 63.5 175.4 64.8 176 65.5C 176.9 66.6 176.7 66.7 175 66.3C 173.5 65.9 173.1 65.2 173.5 63.9C 173.9 62.8 173.7 62 173.1 62C 172.5 62 172 61.4 172 60.7C 172 59.9 171 58.8 169.8 58.2C 167.5 57.1 167.5 57.1 169.6 57.1C 170.8 57 172.1 57.7 172.4 58.6zM 177 57.4C 177 57.6 176.3 58.1 175.4 58.4C 174.6 58.7001 174.2 58.6 174.5 58C 175.1 57 177 56.6 177 57.4zM 216.9 58.7001C 216.9 59.8 216.6 60.0001 216.3 59.2001C 216.1 58.6001 215.4 58.2001 214.9 58.6001C 214.4 58.9001 214 58.6001 214 58.1001C 214 57.5001 214.7 57.0001 215.5 57.0001C 216.3 57.0001 217 57.8001 216.9 58.7001zM 247 58.6001C 247 59.4001 246.5 59.8 246 59.5001C 245.4 59.1001 245.2 58.4001 245.5 57.9001C 246.4 56.5001 247 56.8001 247 58.6001zM 40.3 60.0001C 40 61.1001 39.4 62.2001 39 62.5001C 38.6 62.8001 38.4 64.5001 38.7 66.4001C 39 68.5001 38.7 70.1001 37.9 70.6001C 37 71.1001 36.9 70.8 37.3 69.7001C 37.6 68.8 37.4 68.0001 36.7 67.7001C 35.9 67.5001 36 66.4 37 63.9C 39 58.8 41.3 56.1001 40.3 60.0001zM 87 58.3001C 87 58.5001 86 59.5001 84.9 60.6001C 82.7 62.5001 82.7 62.5001 83.9 60.2001C 84.9 58.4001 87 57.1001 87 58.3001zM 138 59.9001C 139.6 62.9001 139.2 63.7001 137.4 61.1001L 135.8 58.9001L 133.4 61.1001C 131.8 62.6001 131.4 63.6001 132.1 64.0001C 132.8 64.5001 132.6 64.9001 131.6 65.3001C 129 66.3001 129 64.6001 131.8 61.2001C 134.8 57.5001 136.5 57.2001 138 59.9001zM 181 60.1001C 181 60.7001 180.6 60.8 180 60.5001C 179.5 60.2001 179 59.4001 179 58.9001C 179 58.3001 179.5 58.2001 180 58.5001C 180.6 58.8001 181 59.6001 181 60.1001zM 242.5 59.0001C 242.2 59.5001 241.3 60.0001 240.7 60.0001C 240 60.0001 240.1 59.6001 241 59.0001C 242.9 57.8001 243.3 57.8001 242.5 59.0001zM 20 61.0001C 20 62.1001 19.6 63.0001 19.1 63.0001C 18.6 63.0001 18.4 62.1001 18.7 61.0001C 19 59.9001 19.4 59.0001 19.6 59.0001C 19.8 59.0001 20 59.9001 20 61.0001zM 52.4 61.5001C 51.2 62.4001 51 62.9001 51.8 63.0001C 52.5 63.0001 52.8 63.5001 52.5 64.1001C 51.6 65.4001 51 64.8 50.5 62.1001C 50.3 60.9001 50.5 60.2001 51 60.5001C 51.5 60.8001 52.2 60.5001 52.5 59.9001C 52.9 59.4001 53.5 59.1001 53.8 59.4001C 54.1 59.8001 53.5 60.7001 52.4 61.5001zM 23.8 61.8001C 24.4 63.6001 22.3 63.2001 21.6 61.4001C 21.2 60.4001 21.5 60.0001 22.2 60.2001C 22.8 60.4001 23.6 61.2001 23.8 61.8001zM 33 61.0001C 33 61.5001 32.5 62.0001 31.9 62.0001C 31.4 62.0001 31.2 61.5001 31.5 61.0001C 31.8 60.4001 32.3 60.0001 32.6 60.0001C 32.8 60.0001 33 60.4001 33 61.0001zM 71 60.3001C 71 60.5001 69.8 61.7001 68.3 63.1001C 65.9 65.3001 66 64.2001 68.5 61.3001C 69.4 60.2001 71 59.6001 71 60.3001zM 163.7 61.5001C 164.6 64.0001 163.3 64.4001 162 62.1001C 161.3 60.6001 161.3 60.0001 162 60.0001C 162.6 60.0001 163.3 60.7001 163.7 61.5001zM 170 62.8001C 170 64.3001 169.8 64.3001 169 63.0001C 167.7 61.0001 167.7 59.7001 169 60.5001C 169.6 60.8001 170 61.9001 170 62.8001zM 243.7 63.2001C 243.4 63.9001 243.2 63.4001 243.2 62.0001C 243.2 60.6001 243.4 60.1001 243.7 60.7001C 243.9 61.4001 243.9 62.6001 243.7 63.2001zM 16 64.0001C 17.2 66.3001 17.2 66.4001 15.7 65.1001C 14.7 64.4001 14 63.1001 14 62.2001C 14 60.4001 14.3 60.6001 16 64.0001zM 218.7 63.2001C 219.4 63.8001 220 64.7001 220 65.2001C 220 65.8001 219.3 65.7001 218.5 65.0001C 217.5 64.1001 217 64.1001 217 64.9001C 217 65.5001 216.6 66.0001 216 66.0001C 215.5 66.0001 215 65.1001 215 64.0001C 215 61.7001 214 61.4001 212.2 63.2001C 211.5 63.9001 211 64.0001 211 63.4001C 211 60.7001 215.7 60.6001 218.7 63.2001zM 224.4 63.4001C 224.1 64.3001 223.4 65.0001 222.9 65.0001C 222.4 65.0001 222.5 64.1001 223.2 63.0001C 224.6 60.8001 225.3 61.0001 224.4 63.4001zM 262 64.0001C 261.4 65.2001 260.6 66.0001 260.3 65.7001C 260.1 65.4 260.4 64.3 261.1 63.1001C 262.8 60.5001 263.5 61.2001 262 64.0001zM 57 62.4001C 57 62.7001 56.6 63.2001 56 63.5001C 55.5 63.8001 55 63.6001 55 63.1001C 55 62.5001 55.5 62.0001 56 62.0001C 56.6 62.0001 57 62.2001 57 62.4001zM 91.5 63.0001C 91.8 63.6001 91.4 63.7001 90.6 63.4001C 89.7 63.0001 88.8 63.5001 88.4 64.4001C 88.1 65.3001 87.3 66.0001 86.7 66.0001C 86.2 66.0001 86.5 65.1001 87.5 64.0001C 89.5 61.8001 90.6 61.5001 91.5 63.0001zM 101 62.9001C 101 64.6001 99.2 65.0001 98.6 63.5001C 98.3 62.6001 98.6 62.0001 99.5 62.0001C 100.3 62.0001 101 62.4001 101 62.9001zM 148 64.1001C 147.3 65.2001 146.6 65.9001 146.3 65.6001C 146 65.3 146.3 64.4001 147 63.5001C 148.8 61.4001 149.3 61.6001 148 64.1001zM 183 63.0001C 183 63.5001 182.6 64.0001 182.1 64.0001C 181.5 64.0001 180.8 63.5001 180.5 63.0001C 180.2 62.4001 180.6 62.0001 181.4 62.0001C 182.3 62.0001 183 62.4001 183 63.0001zM 206.3 68.9001C 205.7 69.8001 203.1 65.4001 203 63.5001C 203 62.1001 203.5 62.5001 204.8 65.0001C 205.8 66.9001 206.5 68.7001 206.3 68.9001zM 247.2 64.2001C 246.5 64.9001 246 65.0001 246 64.4001C 246 63.0001 247.2 61.8001 247.9 62.5001C 248.1 62.8001 247.8 63.6001 247.2 64.2001zM 78.5 64.0001C 78.8 64.5001 78.7 65.0001 78.1 65.0001C 77.6 65.0001 76.8 64.5001 76.5 64.0001C 76.2 63.4001 76.3 63.0001 76.9 63.0001C 77.4 63.0001 78.2 63.4001 78.5 64.0001zM 198 64.5001C 197.3 65.3001 196.3 66.0001 195.8 66.0001C 195.2 66.0001 195.3 65.3001 196 64.5001C 196.7 63.7001 197.7 63.0001 198.2 63.0001C 198.8 63.0001 198.7 63.7001 198 64.5001zM 60.4 67.1001C 60.1 67.6001 58.9 67.8001 57.8 67.4001C 56 66.9001 55.8 67.1001 56.2 69.9001C 56.5 71.7001 56.3 73.3001 55.8 73.6001C 55.4 73.9001 55 73.2001 55 72.1001C 55 69.7001 54.6 69.6001 51.9 71.0001C 50.5 71.8001 50 71.7001 50 70.8001C 50 69.9001 49.7 69.9001 48.8 70.8001C 48.1 71.5001 47.1 72.0001 46.6 72.0001C 45.8 72.0001 45.8 71.7001 46.6 71.2001C 47.1 70.8001 48.4 69.4001 49.3 68.0001C 51 65.6001 51 65.6001 51 67.8001C 51 69.0001 51.4 70.0001 52 70.0001C 53.1 70.0001 57 66.0001 57 64.8001C 57 64.3001 57.9 64.4001 59 65.0001C 60.1 65.6001 60.8 66.5001 60.4 67.1001zM 72.4 67.0001C 71.8 67.6001 71.4 67.3001 71.4 66.0001C 71.4 64.7001 71.8 64.4001 72.4 65.0001C 73.1 65.7001 73.1 66.3001 72.4 67.0001zM 236.6 65.2001C 237 65.8001 236.9 66.0001 236.3 65.7001C 235.7 65.3001 234.8 66.2001 234.1 67.7001C 233.5 69.1001 232.6 70.0001 232.3 69.6001C 231.5 68.9001 234 64.0001 235.1 64.0001C 235.5 64.0001 236.2 64.5001 236.6 65.2001zM 265 64.4001C 265 64.7001 264.6 65.2001 264 65.5001C 263.5 65.8001 263 65.6001 263 65.1001C 263 64.5001 263.5 64.0001 264 64.0001C 264.6 64.0001 265 64.2001 265 64.4001zM 68.6 68.2001C 66.8 70.8001 66.4 69.9001 68.1 66.8001C 68.7 65.7001 69.4 65.1001 69.7 65.3001C 70 65.6001 69.5 66.9001 68.6 68.2001zM 125.6 68.5001C 125.2 69.9001 124.5 70.8001 124.1 70.5001C 123.6 70.2001 123.7 68.9001 124.3 67.6001C 125.8 64.5001 126.5 65.1001 125.6 68.5001zM 191.4 66.5001C 190.7 68.1001 189 68.6001 189 67.1001C 189 66.3001 189.7 65.8001 191.7 65.1001C 191.8 65.0001 191.7 65.7001 191.4 66.5001zM 2.7 69.7001C 2.4 70.7001 2.2 70.1001 2.2 68.5001C 2.2 66.8001 2.4 66.1001 2.7 66.7001C 2.9 67.4001 2.9 68.8001 2.7 69.7001zM 7 67.0001C 7 67.5001 6.6 68.0001 6.1 68.0001C 5.5 68.0001 4.8 67.5001 4.5 67.0001C 4.2 66.4001 4.6 66.0001 5.4 66.0001C 6.3 66.0001 7 66.4001 7 67.0001zM 31.5 69.8001C 31.1 70.8001 30.6 71.1001 30.2 70.4001C 29.8 69.8001 28.8 69.0001 28 68.7001C 27 68.3001 27.2 68.1001 28.8 68.1001C 30 68.0001 31 67.4001 31.1 66.7001C 31.1 65.8001 31.3 65.8001 31.7 66.8001C 32 67.5001 31.9 68.8001 31.5 69.8001zM 120 66.9001C 120 67.5001 119.6 68.1001 119.2 68.4001C 118.7 68.7001 118.3 68.3001 118.3 67.5001C 118.3 66.7001 118.7 66.0001 119.2 66.0001C 119.6 66.0001 120 66.4001 120 66.9001zM 153 66.4001C 153 66.7001 152.6 67.2001 152 67.5001C 151.5 67.8001 151 67.6001 151 67.1001C 151 66.5001 151.5 66.0001 152 66.0001C 152.6 66.0001 153 66.2001 153 66.4001zM 226.8 68.9001C 226.1 70.1001 225.2 71.0001 224.7 71.0001C 224.3 71.0001 224.7 69.9001 225.7 68.6001C 227.9 65.7001 228.7 65.9001 226.8 68.9001zM 35 68.0001C 35 68.5001 34.5 69.0001 33.9 69.0001C 33.4 69.0001 33.2 68.5001 33.5 68.0001C 33.8 67.4001 34.3 67.0001 34.6 67.0001C 34.8 67.0001 35 67.4001 35 68.0001zM 83 68.0001C 83 68.5001 82.8 69.0001 82.6 69.0001C 82.3 69.0001 81.8 68.5001 81.5 68.0001C 81.2 67.4001 81.4 67.0001 81.9 67.0001C 82.5 67.0001 83 67.4001 83 68.0001zM 257 68.0001C 257 68.5001 256.6 69.0001 256.1 69.0001C 255.5 69.0001 254.8 68.5001 254.5 68.0001C 254.2 67.4001 254.6 67.0001 255.4 67.0001C 256.3 67.0001 257 67.4001 257 68.0001zM 15 69.0001C 15 69.5001 14.5 70.0001 13.9 70.0001C 13.4 70.0001 13.2 69.5001 13.5 69.0001C 13.8 68.4001 14.3 68.0001 14.6 68.0001C 14.8 68.0001 15 68.4001 15 69.0001zM 105 72.0001C 103.4 75.1001 102.7 73.8001 104.2 70.5001C 104.9 69.0001 105.6 68.2001 105.8 68.8001C 106 69.4001 105.6 70.9001 105 72.0001zM 177 70.1001C 177 70.7001 176.6 70.8001 176 70.5001C 175.5 70.2001 175 69.4001 175 68.9001C 175 68.3001 175.5 68.2001 176 68.5001C 176.6 68.8001 177 69.6001 177 70.1001zM 115.7 71.2001C 115.4 72.0001 115.1 71.7001 115.1 70.6001C 115 69.5001 115.3 68.9001 115.6 69.3001C 115.9 69.6001 116 70.5001 115.7 71.2001zM 192.4 70.5001C 192 71.3001 191.3 72.0001 190.8 72.0001C 190.2 72.0001 190.3 71.4001 191 70.5001C 191.7 69.7001 192.4 69.0001 192.6 69.0001C 192.8 69.0001 192.7 69.7001 192.4 70.5001zM 196.7 71.2001C 196.4 72.0001 196.1 71.7001 196.1 70.6001C 196 69.5001 196.3 68.9001 196.6 69.3001C 196.9 69.6001 197 70.5001 196.7 71.2001zM 239.9 70.9001C 240.8 72.5001 240.7 72.7001 239 72.3001C 236.9 71.8001 236.5 70.8001 237.7 69.7001C 238.6 68.7001 238.8 68.8001 239.9 70.9001zM 21.2 72.2001C 20.5 72.9001 20 73.0001 20 72.4001C 20 71.0001 21.2 69.8001 21.9 70.5001C 22.1 70.8001 21.8 71.6001 21.2 72.2001zM 25 71.0001C 25 71.5001 24.8 72.0001 24.6 72.0001C 24.3 72.0001 23.8 71.5001 23.5 71.0001C 23.2 70.4001 23.4 70.0001 23.9 70.0001C 24.5 70.0001 25 70.4001 25 71.0001zM 92 71.9001C 92 73.0001 92.8 74.1001 93.8 74.4001C 94.7 74.6001 93.9 74.8001 92 74.7001C 89.4 74.5001 88.4 74.0001 88.2 72.5001C 87.9 70.8001 88.1 70.8001 88.9 72.0001C 89.8 73.3001 90 73.3001 90 71.7001C 90 70.8001 90.5 70.0001 91 70.0001C 91.6 70.0001 92 70.9001 92 71.9001zM 99 70.4001C 99 70.7001 98.6 71.2001 98 71.5001C 97.5 71.8001 97 71.6001 97 71.1001C 97 70.5001 97.5 70.0001 98 70.0001C 98.6 70.0001 99 70.2001 99 70.4001zM 102 71.0001C 102 71.5001 101.5 72.0001 100.9 72.0001C 100.4 72.0001 100.2 71.5001 100.5 71.0001C 100.8 70.4001 101.3 70.0001 101.6 70.0001C 101.8 70.0001 102 70.4001 102 71.0001zM 185.9 74.4001C 185 75.2001 184.9 75.1001 185.4 73.7001C 185.7 72.7001 186.1 71.3001 186.1 70.7001C 186.2 70.0001 186.4 70.3001 186.7 71.4001C 187 72.4001 186.6 73.7001 185.9 74.4001zM 17 72.5001C 16.3 73.3001 15.2 74.0001 14.6 74.0001C 14 74.0001 14.4 73.3001 15.4 72.5001C 17.9 70.6001 18.6 70.6001 17 72.5001zM 80.9 71.7001C 80.9 72.7001 75 77.4001 75 76.5001C 75 75.2001 78.6 71.1001 79.8 71.0001C 80.4 71.0001 81 71.3001 80.9 71.7001zM 120.4 72.5001C 120 73.3001 119.3 73.7001 118.8 73.4001C 118.2 73.0001 118.3 72.4001 119.1 71.9001C 121 70.7001 121 70.8001 120.4 72.5001zM 166 71.4001C 166 72.5001 164.1 72.9001 163.5 72.0001C 163.2 71.5001 163.6 71.0001 164.4 71.0001C 165.3 71.0001 166 71.2001 166 71.4001zM 200.2 74.2001C 199.5 74.9001 199.2 74.7001 199.5 73.4001C 200 70.5001 200.1 70.4001 200.7 71.8001C 201 72.6001 200.8 73.6001 200.2 74.2001zM 232 76.4001C 232 76.9001 231.4 76.6001 230.7 75.5001C 229.1 73.4001 227.4 75.0001 228.4 77.7001C 228.9 79.0001 228.8 79.1001 227.5 78.0001C 226.6 77.2001 226.3 76.2001 226.9 75.1001C 227.4 74.2001 227.5 72.9001 227.3 72.2001C 227 71.4001 227.9 71.8001 229.4 73.1001C 230.8 74.3001 232 75.8001 232 76.4001zM 252 72.5001C 252 73.3001 251.6 74.0001 251 74.0001C 250.5 74.0001 250.3 73.3001 250.6 72.5001C 251 71.7001 251.4 71.0001 251.6 71.0001C 251.8 71.0001 252 71.7001 252 72.5001zM 111.8 74.2001C 110.4 76.6001 109 78.0001 107.7 78.0001C 107.3 78.0001 107.8 77.0001 109 75.8001C 110.1 74.6001 111 73.3001 111 72.8001C 111 72.4001 111.5 72.0001 112 72.0001C 112.6 72.0001 112.5 72.9001 111.8 74.2001zM 155.1 73.4001C 155.6 73.1001 156 73.4001 156 74.0001C 156 75.5001 153.7 74.7001 153.4 73.2001C 153.3 72.5001 153.4 72.4 153.7 73.0001C 153.9 73.5001 154.6 73.8001 155.1 73.4001zM 175 72.6001C 175 73.4001 173.1 73.9001 172.6 73.2001C 172.3 72.7001 172.7 72.3 173.5 72.3C 174.3 72.3 175 72.5 175 72.6001zM 184 73.0001C 184 73.5001 183.5 74.0001 182.9 74.0001C 182.4 74.0001 182.2 73.5001 182.5 73.0001C 182.8 72.4001 183.3 72.0001 183.6 72.0001C 183.8 72.0001 184 72.4001 184 73.0001zM 223.5 73.0001C 223.8 73.5001 223.7 74.0001 223.1 74.0001C 222.6 74.0001 221.8 73.5001 221.5 73.0001C 221.2 72.4001 221.3 72.0001 221.9 72.0001C 222.4 72.0001 223.2 72.4001 223.5 73.0001zM 265 72.9001C 265 73.5001 264.6 74.2001 264 74.5001C 263.5 74.8001 263 74.4001 263 73.6001C 263 72.7001 263.5 72.0001 264 72.0001C 264.6 72.0001 265 72.4001 265 72.9001zM 147.4 74.1001C 147.1 74.7001 147.7 76.5001 148.9 78.1001C 150.1 79.7001 150.7 81.0001 150.2 81.0001C 149.7 81.0001 148.7 79.9001 148 78.5001C 147.3 77.1001 146.2 76.0001 145.7 76.0001C 145.2 76.0001 145.3 75.3001 146 74.5001C 147.4 72.8001 148.4 72.5001 147.4 74.1001zM 194 73.4001C 194 74.5001 192.1 74.9001 191.5 74.0001C 191.2 73.5001 191.6 73.0001 192.4 73.0001C 193.3 73.0001 194 73.2001 194 73.4001zM 242.8 75.5001C 242.7 76.8001 242.2 77.6001 241.8 77.2001C 241.3 76.7001 241.2 75.6001 241.6 74.7001C 242.5 72.3 243 72.6001 242.8 75.5001zM 12.1 76.7001C 11.5 77.7001 11 78.0001 11 77.3C 11 76.7001 10.4 76 9.80001 75.7001C 9.10001 75.5001 9.30001 75.4 10.3 75.5001C 11.2 75.7001 12 75.3001 12 74.7001C 12 74.1001 12.3 73.9 12.6 74.3C 12.9 74.6001 12.7 75.7001 12.1 76.7001zM 19.7 76.2001C 19.4 77.0001 19.1 76.7001 19.1 75.6001C 19 74.5001 19.3 73.9001 19.6 74.3C 19.9 74.6001 20 75.5 19.7 76.2001zM 85 75.0001C 86.1 75.7001 86.2 76.2001 85.3 77.1001C 84.5 77.9001 83.9 77.7001 83.1 76.1001C 81.9 73.9001 82.6 73.4001 85 75.0001zM 213.2 78.7001C 214 79.7001 213.8 80.0001 212.6 80.0001C 211.4 80.0001 211 79.1001 211.1 76.7001C 211.2 74.6001 211.4 74.2001 211.7 75.5001C 212 76.6001 212.7 78.1001 213.2 78.7001zM 237.4 75.6001C 237.7 76.4001 237.6 76.8 237 76.5001C 236.4 76.2001 236 75.5001 236 74.9001C 236 73.5001 236.7 73.8001 237.4 75.6001zM 25 75.4001C 25 76.3001 21.8 79.0001 20.8 79.0001C 20.2 79.0001 20.8 78.1001 22.1 77.0001C 24.6 74.9001 25 74.7001 25 75.4001zM 121 75.4001C 121 75.7001 120.6 76.2001 120 76.5001C 119.5 76.8001 119 76.6001 119 76.1001C 119 75.5001 119.5 75.0001 120 75.0001C 120.6 75.0001 121 75.2001 121 75.4001zM 127.2 76.3001C 126.4 77.3001 126.5 78.4001 127.6 80.5001C 128.4 82.0001 128.9 83.5001 128.6 83.7001C 128.4 83.9 127.5 82.5001 126.6 80.5001C 124.9 77.0001 125.1 75.0001 127.2 75.0001C 127.9 75.0001 127.9 75.4001 127.2 76.3001zM 198 76.0001C 198 76.5001 197.6 77.0001 197 77.0001C 196.5 77.0001 196 76.5001 196 76.0001C 196 75.4001 196.5 75.0001 197 75.0001C 197.6 75.0001 198 75.4001 198 76.0001zM 16.7 78.5001C 16.3 79.3001 15.3 79.9001 14.3 79.9001C 12.6 79.8001 12.6 79.7001 14.3 79.3001C 15.2 79.1001 16 78.1001 16 77.3001C 16 76.4001 16.3 75.9001 16.6 76.3001C 17 76.6001 17 77.6001 16.7 78.5001zM 30.3 77.5001C 30 78.4001 29.5 78.9001 29.3 78.6001C 29 78.3 29.1 77.7001 29.5 77.1001C 30.4 75.5001 31 75.8 30.3 77.5001zM 104.5 78.1001C 104.9 79.3 104.7 80.7001 104 81.4001C 103 82.2001 102.9 82.1001 103.4 80.6001C 103.7 79.6001 103.5 78.1001 102.9 77.4001C 102.1 76.5001 102.1 76.0001 102.8 76.0001C 103.4 76.0001 104.2 76.9001 104.5 78.1001zM 115 76.4001C 115 76.6001 114.2 77.4001 113.3 78.1001C 111.7 79.4001 111.6 79.3 112.9 77.7001C 114.2 76.1001 115 75.6001 115 76.4001zM 136.8 78.5001C 136.2 79.9001 135.5 80.8001 135.3 80.6001C 134.8 80.1001 136.8 76.0001 137.5 76.0001C 137.8 76.0001 137.4 77.1001 136.8 78.5001zM 175.5 77.0001C 175.2 77.5001 174.5 78.0001 173.9 78.0001C 173.4 78.0001 173 77.5001 173 77.0001C 173 76.4001 173.7 76.0001 174.6 76.0001C 175.4 76.0001 175.8 76.4001 175.5 77.0001zM 39.6 79.6001C 38.6 80.5001 38.1 81.9001 38.4 82.7001C 38.7 83.5001 38.4 84.8 37.6 85.6001C 35.4 87.7001 35 87.3 36 83.9001C 37 80.7001 39.9 76.6001 40.8 77.4001C 41 77.7001 40.5 78.7001 39.6 79.6001zM 162.3 82.2001L 164.1 85.5001L 161.9 83.0001C 160.7 81.6001 159.4 80.6001 159.1 80.7001C 158.7 80.8 158.4 80.0001 158.4 79.0001C 158.4 76.6001 159.9 77.8001 162.3 82.2001zM 194.3 79.5001C 193.6 81.6001 193 81.4001 193 78.9001C 193 77.8001 193.4 77.1001 194 77.5001C 194.5 77.8001 194.7 78.7001 194.3 79.5001zM 265 77.4001C 265 77.6001 264.2 78.4001 263.3 79.1001C 261.7 80.4001 261.6 80.3 262.9 78.7001C 264.2 77.1001 265 76.6001 265 77.4001zM 6 79.5001C 5.3 80.3001 4.3 80.7001 3.7 80.3001C 3.1 79.9001 3.4 79.4001 4.6 78.9001C 7.3 77.8001 7.4 77.8001 6 79.5001zM 43.4 81.9001C 42.4 83.6001 41.1 85.0001 40.6 85.0001C 40.1 85.0001 40.4 84.2001 41.2 83.2001C 42 82.3 43 80.6001 43.4 79.6001C 43.7 78.6001 44.3 78.0001 44.6 78.3C 44.9 78.6001 44.4 80.2001 43.4 81.9001zM 81.5 79.0001C 81.8 79.5001 81.6 80.0001 81.1 80.0001C 80.5 80.0001 80 79.5001 80 79.0001C 80 78.4001 80.2 78.0001 80.4 78.0001C 80.7 78.0001 81.2 78.4001 81.5 79.0001zM 178 79.0001C 178 79.5001 177.6 80.0001 177 80.0001C 176.5 80.0001 176 79.5001 176 79.0001C 176 78.4001 176.5 78.0001 177 78.0001C 177.6 78.0001 178 78.4001 178 79.0001zM 201 78.7001C 201 79.2001 200.5 80.2001 200 81.0001C 199.2 82.2001 199 82.1001 199 80.2001C 199 79.0001 199.5 78.0001 200 78.0001C 200.6 78.0001 201 78.3001 201 78.7001zM 249.2 83.0001C 248 84.9001 246.9 85.7001 246.6 85.1001C 246.2 84.5001 246.3 84.0001 246.8 84.0001C 247.4 84.0001 248.3 82.5001 249 80.7001C 249.7 79.0001 250.4 78.0001 250.6 78.6001C 250.9 79.3 250.2 81.2001 249.2 83.0001zM 66.5 80.0001C 66.2 80.5001 65.4 81.0001 64.9 81.0001C 64.3 81.0001 64.2 80.5001 64.5 80.0001C 64.8 79.4001 65.6 79.0001 66.1 79.0001C 66.7 79.0001 66.8 79.4001 66.5 80.0001zM 78.2 80.5001C 79.6 80.5001 80 81.8001 78.7 82.3001C 78 82.6001 76.8 81.9001 76.1 80.8001C 75.1 79.2001 75.1 78.9001 76.2 79.6001C 76.9 80.1001 77.8 80.5001 78.2 80.5001zM 89.3 82.0001C 87.6 84.9001 85 86.7001 85 85.0001C 85 82.7001 87.3 79.4001 89.1 79.3001C 91 79.1001 91 79.2001 89.3 82.0001zM 99.5 80.1001C 100.6 81.8 99.4 82.2001 98 80.5001C 97.2 79.6001 97.2 79.0001 97.8 79.0001C 98.4 79.0001 99.2 79.5001 99.5 80.1001zM 146.4 80.6001C 146.7 81.4001 146.6 81.8 146 81.5001C 145.4 81.2001 145 80.5001 145 79.9001C 145 78.5001 145.7 78.8001 146.4 80.6001zM 181.6 81.5001C 180.7 82.4001 180 82.8001 180 82.3001C 180 81.8001 180.5 80.9001 181.2 80.2001C 181.8 79.6001 182.6 79.2001 182.8 79.5001C 183 79.7001 182.5 80.6001 181.6 81.5001zM 190.5 80.0001C 190.8 80.5001 190.6 81.0001 190.1 81.0001C 189.5 81.0001 189 80.5001 189 80.0001C 189 79.4001 189.2 79.0001 189.4 79.0001C 189.7 79.0001 190.2 79.4001 190.5 80.0001zM 208 80.5001C 208.7 81.4001 208.8 82.0001 208.2 82.0001C 207.7 82.0001 207 81.3001 206.6 80.5001C 206.3 79.7001 206.2 79.0001 206.4 79.0001C 206.6 79.0001 207.3 79.7001 208 80.5001zM 254.4 84.9001C 252.7 86.4001 252.7 86.4001 253.8 84.9001C 254.5 84.0001 255 82.8001 254.9 82.4001C 254.8 81.9001 254.9 80.8001 255 80.0001C 255.2 79.2001 255.5 79.6001 255.7 80.9001C 256 82.3001 255.5 83.9001 254.4 84.9001zM 85 80.4001C 85 80.7001 84.6 81.2001 84 81.5001C 83.5 81.8001 83 81.6001 83 81.1001C 83 80.5001 83.5 80.0001 84 80.0001C 84.6 80.0001 85 80.2001 85 80.4001zM 124 85.9001C 123.9 87.2001 121 82.5001 121 81.1001C 121 80.2001 121.7 80.8 122.5 82.4001C 123.3 83.9001 124 85.5001 124 85.9001zM 232.7 80.6001C 232.4 80.9001 231.5 81.0001 230.8 80.7001C 230 80.4 230.3 80.1001 231.4 80.1001C 232.5 80.0001 233.1 80.3 232.7 80.6001zM 237.3 81.7001C 237 82.4 237.3 83.0001 237.9 83.0001C 238.7 83.0001 238.7 83.6001 237.8 85.0001C 237 86.3001 236.3 86.6001 235.9 85.8001C 235.3 84.9001 234.7 85.0001 233.6 85.9001C 232.5 86.9001 232 86.9001 232 86.1001C 232 85.5001 232.7 84.7001 233.5 84.4001C 234.3 84.0001 235 83.0001 235 82.1001C 235 81.1001 235.6 80.3 236.4 80.3C 237.2 80.3 237.6 80.9 237.3 81.7001zM 32 83.5001C 32 86.5001 30.5 86.8001 29.7 84.0001C 29.3 82.4001 29.8 81.7001 31.8 81.1001C 31.9 81.0001 32 82.1001 32 83.5001zM 72 81.4001C 72 81.7001 71.6 82.2001 71 82.5001C 70.5 82.8001 70 82.6001 70 82.1001C 70 81.5001 70.5 81.0001 71 81.0001C 71.6 81.0001 72 81.2001 72 81.4001zM 173.5 82.0001C 173.8 82.5001 173.7 83.0001 173.1 83.0001C 172.6 83.0001 171.8 82.5001 171.5 82.0001C 171.2 81.4001 171.3 81.0001 171.9 81.0001C 172.4 81.0001 173.2 81.4001 173.5 82.0001zM 213 82.1001C 213 82.6001 212.6 82.9001 212.1 82.6001C 211.6 82.2001 210.9 82.6001 210.7 83.2001C 210.4 84.0001 210.1 83.8 210.1 82.7001C 210 81.8 210.7 81.0001 211.5 81.0001C 212.3 81.0001 213 81.5001 213 82.1001zM 230 85.4001C 230 88.0001 229.4 87.2001 228.6 83.5001C 228.1 81.3001 228.2 80.9001 229 82.0001C 229.5 82.8001 230 84.4001 230 85.4001zM 7.99998 82.4001C 7.99998 82.7001 7.59998 83.2001 6.99998 83.5001C 6.49998 83.8001 5.99998 83.6001 5.99998 83.1001C 5.99998 82.5001 6.49998 82.0001 6.99998 82.0001C 7.59998 82.0001 7.99998 82.2001 7.99998 82.4001zM 22.4 83.4001C 22.1 84.2001 21.1 85.1001 20.2 85.5001C 18.9 86.0001 18.9 85.7001 20.5 84.0001C 22.6 81.6001 23.1 81.5001 22.4 83.4001zM 96 82.4001C 96 82.7001 95.6 83.2001 95 83.5001C 94.5 83.8001 94 83.6001 94 83.1001C 94 82.5001 94.5 82.0001 95 82.0001C 95.6 82.0001 96 82.2001 96 82.4001zM 117.5 83.0001C 117.8 83.5001 117.6 84.0001 117.1 84.0001C 116.5 84.0001 116 83.5001 116 83.0001C 116 82.4001 116.2 82.0001 116.4 82.0001C 116.7 82.0001 117.2 82.4001 117.5 83.0001zM 137.3 84.0001C 137 85.1001 136.6 86.0001 136.4 86.0001C 136.2 86.0001 136 85.1001 136 84.0001C 136 82.9001 136.4 82.0001 136.9 82.0001C 137.4 82.0001 137.6 82.9001 137.3 84.0001zM 170.8 84.5001C 170.5 84.8001 169.9 84.3001 169.6 83.3001C 169 81.9001 169.1 81.8001 170.1 82.7001C 170.8 83.4001 171.1 84.2001 170.8 84.5001zM 190 88.9001C 189.9 89.2001 189.1 88.5001 188 87.2001C 187 85.9001 186.4 84.2001 186.7 83.3001C 187.1 82.2001 187.7 82.6001 188.6 85.0001C 189.4 86.8001 190 88.5001 190 88.9001zM 198 82.4001C 198 82.7001 197.6 83.2001 197 83.5001C 196.5 83.8001 196 83.6001 196 83.1001C 196 82.5001 196.5 82.0001 197 82.0001C 197.6 82.0001 198 82.2001 198 82.4001zM 82.6 85.7001C 81.9 86.4001 80 85.0001 80 83.8001C 80 83.2001 80.6 83.2001 81.5 84.0001C 82.4 84.7001 82.8 85.5001 82.6 85.7001zM 207 86.0001C 207 87.0001 206.7 88.1001 206.3 88.3001C 205.8 88.6001 205.5 87.5001 205.5 86.0001C 205.5 84.5001 205.8 83.4001 206.3 83.7001C 206.7 83.9001 207 85.0001 207 86.0001zM 259.5 84.0001C 259.2 84.5001 258.3 85.0001 257.7 85.0001C 257 85.0001 257.1 84.6001 258 84.0001C 259.9 82.8001 260.3 82.8001 259.5 84.0001zM 26.5 85.9001C 26.1 87.3001 27.1 88.7001 30.1 91.4001C 32.5 93.4001 33.9 95.0001 33.4 95.0001C 32.8 95.0001 31.8 94.4001 31.1 93.7001C 30 92.7001 29.9 92.9001 30.4 94.6001C 30.8 96.0001 30.5 97.4001 29.5 98.3001C 28.7 99.2001 28 100.3 28 100.9C 28 101.5 27.6 102 27 102C 25.7 102 26.8 94.7001 28.3 93.8001C 29.5 93.1001 26.6 88.0001 25 88.0001C 24.4 88.0001 24.5 87.1001 25.2 86.0001C 26.8 83.5001 27.3 83.4001 26.5 85.9001zM 56.5 85.0001C 56.8 85.5001 56.7 86.0001 56.1 86.0001C 55.6 86.0001 54.8 85.5001 54.5 85.0001C 54.2 84.4001 54.3 84.0001 54.9 84.0001C 55.4 84.0001 56.2 84.4001 56.5 85.0001zM 141.5 85.0001C 141.8 85.5001 141.7 86.0001 141.1 86.0001C 140.6 86.0001 139.8 85.5001 139.5 85.0001C 139.2 84.4001 139.3 84.0001 139.9 84.0001C 140.4 84.0001 141.2 84.4001 141.5 85.0001zM 8.89999 87.8001C 8.89999 88.9001 8.69999 89.0001 8.29999 88.2001C 8.09999 87.6001 7.39999 87.2001 6.89999 87.5001C 6.39999 87.9001 6.29999 87.4001 6.59999 86.6001C 7.39999 84.6001 8.99999 85.5001 8.89999 87.8001zM 61 88.7001C 59.9 90.4001 59.9 90.4001 60.4 88.7001C 60.7 87.7001 61 86.3001 61.1 85.7001C 61.1 84.8001 61.3 84.8001 61.6 85.7001C 61.9 86.4001 61.6 87.7001 61 88.7001zM 74.9 88.6001C 74.3 89.3001 74.8 90.7001 76.1 92.4001L 78.2 95.0001L 75.7 93.9001C 73.8 93.0001 73.3 92.1001 73.3 89.0001C 73.3 86.0001 73.6 85.5001 74.6 86.4001C 75.3 87.1001 75.5 87.9001 74.9 88.6001zM 153 87.8001C 153 89.3001 152.8 89.3001 152 88.0001C 150.7 86.0001 150.7 84.7001 152 85.5001C 152.6 85.8001 153 86.9001 153 87.8001zM 214 87.1001C 214 87.7001 213.6 87.8001 213 87.5001C 212.5 87.2001 212 86.4001 212 85.9001C 212 85.3001 212.5 85.2001 213 85.5001C 213.6 85.8001 214 86.6001 214 87.1001zM 158.6 88.7001C 157.9 89.4001 156 88.0001 156 86.8001C 156 86.2001 156.6 86.2001 157.5 87.0001C 158.4 87.7001 158.8 88.5001 158.6 88.7001zM 202.8 88.0001C 201.4 90.2001 200.4 89.9001 201.3 87.5001C 201.7 86.7001 202.4 86.0001 203 86.0001C 203.6 86.0001 203.6 86.7001 202.8 88.0001zM 211 86.4001C 211 86.7001 210.6 87.2001 210 87.5001C 209.5 87.8001 209 87.6001 209 87.1001C 209 86.5001 209.5 86.0001 210 86.0001C 210.6 86.0001 211 86.2001 211 86.4001zM 22.7 90.8001C 21.8 91.9001 21.4 91.7001 20.7 89.8001C 19.8 87.6001 19.7 87.6001 19.1 89.4001C 18.4 91.1001 18.3 91.1001 17.7 89.7001C 16.9 87.7001 18.8 87.1001 21.6 88.4001C 23.3 89.2001 23.6 89.8001 22.7 90.8001zM 34 88.0001C 34 88.5001 33.5 89.0001 32.9 89.0001C 32.4 89.0001 32.2 88.5001 32.5 88.0001C 32.8 87.4001 33.3 87.0001 33.6 87.0001C 33.8 87.0001 34 87.4001 34 88.0001zM 240.1 91.3001C 239.3 92.1001 239 91.6001 239 89.4001C 239.1 86.9001 239.2 86.7001 240.1 88.3001C 240.9 89.7001 240.9 90.5001 240.1 91.3001zM 4.5 89.1001C 5.6 90.8001 4.4 91.2001 3 89.5001C 2.2 88.6001 2.2 88.0001 2.8 88.0001C 3.4 88.0001 4.2 88.5001 4.5 89.1001zM 57 89.0001C 57 89.5001 56.8 90.0001 56.6 90.0001C 56.3 90.0001 55.8 89.5001 55.5 89.0001C 55.2 88.4001 55.4 88.0001 55.9 88.0001C 56.5 88.0001 57 88.4001 57 89.0001zM 110 88.4001C 110 88.7001 109.6 89.2001 109 89.5001C 108.5 89.8001 108 89.6001 108 89.1001C 108 88.5001 108.5 88.0001 109 88.0001C 109.6 88.0001 110 88.2001 110 88.4001zM 164.1 89.7001C 165.4 91.3001 165.3 91.4001 163.8 90.1001C 162.1 88.8001 161.6 88.0001 162.4 88.0001C 162.6 88.0001 163.4 88.8001 164.1 89.7001zM 222 89.0001C 222 89.5001 221.8 90.0001 221.6 90.0001C 221.3 90.0001 220.8 89.5001 220.5 89.0001C 220.2 88.4001 220.4 88.0001 220.9 88.0001C 221.5 88.0001 222 88.4001 222 89.0001zM 262.7 88.6001C 262.4 88.9001 261.5 89.0001 260.8 88.7001C 260 88.4001 260.3 88.1001 261.4 88.1001C 262.5 88.0001 263.1 88.3001 262.7 88.6001zM 53 93.4001C 53 94.6001 52.5 94.1001 51.1 91.0001C 50 88.6001 50 88.6001 51.4 90.4001C 52.3 91.5001 53 92.8001 53 93.4001zM 70.1 91.5001C 70.6 91.1001 71 91.4001 71 91.9001C 71 92.5001 70.3 93.0001 69.5 93.0001C 68.6 93.0001 68 92.1001 68.1 90.7001C 68.2 89.0001 68.3 88.9001 68.7 90.3001C 68.9 91.2001 69.6 91.8001 70.1 91.5001zM 81.8 91.0001C 80.4 93.2001 79.4 92.9001 80.3 90.5001C 80.7 89.7001 81.4 89.0001 82 89.0001C 82.6 89.0001 82.6 89.7001 81.8 91.0001zM 188 90.0001C 188 90.5001 187.6 91.0001 187 91.0001C 186.5 91.0001 186 90.5001 186 90.0001C 186 89.4001 186.5 89.0001 187 89.0001C 187.6 89.0001 188 89.4001 188 90.0001zM 10.8 92.5001C 10.5 92.8001 9.90002 92.3001 9.60002 91.3001C 9.00002 89.9001 9.10002 89.8001 10.1 90.7001C 10.8 91.4001 11.1 92.2001 10.8 92.5001zM 198 90.4001C 198 90.7001 197.6 91.2001 197 91.5001C 196.5 91.8001 196 91.6001 196 91.1001C 196 90.5001 196.5 90.0001 197 90.0001C 197.6 90.0001 198 90.2001 198 90.4001zM 263 92.2001C 263 93.9001 262.7 94.1001 262.1 93.1001C 261.6 92.4001 260.7 92.1001 260.1 92.4001C 258.9 93.2001 258.6 91.8001 259.7 90.7001C 261.1 89.2001 263 90.1001 263 92.2001zM 57 91.4001C 57 91.7001 56.6 92.2001 56 92.5001C 55.5 92.8001 55 92.6001 55 92.1001C 55 91.5001 55.5 91.0001 56 91.0001C 56.6 91.0001 57 91.2001 57 91.4001zM 64.5 92.0001C 64.8 92.5001 64.7 93.0001 64.1 93.0001C 63.6 93.0001 62.8 92.5001 62.5 92.0001C 62.2 91.4001 62.3 91.0001 62.9 91.0001C 63.4 91.0001 64.2 91.4001 64.5 92.0001zM 130.6 92.5001C 130.3 93.3001 130.6 94.0001 131.3 94.0001C 132 94.0001 132.6 94.9001 132.6 96.0001C 132.6 98.5001 131.4 98.6001 130 96.1001C 129.1 94.3001 129.5 91.0001 130.7 91.0001C 131 91.0001 131 91.7001 130.6 92.5001zM 143.4 92.5001C 143.7 93.3001 143.5 94.0001 143 94.0001C 142.4 94.0001 142 93.3001 142 92.5001C 142 91.7001 142.2 91.0001 142.4 91.0001C 142.6 91.0001 143 91.7001 143.4 92.5001zM 212.9 92.6001C 213.5 92.2001 214 92.3001 214 92.9001C 214 93.4001 213.5 94.2001 213 94.5001C 212.4 94.9001 212.2 95.6001 212.5 96.1001C 213.4 97.5001 212.3 97.2001 210.6 95.5001C 209.8 94.6001 209.4 93.2001 209.7 92.4001C 210.1 91.2001 210.5 91.2001 211 92.0001C 211.4 92.7001 212.3 92.9001 212.9 92.6001zM 227 91.4001C 227 91.7001 226.6 92.2001 226 92.5001C 225.5 92.8001 225 92.6001 225 92.1001C 225 91.5001 225.5 91.0001 226 91.0001C 226.6 91.0001 227 91.2001 227 91.4001zM 231 92.0001C 231 92.5001 230.8 93.0001 230.6 93.0001C 230.3 93.0001 229.8 92.5001 229.5 92.0001C 229.2 91.4001 229.4 91.0001 229.9 91.0001C 230.5 91.0001 231 91.4001 231 92.0001zM 14.9 96.5001C 15 97.0001 14.3 96.7001 13.4 95.8001C 12.4 94.9001 12.1 93.7001 12.6 92.9001C 13.1 92.0001 13.5 92.1001 14.1 93.6001C 14.5 94.6001 14.9 95.9001 14.9 96.5001zM 37 93.0001C 37 93.5001 36.5 94.0001 35.9 94.0001C 35.4 94.0001 35.2 93.5001 35.5 93.0001C 35.8 92.4001 36.3 92.0001 36.6 92.0001C 36.8 92.0001 37 92.4001 37 93.0001zM 96 93.6001C 96 94.4001 95.6 94.8001 95 94.5001C 94.5 94.2001 94 93.5001 94 92.9001C 94 92.4001 94.5 92.0001 95 92.0001C 95.6 92.0001 96 92.7001 96 93.6001zM 89 93.4001C 89 94.5001 87.1 94.9001 86.5 94.0001C 86.2 93.5001 86.6 93.0001 87.4 93.0001C 88.3 93.0001 89 93.2001 89 93.4001zM 151 94.0001C 151 94.5001 150.8 95.0001 150.6 95.0001C 150.3 95.0001 149.8 94.5001 149.5 94.0001C 149.2 93.4001 149.4 93.0001 149.9 93.0001C 150.5 93.0001 151 93.4001 151 94.0001zM 159 96.0001C 159 96.6001 158.1 96.5001 157 95.8001C 155.9 95.1001 155 94.2001 155 93.7001C 155 93.3001 155.9 93.4001 157 94.0001C 158.1 94.6001 159 95.5001 159 96.0001zM 180 94.0001C 180 94.5001 179.8 95.0001 179.6 95.0001C 179.3 95.0001 178.8 94.5001 178.5 94.0001C 178.2 93.4001 178.4 93.0001 178.9 93.0001C 179.5 93.0001 180 93.4001 180 94.0001zM 9 95.5001C 9 96.1001 8.1 96.6001 7 96.6001C 5.9 96.6001 4.9 96.1001 4.7 95.5001C 4.4 95.0001 5.3 94.5001 6.6 94.5001C 7.9 94.5001 9 95.0001 9 95.5001zM 73 96.2001C 73 97.5001 72.5 99.2001 72 100C 71.3 101.1 71.1 100.5 71.2 97.7001C 71.3 93.8001 73 92.4001 73 96.2001zM 167.8 96.5001C 168.4 97.9001 168.6 99.0001 168.2 99.0001C 167 99.0001 165 96.7001 165 95.3001C 165 93.1001 166.6 93.8001 167.8 96.5001zM 187 96.1001C 187 96.7001 186.6 96.8001 186 96.5001C 185.5 96.2001 185 95.4001 185 94.9001C 185 94.3001 185.5 94.2001 186 94.5001C 186.6 94.8001 187 95.6001 187 96.1001zM 202 96.1001C 201.3 97.2001 200.6 97.9001 200.3 97.6001C 200 97.3001 200.3 96.4001 201 95.5001C 202.8 93.4001 203.3 93.6001 202 96.1001zM 258.6 95.6001C 257.7 96.4001 257 97.6001 257 98.3001C 257 100.1 251.8 107 250.4 107C 249.5 107 249.3 106 249.7 103.2C 250.4 98.6001 250.9 98.0001 252.1 100.3C 252.7 101.2 253.6 102 254.1 102C 254.7 102 254.8 101.4 254.3 100.7C 252.6 97.9001 253.4 93.5001 255.1 96.1001C 255.9 97.2001 256.2 97.2001 257.1 95.7001C 257.6 94.8001 258.6 94.0001 259.1 94.0001C 259.7 94.0001 259.4 94.7001 258.6 95.6001zM 38.9 97.7001C 38.9 100.2 38.8 100.2 38.1 98.5001C 37.6 97.4001 37.4 96.2001 37.7 95.7001C 38.5 94.3 39 95.0001 38.9 97.7001zM 107 98.0001C 106.4 99.2001 105.6 99.9001 105.3 99.7001C 105.1 99.4001 105.4 98.2001 106 97.0001C 106.6 95.8 107.4 95.1001 107.7 95.3C 107.9 95.6001 107.6 96.8 107 98.0001zM 179.5 97.6001C 180.4 99.1001 180.7 99.9001 180.1 99.6001C 179 98.9001 176.6 95.0001 177.3 95.0001C 177.6 95.0001 178.5 96.2001 179.5 97.6001zM 237.2 99.1001C 236.5 100.2 236.2 101.5 236.5 102C 236.9 102.6 236.5 103 235.8 103C 235.1 103 233.9 103.9 233.2 105C 232.5 106.1 231.5 107 230.9 107C 230.3 107 230.2 106.5 230.7 105.7C 231.1 105.1 231.5 104.2 231.6 103.7C 231.7 103.3 231.9 102.7 232 102.2C 232.4 101.1 232.7 99.6001 232.8 98.2001C 232.9 97.6001 233.4 97.0001 234 97.0001C 234.5 97.0001 234.7 97.7001 234.4 98.5001C 234 99.3 234.3 100 234.9 100C 235.5 100 236 98.8 236 97.3C 236 95.2001 236.3 94.9001 237.2 95.8C 238.2 96.8 238.2 97.5001 237.2 99.1001zM 25 97.0001C 25 97.5001 24.8 98.0001 24.6 98.0001C 24.3 98.0001 23.8 97.5001 23.5 97.0001C 23.2 96.4001 23.4 96.0001 23.9 96.0001C 24.5 96.0001 25 96.4001 25 97.0001zM 96.4 97.5001C 96 98.3 95.3 99.0001 94.8 99.0001C 94.2 99.0001 94.3 98.4001 95 97.5001C 95.7 96.7001 96.4 96.0001 96.6 96.0001C 96.8 96.0001 96.7 96.7001 96.4 97.5001zM 121.3 97.5001C 121.7 98.3 121.5 99.2001 121 99.5001C 120.4 99.9001 120 99.2001 120 98.1001C 120 95.6001 120.6 95.4001 121.3 97.5001zM 243.9 98.5001C 245.7 97.4001 245.2 102.6 243.3 104.1C 241.8 105.4 241.7 105.2 242.4 102.7C 242.8 100.8 242.7 100.1 241.8 100.2C 241.1 100.4 240.4 99.4001 240.2 98C 240 95.6001 240 95.6001 241.4 97.4001C 242.2 98.4001 243.3 98.9001 243.9 98.5001zM 2.39999 98.6001C 2.69999 99.4001 2.59999 99.8 1.99999 99.5001C 1.39999 99.2001 0.999994 98.5001 0.999994 97.9001C 0.999994 96.5001 1.69999 96.8 2.39999 98.6001zM 13.3 98.3C 13.6 99.1001 13.3 99.7001 12.6 99.7001C 11.9 99.7001 11.3 99.1001 11.3 98.3C 11.3 97.6001 11.7 97.0001 12.1 97.0001C 12.5 97.0001 13 97.6001 13.3 98.3zM 103.7 98.3C 103.7 99.0001 102.9 99.6001 101.9 99.6001C 100.6 99.6001 100.4 99.3 101.2 98.3C 101.8 97.6001 102.6 97.0001 103 97.0001C 103.3 97.0001 103.7 97.6001 103.7 98.3zM 155.1 99.3C 154.1 100.2 154 100.1 154.6 98.7001C 154.9 97.7001 155.5 97.2001 155.8 97.5001C 156.1 97.8 155.8 98.6001 155.1 99.3zM 248.4 98.5001C 248.7 99.4001 248.4 100 247.5 100C 246.6 100 246.3 99.4001 246.6 98.5001C 247 97.7001 247.3 97.0001 247.5 97.0001C 247.7 97.0001 248 97.7001 248.4 98.5001zM 36.1 101.3C 35.3 102.1 35 102 35 100.9C 35 100 35.3 99 35.7 98.6001C 36.1 98.2001 36.6 98.4001 36.8 99.0001C 37.1 99.7001 36.7 100.7 36.1 101.3zM 78.5 99.0001C 78.2 99.5001 77.4 100 76.9 100C 76.3 100 76.2 99.5001 76.5 99.0001C 76.8 98.4001 77.6 98.0001 78.1 98.0001C 78.7 98.0001 78.8 98.4001 78.5 99.0001zM 87.7 100C 87.8 101.1 87.5 101.8 86.9 101.5C 86.4 101.1 86 101.4 86 101.9C 86 102.5 85.5 103 85 103C 84.4 103 84.7 101.9 85.6 100.5C 87.6 97.5001 87.5 97.5001 87.7 100zM 129 99.5001C 129 100.3 129 101.2 129 101.5C 129 103.1 127.5 101.7 127.4 100C 127.3 98.9001 127.7 98.0001 128.1 98.0001C 128.6 98.0001 129 98.7001 129 99.5001zM 188 101C 188 102.6 187.7 104 187.3 104C 186.8 104 186.5 102.6 186.5 101C 186.5 99.3 186.8 98.0001 187.3 98.0001C 187.7 98.0001 188 99.3 188 101zM 191.7 104.7C 191.5 106.3 191.3 105.2 191.3 102.5C 191.3 99.7001 191.5 98.5001 191.7 99.7001C 191.9 101 191.9 103.2 191.7 104.7zM 133 100C 133 100.5 132.5 101 131.9 101C 131.4 101 131.2 100.5 131.5 100C 131.8 99.4001 132.3 99.0001 132.6 99.0001C 132.8 99.0001 133 99.4001 133 100zM 20 101C 20 101.5 19.5 102 18.9 102C 18.4 102 18.2 101.5 18.5 101C 18.8 100.4 19.3 100 19.6 100C 19.8 100 20 100.4 20 101zM 24.6 101.6C 24.3 102.5 24 103.4 24 103.6C 24 103.8 23.6 104 23.1 104C 22.6 104 22.4 103.1 22.7 102C 23 100.9 23.7 100 24.2 100C 24.8 100 24.9 100.7 24.6 101.6zM 223 102.5C 223 103.9 222.8 105 222.6 105C 222.4 105 221.5 103.9 220.6 102.5C 219 100.1 219 100 221 100C 222.5 100 223 100.7 223 102.5zM 95 102C 95 102.5 94.8 103 94.6 103C 94.3 103 93.8 102.5 93.5 102C 93.2 101.4 93.4 101 93.9 101C 94.5 101 95 101.4 95 102zM 72.7 104.2C 72.4 105 72.1 104.7 72.1 103.6C 72 102.5 72.3 101.9 72.6 102.3C 72.9 102.6 73 103.5 72.7 104.2zM 79.5 103.9C 79.2 104.5 78.4 105 77.8 105C 77.2 105 77.2 104.4 78 103.5C 79.4 101.8 80.6 102.2 79.5 103.9zM 208 103C 209.2 103.7 209 103.9 207.2 103.7C 206 103.7 205 103.2 205 102.8C 205 101.7 206.2 101.8 208 103zM 241 103C 241 103.5 240.5 104 239.9 104C 239.4 104 239.2 103.5 239.5 103C 239.8 102.4 240.3 102 240.6 102C 240.8 102 241 102.4 241 103zM 15 104.5C 15 105.3 14.8 106 14.6 106C 14.4 106 14 105.3 13.6 104.5C 13.3 103.7 13.5 103 14 103C 14.6 103 15 103.7 15 104.5zM 119 104.6C 119 105.4 118.6 105.8 118 105.5C 117.5 105.2 117 104.5 117 103.9C 117 103.4 117.5 103 118 103C 118.6 103 119 103.7 119 104.6zM 161.7 112.7C 161.5 114.8 161.3 113.3 161.3 109.5C 161.3 105.6 161.5 104 161.7 105.7C 161.9 107.5 161.9 110.7 161.7 112.7zM 170 109.4C 170 112.4 169.6 115.2 169 115.5C 168.4 115.9 168 113.8 168 110.1C 168 106.7 168.4 104 169 104C 169.6 104 170 106.4 170 109.4zM 199 105C 199 105.5 198.6 106 198 106C 197.5 106 197 105.5 197 105C 197 104.4 197.5 104 198 104C 198.6 104 199 104.4 199 105zM 60.1 107.3C 59.1 108.2 59 108.1 59.6 106.7C 59.9 105.7 60.5 105.2 60.8 105.5C 61.1 105.8 60.8 106.6 60.1 107.3zM 145 106C 145 106.5 143.9 107 142.5 107C 141.1 107 140 106.5 140 106C 140 105.4 141.1 105 142.5 105C 143.9 105 145 105.4 145 106zM 23.7 106.6C 23.4 106.9 22.5 107 21.8 106.7C 21 106.4 21.3 106.1 22.4 106.1C 23.5 106 24.1 106.3 23.7 106.6zM 82 107.5C 82 107.7 81.3 108 80.5 108.4C 79.6 108.7 79 108.4 79 107.5C 79 106.6 79.6 106.3 80.5 106.6C 81.3 107 82 107.3 82 107.5zM 159 111.4C 159 114.9 158.5 117.2 157.5 118C 156.2 119.1 156 118.4 156 112.6C 156 107.4 156.3 106 157.5 106C 158.6 106 159 107.3 159 111.4zM 104 109C 104 109.5 103.8 110 103.6 110C 103.3 110 102.8 109.5 102.5 109C 102.2 108.4 102.4 108 102.9 108C 103.5 108 104 108.4 104 109zM 121.4 109.5C 121.7 110.3 121.5 111 121 111C 120.4 111 120 110.3 120 109.5C 120 108.7 120.2 108 120.4 108C 120.6 108 121 108.7 121.4 109.5zM 200 109.7C 200 110.9 199.7 111.1 199.2 110.3C 198.8 109.7 197.1 109 195.5 108.7C 192.8 108.3 192.8 108.3 196.3 108.1C 199.2 108 200 108.4 200 109.7zM 19.4 109.9C 19.7 110.4 19.3 111 18.5 111.3C 17.6 111.7 17.3 111.4 17.7 110.4C 18.3 108.8 18.7 108.7 19.4 109.9zM 27 111C 27 111.5 26.8 112 26.6 112C 26.3 112 25.8 111.5 25.5 111C 25.2 110.4 25.4 110 25.9 110C 26.5 110 27 110.4 27 111zM 49.5 117C 49.2 117.5 48.4 118 47.9 118C 47.3 118 47.2 117.5 47.5 117C 47.8 116.4 48.6 116 49.1 116C 49.7 116 49.8 116.4 49.5 117zM 148.7 119.7C 146.7 119.9 143.5 119.9 141.7 119.7C 140 119.5 141.7 119.3 145.5 119.3C 149.4 119.3 150.8 119.5 148.7 119.7z"/>
<path style="stroke:none; fill:#000000" d="M 146 22.7C 148.5 23 150.9 23.5 151.5 24.1C 152.6 25.2 161 25.3 161 24.1C 161 23.2 149.6 21.9 144.5 22.2C 142.6 22.3 143.2 22.5 146 22.7z"/>
<path style="stroke:none; fill:#000000" d="M 154.8 27.7C 156 27.9 157.8 27.9 158.8 27.7C 159.7 27.4 158.7 27.2 156.5 27.3C 154.3 27.3 153.5 27.5 154.8 27.7z"/>
</g>
</g>
</svg>